<?xml version="1.0" standalone="no"?>
<!DOCTYPE svg PUBLIC "-//W3C//DTD SVG 1.1//EN" "http://www.w3.org/Graphics/SVG/1.1/DTD/svg11.dtd" >
<svg>
<metadata>
Created by FontForge 20090914 at Fri Mar 28 13:28:10 2014
 By www-data
URW Software, Copyright 1993 by URW
</metadata>
<defs>
<font id="HarlowSolid" horiz-adv-x="956" >
  <font-face 
    font-family="Harlow Solid Italic"
    font-weight="400"
    font-style="italic"
    font-stretch="semi-expanded"
    units-per-em="2048"
    panose-1="4 3 6 4 2 15 2 2 13 2"
    ascent="1638"
    descent="-410"
    x-height="764.999"
    cap-height="1385"
    bbox="-560 -795.001 2851 1791"
    underline-thickness="227"
    underline-position="-99"
    slope="-22"
    unicode-range="U+0020-U+F002"
  />
<missing-glyph horiz-adv-x="512" 
d="M51 0v1365h410v-1365h-410zM410 51v1263h-308v-1263h308z" />
    <glyph glyph-name=".notdef" horiz-adv-x="512" 
d="M51 0v1365h410v-1365h-410zM410 51v1263h-308v-1263h308z" />
    <glyph glyph-name="space" unicode=" " horiz-adv-x="512" 
 />
    <glyph glyph-name="space" unicode="&#xa0;" horiz-adv-x="512" 
 />
    <glyph glyph-name="exclam" unicode="!" horiz-adv-x="593" 
d="M316 252c38 0 70.667 -13.667 98 -41s41 -60 41 -98c0 -38.667 -13.667 -71.667 -41 -99s-60 -41 -98 -41c-38.667 0 -71.667 13.667 -99 41s-41 60.333 -41 99c0 38 13.667 70.667 41 98s60.333 41 99 41zM765 1055l-219 -593.002c-37.333 -101.333 -82 -152 -134 -152
c-26 0 -48.167 9.16699 -66.5 27.5s-27.5 40.833 -27.5 67.5c0 16.667 3.66699 38.334 11 65.001l189 684c24 85.333 71 128 141 128c36.667 0 67.667 -12 93 -36s38 -53.333 38 -88c0 -23.333 -8.33301 -57.666 -25 -102.999z" />
    <glyph glyph-name="quotedbl" unicode="&#x22;" horiz-adv-x="967" 
d="M736 1152l-99 -235.001l-24 -56c-27.333 -64 -64.333 -96 -111 -96c-25.333 0 -47.166 9.16699 -65.499 27.5s-27.5 40.833 -27.5 67.5c0 12.667 1.66699 25.667 5 39l6 26l69 326c8 38 25.167 68.833 51.5 92.5s56.166 35.5 89.499 35.5c36.667 0 67.667 -12 93 -36
s38 -53.333 38 -88c0 -29.333 -8.33301 -63.666 -25 -102.999zM1110 1152l-99.001 -235l-24 -56c-27.333 -64 -64.333 -96 -111 -96c-25.333 0 -47.166 9.16699 -65.499 27.5s-27.5 40.833 -27.5 67.5c0 12.667 1.66699 25.667 5 39l6 26l69 326
c8.66699 38 26 68.833 52 92.5s55.667 35.5 89 35.5c36.667 0 67.667 -12 93 -36s38 -53.333 38 -88c0 -30 -8.33301 -64.333 -25 -103z" />
    <glyph glyph-name="numbersign" unicode="#" 
d="M673 877l154.003 -0.00585938l101 249c31.333 77.333 76.666 116 135.999 116c27.333 0 50.166 -8 68.499 -24s27.5 -36.333 27.5 -61c0 -15.333 -6.66699 -39.666 -20 -72.999l-85 -207c73.333 -4.66699 110 -31.667 110 -81c0 -37.333 -14.5 -66.166 -43.5 -86.499
s-70.167 -30.5 -123.5 -30.5h-23l-53 -129c74 -4.66699 111 -31.667 111 -81c0 -37.333 -14.5 -66.166 -43.5 -86.499s-70.167 -30.5 -123.5 -30.5h-25l-101 -250c-32 -77.333 -77.333 -116 -136 -116c-27.333 0 -50.333 7.83301 -69 23.5s-28 35.167 -28 58.5
c0 16.667 7 42.334 21 77.001l85 207h-154l-102 -250c-31.333 -77.333 -76.333 -116 -135 -116c-27.333 0 -50.333 7.83301 -69 23.5s-28 35.167 -28 58.5c0 17.333 7 43 21 77l84 207c-74 4.66699 -111 31.667 -111 81c0 36.667 14.667 65.334 44 86.001s70.333 31 123 31
h24l53 129c-74.667 4.66699 -112 31.667 -112 81c0 36.667 14.667 65.334 44 86.001s70.333 31 123 31h26l102 249c31.333 77.333 76.333 116 135 116c27.333 0 50.166 -8 68.499 -24s27.5 -36.333 27.5 -61c0 -16 -6.66699 -40.333 -20 -73zM592.003 678.994l-53 -129h154
l53 129h-154z" />
    <glyph glyph-name="dollar" unicode="$" 
d="M919 1233l15.999 0.00390625c81.333 0 122 -30.667 122 -92c0 -44.667 -15.667 -79.334 -47 -104.001s-75.333 -37 -132 -37h-130l-25 -1c-56 0 -83 -19 -81 -57c0.666992 -14 6.66699 -33.333 18 -58l165 -372c36.667 -82.667 55 -156.334 55 -221.001
c0 -78.667 -30.5 -146.834 -91.5 -204.501s-133.167 -86.5 -216.5 -86.5l-18 -46c-27.333 -66.667 -70 -100 -128 -100c-29.333 0 -54 9.66699 -74 29s-30 43.666 -30 72.999c0 12 3 26.667 9 44h-24c-47.333 -0 -81.166 7.33301 -101.499 22s-30.5 39 -30.5 73
c0 42 15.5 75 46.5 99s74.167 36 129.5 36h184c72.667 0 109 25.333 109 76c0 16 -4 33 -12 51l-180 415l-14 31c-25.333 56 -38 106.667 -38 152c0 76 24.833 139.333 74.5 190s115.834 80 198.501 88l14 34c24 60 65 90 123 90c65.333 0 101.666 -41.333 108.999 -124z
" />
    <glyph glyph-name="percent" unicode="%" horiz-adv-x="1389" 
d="M671 1292c60 0 107.335 -18.166 142.002 -54.499s52 -85.5 52 -147.5c0 -72.667 -16.667 -146 -50 -220s-75 -130.667 -125 -170c-52 -41.333 -115 -62 -189 -62c-60.667 0 -108.834 17.167 -144.501 51.5s-53.5 81.166 -53.5 140.499c0 108 37.333 212.667 112 314
c73.333 98.667 158.666 148 255.999 148zM659.002 1152c-36.667 2 -77.667 -33.667 -123 -107s-68 -140.666 -68 -201.999c0 -40 16 -60 48 -60c40 0 77.333 27 112 81c50.667 79.333 76 155.666 76 228.999c0 37.333 -15 57 -45 59zM525.002 58.001l576 1165l5 10
c16 30.667 38.333 46 67 46c36 0 54 -16.333 54 -49c0 -12 -4.66699 -27.333 -14 -46l-576 -1164c-18.667 -38 -42.667 -57 -72 -57c-36 0 -54 16.667 -54 50c0 11.333 4.66699 26.333 14 45zM1233 644.001c60 0 107.334 -18.168 142.001 -54.501s52 -85.5 52 -147.5
c0 -72.667 -16.667 -146 -50 -220s-75 -130.667 -125 -170c-52 -41.333 -115 -62 -189 -62c-60.667 0 -108.834 17.333 -144.501 52s-53.5 81.334 -53.5 140.001c0 108 37.333 212.667 112 314c72.667 98.667 158 148 256 148zM1221 504
c-36.667 2 -77.667 -33.668 -123 -107.001s-68 -140.666 -68 -201.999c0 -40 16 -60 48 -60c40 0 77.333 27 112 81c50.667 79.333 76 156 76 230c0 36.667 -15 56 -45 58z" />
    <glyph glyph-name="ampersand" unicode="&#x26;" horiz-adv-x="1619" 
d="M1431 756l35 0.00292969c84.667 0 127 -29.667 127 -89c0 -41.333 -14.5 -73.333 -43.5 -96s-69.833 -34 -122.5 -34h-86l-185 -449c-108 -262 -295 -393 -561 -393c-146 0 -263.5 43.833 -352.5 131.5s-133.5 203.5 -133.5 347.5c0 97.333 24.333 188.833 73 274.5
s114.334 152.5 197.001 200.5c57.333 32.667 140.333 59 249 79c-52 64.667 -78 132 -78 202c0 67.333 17.667 132.166 53 194.499s82.666 112.5 141.999 150.5c87.333 56 204.666 84 351.999 84h233c84.667 0 127 -29.333 127 -88c0 -41.333 -14.5 -73.333 -43.5 -96
s-69.833 -34 -122.5 -34h-208c-86 0 -152.667 -15.333 -200 -46c-70.667 -46 -106 -108 -106 -186c0 -46.667 19 -83.834 57 -111.501s89.667 -41.5 155 -41.5h190l53 126l11 26c30.667 71.333 77.667 107 141 107c28.667 0 52.834 -9.33301 72.501 -28
s29.5 -41.334 29.5 -68.001c0 -20.667 -8.66699 -52 -26 -94zM1089 537.003l-268 -0.000976562c-117.333 0 -207.333 -12.667 -270 -38c-62 -25.333 -112.833 -67.166 -152.5 -125.499s-59.5 -120.833 -59.5 -187.5c0 -77.333 26 -140.833 78 -190.5s119 -74.5 201 -74.5
c65.333 0 125.833 19.5 181.5 58.5s96.5 90.5 122.5 154.5z" />
    <glyph glyph-name="quotesingle" unicode="'" horiz-adv-x="593" 
d="M736 1152l-99 -235.001l-24 -56c-27.333 -64 -64.333 -96 -111 -96c-25.333 0 -47.166 9.16699 -65.499 27.5s-27.5 40.833 -27.5 67.5c0 12.667 1.66699 25.667 5 39l6 26l69 326c8 38 25.167 68.833 51.5 92.5s56.166 35.5 89.499 35.5c36.667 0 67.667 -12 93 -36
s38 -53.333 38 -88c0 -29.333 -8.33301 -63.666 -25 -102.999z" />
    <glyph glyph-name="parenleft" unicode="(" horiz-adv-x="747" 
d="M892 1475c32 0 58.167 -9.33008 78.5 -27.9971s30.5 -42.334 30.5 -71.001c0 -26.667 -20.333 -65.667 -61 -117c-147.333 -185.333 -253.5 -362.333 -318.5 -531s-97.5 -351.334 -97.5 -548.001c0 -88.667 8 -202.667 24 -342c2 -20 3 -36.333 3 -49
c0 -68.667 -34 -103 -102 -103c-58 0 -100.333 38 -127 114c-35.333 101.333 -53 258 -53 470c0 334 109.667 650.667 329 950c70.667 95.333 127.5 161.666 170.5 198.999s84.167 56 123.5 56z" />
    <glyph glyph-name="parenright" unicode=")" horiz-adv-x="747" 
d="M693 1475c58 0 100.333 -38.002 127 -114.002c35.333 -100.667 53 -257.334 53 -470.001c0 -334 -109.667 -650.667 -329 -950c-69.333 -94 -125.833 -160 -169.5 -198s-85.167 -57 -124.5 -57c-32 0 -58.167 9.33301 -78.5 28s-30.5 42.334 -30.5 71.001
c0 26.667 20.333 65.667 61 117c147.333 184.667 253.5 361.5 318.5 530.5s97.5 351.833 97.5 548.5c0 84.667 -8 198.334 -24 341.001c-2 20.667 -3 37.334 -3 50.001c0 68.667 34 103 102 103z" />
    <glyph glyph-name="asterisk" unicode="*" 
d="M702 1037l-208.003 68.9971c-31.333 10.667 -51.666 20.334 -60.999 29.001s-14 23.334 -14 44.001c0 38 11.833 69.667 35.5 95s53.167 38 88.5 38c17.333 0 30 -3.33301 38 -10s19.667 -23.667 35 -51l104 -193v218c0 38.667 6.66699 65.5 20 80.5s37.333 22.5 72 22.5
c32.667 0 61.5 -11 86.5 -33s37.5 -47.667 37.5 -77c0 -14 -13.667 -35 -41 -63l-150 -158l208 66c28.667 9.33301 47.334 14 56.001 14c18.667 0 36.167 -11.667 52.5 -35s24.5 -48.333 24.5 -75s-9.5 -52.167 -28.5 -76.5s-38.833 -36.5 -59.5 -36.5
c-10 0 -29.333 7 -58 21l-197 95l127 -178c21.333 -29.333 32 -49.666 32 -60.999c0 -24.667 -12.333 -47.5 -37 -68.5s-51.334 -31.5 -80.001 -31.5c-28 0 -52.167 6.83301 -72.5 20.5s-30.5 29.834 -30.5 48.501c0 6 1.66699 21.667 5 47l29 216l-129 -176
c-18 -24 -30.5 -38.667 -37.5 -44s-17.833 -8 -32.5 -8c-31.333 0 -58.666 12.667 -81.999 38s-35 55 -35 89c0 29.333 5.33301 49.166 16 59.499s34.334 18.833 71.001 25.5z" />
    <glyph glyph-name="plus" unicode="+" 
d="M566 717l92.001 225c32 77.333 78.333 116 139 116c28.667 0 52.5 -8.16699 71.5 -24.5s28.5 -36.5 28.5 -60.5c0 -16 -6.66699 -40.333 -20 -73l-75 -183h157c84 0 126 -27.667 126 -83c0 -38 -14.833 -67.833 -44.5 -89.5s-70.834 -32.5 -123.501 -32.5h-199l-92 -226
c-32 -76.667 -78.667 -115 -140 -115c-28 0 -51.5 8 -70.5 24s-28.5 36 -28.5 60c0 16 6.66699 40.667 20 74l75 183h-158c-84 0 -126 27.667 -126 83c0 38 15 67.833 45 89.5s71.333 32.5 124 32.5h199z" />
    <glyph glyph-name="comma" unicode="," horiz-adv-x="511" 
d="M190 22c-22.667 37.333 -34 69.334 -34 96.001c0 37.333 13.333 68.833 40 94.5s59.667 38.5 99 38.5c40 0 73 -13 99 -39s39 -59.333 39 -100c0 -62 -43.667 -129 -131 -201c-67.333 -55.333 -116 -83 -146 -83c-37.333 0 -56 16.333 -56 49
c0 13.333 8.66699 31.666 26 54.999l20 29z" />
    <glyph glyph-name="hyphen" unicode="-" horiz-adv-x="392" 
d="M191 512h164h19c63.333 0 95 -28.333 95 -85c0 -57.333 -31.667 -86 -95 -86h-19h-164h-19c-28 0 -50.833 7.83301 -68.5 23.5s-26.5 36.5 -26.5 62.5c0 25.333 8.66699 45.833 26 61.5s40.333 23.5 69 23.5h19z" />
    <glyph glyph-name="hyphen" unicode="&#xad;" horiz-adv-x="392" 
d="M191 512h164h19c63.333 0 95 -28.333 95 -85c0 -57.333 -31.667 -86 -95 -86h-19h-164h-19c-28 0 -50.833 7.83301 -68.5 23.5s-26.5 36.5 -26.5 62.5c0 25.333 8.66699 45.833 26 61.5s40.333 23.5 69 23.5h19z" />
    <glyph glyph-name="period" unicode="." horiz-adv-x="511" 
d="M290 252c38 0 70.667 -13.667 98 -41s41 -60 41 -98c0 -38.667 -13.667 -71.667 -41 -99s-60 -41 -98 -41c-38.667 0 -71.667 13.667 -99 41s-41 60.333 -41 99c0 38 13.667 70.667 41 98s60.333 41 99 41z" />
    <glyph glyph-name="slash" unicode="/" horiz-adv-x="769" 
d="M126 -186l596 1526c24 62.667 61 94 111 94c21.333 0 39.333 -6.5 54 -19.5s22 -28.833 22 -47.5c0 -12.667 -5.66699 -33 -17 -61l-596 -1527c-24 -62 -60.667 -93 -110 -93c-21.333 0 -39.5 6.33301 -54.5 19s-22.5 28.334 -22.5 47.001
c0 12.667 3.33301 27.334 10 44.001z" />
    <glyph glyph-name="zero" unicode="0" 
d="M785 1243c98 0 176 -33.998 234 -101.998s87 -159.333 87 -274c0 -142.667 -29.833 -287.334 -89.5 -434.001s-134.834 -259.334 -225.501 -338.001c-88.667 -77.333 -194 -116 -316 -116c-105.333 0 -188.166 31.5 -248.499 94.5s-90.5 149.167 -90.5 258.5
c0 136.667 31.333 279 94 427s141.334 265 236.001 351c97.333 88.667 203.666 133 318.999 133zM760 1029c-79.333 0 -159.332 -71.6689 -239.999 -215.002c-40.667 -73.333 -74.334 -152.666 -101.001 -237.999s-40 -157.333 -40 -216c0 -48 11.167 -86.5 33.5 -115.5
s51.833 -43.5 88.5 -43.5c78.667 0 153 61 223 183c42 72.667 76.833 155.334 104.5 248.001s41.5 173 41.5 241c0 104 -36.667 156 -110 156z" />
    <glyph glyph-name="one" unicode="1" 
d="M703 1007h-68.999c-85.333 0 -128 30.333 -128 91c0 41.333 15 73.5 45 96.5s72 34.5 126 34.5h200c80 0 120 -32.333 120 -97c0 -17.333 -5.33301 -39 -16 -65l-382 -942c-38 -92.667 -90.333 -139 -157 -139c-28.667 0 -52.834 9.33301 -72.501 28s-29.5 41 -29.5 67
c0 20 5 43 15 69l11 27z" />
    <glyph glyph-name="two" unicode="2" 
d="M507 220l297.002 -0.00195312c84.667 0 127 -30 127 -90c0 -40.667 -15 -72.5 -45 -95.5s-71.667 -34.5 -125 -34.5h-496c-40.667 0 -73.167 10.333 -97.5 31s-36.5 48.334 -36.5 83.001c0 36.667 16.667 72 50 106l560 576c32 32.667 48 66.667 48 102
c0 32.667 -12.333 60.667 -37 84s-54.334 35 -89.001 35c-36 0 -66.667 -12 -92 -36s-38 -53 -38 -87c0 -26 8.66699 -55 26 -87c15.333 -28 23 -53 23 -75c0 -33.333 -10.667 -60.666 -32 -81.999s-49 -32 -83 -32c-50.667 0 -93.667 24.5 -129 73.5s-53 109.167 -53 180.5
c0 104.667 37.667 192.5 113 263.5s168.666 106.5 279.999 106.5c106.667 0 194 -31.5 262 -94.5s102 -144.167 102 -243.5c0 -93.333 -35.667 -176.333 -107 -249z" />
    <glyph glyph-name="three" unicode="3" 
d="M834 750c102.667 -68.667 154.002 -162.998 154.002 -282.998c0 -92.667 -26 -182 -78 -268c-88 -146 -217.667 -219 -389 -219c-110.667 0 -199.834 29.667 -267.501 89s-101.5 137.666 -101.5 234.999c0 68 17 126 51 174s75 72 123 72c28 0 52.333 -9.83301 73 -29.5
s31 -42.834 31 -69.501c0 -14 -5.33301 -39.333 -16 -76c-8.66699 -29.333 -13 -50.333 -13 -63c0 -32.667 11.167 -59 33.5 -79s51.166 -30 86.499 -30c56 0 106.333 27 151 81s67 114.333 67 181c0 80.667 -40.667 135 -122 163c-56 18.667 -84 50.667 -84 96
c0 28.667 10.667 55 32 79l20 22l167 185h-227c-84.667 0 -127 29.667 -127 89c0 36 14 66.667 42 92s62.333 38 103 38h24h386c106 0 159 -40 159 -120c0 -38 -13 -71 -39 -99z" />
    <glyph glyph-name="four" unicode="4" 
d="M873 478h56c84.667 0 127 -30 127 -90c0 -40.667 -15 -72.5 -45 -95.5s-71.667 -34.5 -125 -34.5h-103l-53 -131l-11 -28c-31.333 -75.333 -80.333 -113 -147 -113c-28.667 0 -53 9.33301 -73 28s-30 41.334 -30 68.001c0 21.333 8.66699 53.666 26 96.999l32 79h-206
c-57.333 0 -102.333 13.5 -135 40.5s-49 64.167 -49 111.5c0 44.667 15 84 45 118l39 40l498 534c88 94 166.333 141 235 141c43.333 0 79.5 -13.833 108.5 -41.5s43.5 -62.167 43.5 -103.5c0 -30 -10 -70 -30 -120zM617 478l182 408l-367 -408h185z" />
    <glyph glyph-name="five" unicode="5" 
d="M688 1003l-75.001 -182.998c28 6 52.333 9 73 9c88 0 158.833 -30.5 212.5 -91.5s80.5 -141.833 80.5 -242.5c0 -145.333 -46.5 -267.5 -139.5 -366.5s-207.5 -148.5 -343.5 -148.5c-99.333 0 -180.666 28.333 -243.999 85s-95 129.667 -95 219
c0 66 14.833 120.333 44.5 163s67.834 64 114.501 64c32 0 58 -9.16699 78 -27.5s30 -42.166 30 -71.499c0 -13.333 -2 -28.333 -6 -45l-9 -39c-2.66699 -11.333 -4 -23.333 -4 -36c0 -24.667 9.83301 -45.834 29.5 -63.501s43.5 -26.5 71.5 -26.5
c58.667 0 111.667 30.5 159 91.5s71 129.167 71 204.5c0 37.333 -10.167 67.666 -30.5 90.999s-46.833 35 -79.5 35c-22.667 0 -45.334 -6.33301 -68.001 -19l-67 -36c-21.333 -11.333 -44 -17 -68 -17c-32 0 -58.667 10.5 -80 31.5s-32 47.167 -32 78.5
c0 16.667 5.66699 39 17 67l162 399c17.333 43.333 36.333 71 57 83s58.334 18 113.001 18h335c46 0 79.333 -7.16699 100 -21.5s31 -37.5 31 -69.5c0 -42.667 -15.333 -75.834 -46 -99.501s-73.334 -35.5 -128.001 -35.5h-264z" />
    <glyph glyph-name="six" unicode="6" 
d="M669 828c23.333 3.33301 40.334 4.99902 51.001 4.99902c77.333 0 142.5 -30 195.5 -90s79.5 -133.667 79.5 -221c0 -146.667 -47.5 -272.667 -142.5 -378s-208.5 -158 -340.5 -158c-104 0 -188 31.333 -252 94s-96 145 -96 247c0 96 40.333 208.333 121 337l288 460
c49.333 78.667 102.666 118 159.999 118c30 0 55.5 -9.83301 76.5 -29.5s31.5 -43.167 31.5 -70.5c0 -29.333 -11 -61.666 -33 -96.999l-17 -26zM629.001 626.999c-52 0 -101.5 -30.667 -148.5 -92s-70.5 -126.333 -70.5 -195c0 -37.333 10.833 -68.333 32.5 -93
s49.167 -37 82.5 -37c54.667 0 106 30.5 154 91.5s72 126.167 72 195.5c0 39.333 -11.167 70.833 -33.5 94.5s-51.833 35.5 -88.5 35.5z" />
    <glyph glyph-name="seven" unicode="7" 
d="M795 1004h-315.002c-86.667 0 -130 30.667 -130 92c0 42 15.333 74.667 46 98s73.334 35 128.001 35h397c114.667 0 172 -41.333 172 -124c0 -29.333 -11.333 -63 -34 -101l-545 -901l-15 -26c-37.333 -60.667 -84 -91 -140 -91c-29.333 0 -53.666 9.66699 -72.999 29
s-29 43.333 -29 72c0 25.333 15 62.333 45 111z" />
    <glyph glyph-name="eight" unicode="8" 
d="M883 661c64.667 -60 97 -132.668 97 -218.001c0 -126 -46.833 -234.667 -140.5 -326s-204.834 -137 -333.501 -137c-104.667 0 -189.667 29.833 -255 89.5s-98 136.834 -98 231.501c0 88.667 25.333 169 76 241s117.334 122.333 200.001 151
c-49.333 50.667 -74 109.667 -74 177c0 100.667 43.167 188 129.5 262s188.833 111 307.5 111c94.667 0 171.167 -26.333 229.5 -79s87.5 -122 87.5 -208c0 -69.333 -19.833 -130 -59.5 -182s-95.167 -89.667 -166.5 -113zM762 1035c-43.333 0 -82.833 -18.333 -118.5 -55
s-53.5 -77 -53.5 -121c0 -30.667 10.5 -56 31.5 -76s47.833 -30 80.5 -30c43.333 0 82.5 17.833 117.5 53.5s52.5 76.167 52.5 121.5c0 71.333 -36.667 107 -110 107zM611 569.999c-54.667 0 -103.665 -23.668 -146.998 -71.001s-65 -100.666 -65 -159.999
c0 -37.333 11.667 -68.333 35 -93s52.666 -37 87.999 -37c54 0 103.333 25 148 75s67 105 67 165c0 35.333 -11.833 64.333 -35.5 87s-53.834 34 -90.501 34z" />
    <glyph glyph-name="nine" unicode="9" 
d="M587 399l-31 -0.000976562c-88 0 -159 29.333 -213 88s-81 135.334 -81 230.001c0 137.333 49.667 261.333 149 372c91.333 102 201 153 329 153c105.333 0 191 -32.167 257 -96.5s99 -147.5 99 -249.5c0 -88 -29 -177.667 -87 -269l-331 -523
c-28.667 -46 -54.167 -77.167 -76.5 -93.5s-49.833 -24.5 -82.5 -24.5c-30 0 -55.5 9.83301 -76.5 29.5s-31.5 43.167 -31.5 70.5c0 32.667 17 74.667 51 126zM727 1021c-51.333 0 -100.834 -31.333 -148.501 -94s-71.5 -128 -71.5 -196
c0 -35.333 11.167 -64.833 33.5 -88.5s50.5 -35.5 84.5 -35.5c54 0 105 30.5 153 91.5s72 125.833 72 194.5c0 36.667 -11.667 67.167 -35 91.5s-52.666 36.5 -87.999 36.5z" />
    <glyph glyph-name="colon" unicode=":" horiz-adv-x="511" 
d="M371 660c38.667 0 71.5 -13.5 98.5 -40.5s40.5 -59.833 40.5 -98.5s-13.5 -71.5 -40.5 -98.5s-59.833 -40.5 -98.5 -40.5s-71.5 13.5 -98.5 40.5s-40.5 59.833 -40.5 98.5s13.5 71.5 40.5 98.5s59.833 40.5 98.5 40.5zM289 251c38.667 0 71.5 -13.5 98.5 -40.5
s40.5 -59.833 40.5 -98.5c0 -38 -13.5 -70.667 -40.5 -98s-59.833 -41 -98.5 -41s-71.5 13.667 -98.5 41s-40.5 60 -40.5 98c0 38.667 13.5 71.5 40.5 98.5s59.833 40.5 98.5 40.5z" />
    <glyph glyph-name="semicolon" unicode=";" horiz-adv-x="511" 
d="M362 660c38.667 0 71.5 -13.5 98.5 -40.5s40.5 -59.833 40.5 -98.5s-13.5 -71.5 -40.5 -98.5s-59.833 -40.5 -98.5 -40.5s-71.5 13.5 -98.5 40.5s-40.5 59.833 -40.5 98.5s13.5 71.5 40.5 98.5s59.833 40.5 98.5 40.5zM190 22c-22.667 37.333 -34 69.334 -34 96.001
c0 37.333 13.333 68.833 40 94.5s59.667 38.5 99 38.5c40 0 73 -13 99 -39s39 -59.333 39 -100c0 -62 -43.667 -129 -131 -201c-67.333 -55.333 -116 -83 -146 -83c-37.333 0 -56 16.333 -56 49c0 13.333 8.66699 31.666 26 54.999l20 29z" />
    <glyph glyph-name="less" unicode="&#x3c;" horiz-adv-x="1024" 
d="M955 1251v-251l-620 -304l620 -306v-248l-887 448v213z" />
    <glyph glyph-name="equal" unicode="=" 
d="M433 881h592c84.667 0 127 -27.667 127 -83c0 -38 -15 -67.833 -45 -89.5s-71.333 -32.5 -124 -32.5h-592c-84.667 0 -127 27.667 -127 83c0 38 15 67.833 45 89.5s71.333 32.5 124 32.5zM300 553h593.001c84 0 126 -27.667 126 -83c0 -38 -14.833 -67.833 -44.5 -89.5
s-70.834 -32.5 -123.501 -32.5h-593c-84 0 -126 27.667 -126 83c0 38 15 67.833 45 89.5s71 32.5 123 32.5z" />
    <glyph glyph-name="greater" unicode="&#x3e;" horiz-adv-x="1024" 
d="M68 141v250l620 305l-620 305v248l887 -448v-212z" />
    <glyph glyph-name="question" unicode="?" horiz-adv-x="848" 
d="M412 252c38 0 70.667 -13.667 98 -41s41 -60 41 -98c0 -38.667 -13.667 -71.667 -41 -99s-60 -41 -98 -41c-38.667 0 -71.667 13.667 -99 41s-41 60.333 -41 99c0 38 13.667 70.667 41 98s60.333 41 99 41zM692 1282c98.667 0 181.499 -30.6689 248.499 -92.002
s100.5 -137.333 100.5 -228c0 -62 -14.167 -117.167 -42.5 -165.5s-78.166 -101.166 -149.499 -158.499c-114.667 -93.333 -178 -153.666 -190 -180.999l-39 -88c-20 -43.333 -52.333 -65 -97 -65c-31.333 0 -57.333 10.5 -78 31.5s-31 46.833 -31 77.5
c0 92 77.333 207.667 232 347c63.333 57.333 102.833 96.166 118.5 116.499s23.5 43.5 23.5 69.5c0 30 -11.667 55.667 -35 77s-51.333 32 -84 32c-36.667 0 -68.834 -12.5 -96.501 -37.5s-41.5 -54.167 -41.5 -87.5c0 -12.667 6 -39 18 -79
c7.33301 -23.333 11 -43.333 11 -60c0 -29.333 -10.167 -54.166 -30.5 -74.499s-44.833 -30.5 -73.5 -30.5c-48 0 -87.667 21.167 -119 63.5s-47 95.5 -47 159.5c0 108 37.833 197.167 113.5 267.5s171.834 105.5 288.501 105.5z" />
    <glyph glyph-name="at" unicode="@" horiz-adv-x="1496" 
d="M1224 524l61.9961 0.000976562c52.667 0 98.834 36.333 138.501 109s59.5 157.334 59.5 254.001c0 99.333 -35.833 178.666 -107.5 237.999s-167.167 89 -286.5 89c-195.333 0 -355.666 -74.667 -480.999 -224c-104.667 -124 -157 -262 -157 -414
c0 -150.667 54 -264.334 162 -341.001c47.333 -33.333 93.333 -53 138 -59s171.667 -9 381 -9h132c24.667 0 45.334 -8.5 62.001 -25.5s25 -37.833 25 -62.5c0 -70.667 -51.667 -106 -155 -106h-260c-191.333 0 -335.666 33 -432.999 99c-82 55.333 -145.333 127 -190 215
s-67 184.333 -67 289c0 93.333 18.167 188.166 54.5 284.499s86.5 182.166 150.5 257.499c78 91.333 172.167 162.166 282.5 212.499s226.833 75.5 349.5 75.5c178 0 322.833 -47.5 434.5 -142.5s167.5 -217.833 167.5 -368.5c0 -148 -42.5 -280.667 -127.5 -398
s-181.167 -176 -288.5 -176h-103c-53.333 0 -89.333 21 -108 63c-47.333 -42 -92.666 -63 -135.999 -63h-106c-68 0 -122.833 24.333 -164.5 73s-62.5 112.334 -62.5 191.001c0 118.667 41 224.834 123 318.501s174.667 140.5 278 140.5c79.333 0 137.333 -27.333 174 -82
c31.333 46.667 72 70 122 70c27.333 0 50.166 -8.66699 68.499 -26s27.5 -38.666 27.5 -63.999c0 -18 -5 -38.667 -15 -62l-10 -26zM885.996 519.001l23.001 0.000976562c50.667 0 84.667 21 102 63l65 160c8.66699 21.333 13 39 13 53c0 17.333 -8.33301 32.166 -25 44.499
s-36.334 18.5 -59.001 18.5c-45.333 0 -89.333 -26.5 -132 -79.5s-64 -107.5 -64 -163.5c0 -64 25.667 -96 77 -96z" />
    <glyph glyph-name="A" unicode="A" horiz-adv-x="2138" 
d="M1613 512h-277.002l-331 -573c-156 -271.333 -341 -407 -555 -407c-131.333 0 -241.5 47.167 -330.5 141.5s-133.5 211.166 -133.5 350.499c0 113.333 34.333 222.5 103 327.5s162.334 192.167 281.001 261.5c88.667 50.667 187 86.334 295 107.001s251.667 31 431 31h74
l79 145c110 202 244.333 336.667 403 404c102 43.333 235.333 65 400 65c42 0 75 -9.33301 99 -28s36 -44.667 36 -78c0 -15.333 -4 -33.333 -12 -54l-9 -23l-172 -431h76h26c74.667 0 112 -32.333 112 -97c0 -39.333 -15.333 -72.833 -46 -100.5s-68 -41.5 -112 -41.5h-27
h-126l-111 -273h163h26c74.667 0 112 -32 112 -96c0 -40 -15.333 -73.833 -46 -101.5s-68 -41.5 -112 -41.5h-27h-214c-57.333 -0 -104.166 14.833 -140.499 44.5s-54.5 68.167 -54.5 115.5c0 36.667 13.667 88.667 41 156zM1711 751l144 355
c-70.667 -4.66699 -130.167 -27.167 -178.5 -67.5s-103.5 -113.5 -165.5 -219.5l-41 -68h241zM1033 512h-85.001c-190.667 0 -342 -35.333 -454 -106c-71.333 -45.333 -128.166 -102 -170.499 -170s-63.5 -136.667 -63.5 -206c0 -63.333 20.333 -117.5 61 -162.5
s90 -67.5 148 -67.5c100.667 0 189.667 66.667 267 200z" />
    <glyph glyph-name="B" unicode="B" horiz-adv-x="1748" 
d="M1094 1126l-112.999 0.00195312h-27c-74.667 0 -112 32 -112 96c0 40 15.333 73.833 46 101.5s68 41.5 112 41.5h27h406c131.333 0 232.666 -28.833 303.999 -86.5s107 -139.834 107 -246.501c0 -92 -26.833 -174.667 -80.5 -248s-125.5 -125.666 -215.5 -156.999
c122 -59.333 183 -161.333 183 -306c0 -92.667 -25.167 -183.5 -75.5 -272.5s-116.833 -160.167 -199.5 -213.5c-111.333 -72 -279.333 -108 -504 -108h-147l-12 -28c-46.667 -103.333 -83.334 -176.333 -110.001 -219s-61 -83.334 -103 -122.001
c-111.333 -102 -238.333 -153 -381 -153c-116.667 0 -213.167 34.667 -289.5 104s-114.5 157.666 -114.5 264.999c0 68.667 16.333 132.5 49 191.5s77 104.833 133 137.5c72.667 42 171.334 63 296.001 63h349zM1221 751.002l60 1c93.333 0 164 21.667 212 65
c25.333 22.667 46.5 52 63.5 88s25.5 69.333 25.5 100c0 55.333 -24.333 92 -73 110c-19.333 7.33301 -59.333 11 -120 11h-15zM903.001 -33.998h81c142.667 0 251 24.667 325 74c47.333 31.333 85.833 74.333 115.5 129s44.5 109.667 44.5 165
c0 65.333 -19.5 111.333 -58.5 138s-106.833 40 -203.5 40h-83zM525.001 -272.998h-260.002c-130.667 0 -196 -46.667 -196 -140c0 -37.333 14.167 -69 42.5 -95s62.833 -39 103.5 -39c60.667 0 118.334 24.167 173.001 72.5s100.334 115.5 137.001 201.5z" />
    <glyph glyph-name="C" unicode="C" horiz-adv-x="1180" 
d="M602 683c-90 -160 -134.999 -308.332 -134.999 -444.999c0 -97.333 22.167 -167 66.5 -209s118.166 -63 221.499 -63h556c92 0 138 -31.333 138 -94c0 -45.333 -16.167 -80.833 -48.5 -106.5s-77.833 -38.5 -136.5 -38.5h-580c-96.667 0 -174 13.333 -232 40
c-80.667 37.333 -144 94.833 -190 172.5s-69 166.167 -69 265.5c0 133.333 40.667 292.666 122 477.999h-56h-26c-74.667 0 -112 32 -112 96c0 40 15.333 73.833 46 101.5s68 41.5 112 41.5h27h145c60 100 140.667 196.333 242 289c129.333 116.667 269 175 419 175
c98.667 0 180.334 -30.333 245.001 -91s97 -138 97 -232c0 -134 -62.333 -236.667 -187 -308c-84.667 -48 -219.334 -72 -404.001 -72h-261zM751.001 922.001l193.999 -0.000976562c166 0 249 44.333 249 133c0 28 -10.833 50.833 -32.5 68.5s-49.167 26.5 -82.5 26.5
c-51.333 0 -106.666 -20.667 -165.999 -62s-113.333 -96.666 -162 -165.999z" />
    <glyph glyph-name="D" unicode="D" horiz-adv-x="1871" 
d="M1098 1126l-98.998 -0.00195312h-27c-74 0 -111 32 -111 96c0 40.667 15.167 74.667 45.5 102s67.5 41 111.5 41h27h293c196 0 346.333 -46.667 451 -140s157 -227.666 157 -402.999c0 -267.333 -89 -512.333 -267 -735
c-100.667 -125.333 -214.5 -216.666 -341.5 -273.999s-279.167 -86 -456.5 -86h-70l-12 -28c-46.667 -104 -83.334 -177 -110.001 -219s-61.334 -82.667 -104.001 -122c-111.333 -102 -239 -153 -383 -153c-118.667 0 -216.167 35.167 -292.5 105.5
s-114.5 159.833 -114.5 268.5c0 66.667 16.333 129.167 49 187.5s77 103.833 133 136.5c72.667 42 171 63 295 63h355zM908.002 -34.002h40c206.667 0 379.667 91.667 519 275c67.333 88 120.5 183.333 159.5 286s58.5 197.667 58.5 285c0 97.333 -27.333 174 -82 230
s-129 84 -223 84zM530.002 -273.002h-264.999c-130.667 0 -196 -46.333 -196 -139c0 -38 14.333 -70 43 -96s63.667 -39 105 -39c61.333 0 119.666 24.167 174.999 72.5s101.333 115.5 138 201.5z" />
    <glyph glyph-name="E" unicode="E" horiz-adv-x="1605" 
d="M945 751l202 489c22 54 44 88.333 66 103s63 22 123 22h516c92 0 138 -31.333 138 -94c0 -41.333 -15.167 -75.833 -45.5 -103.5s-67.833 -41.5 -112.5 -41.5h-27h-426l-152 -375h125h26c74.667 0 112 -32.333 112 -97c0 -39.333 -15.333 -72.833 -46 -100.5
s-68 -41.5 -112 -41.5h-27h-175l-222 -546h691h26c74.667 0 112 -31.333 112 -94c0 -41.333 -15.167 -75.833 -45.5 -103.5s-67.833 -41.5 -112.5 -41.5h-27h-741l-13 -28c-46.667 -104 -83.167 -177 -109.5 -219s-60.833 -82.667 -103.5 -122
c-111.333 -102 -239.333 -153 -384 -153c-118 0 -215.167 35 -291.5 105s-114.5 159 -114.5 267c0 67.333 16.333 130.333 49 189s77 104.334 133 137.001c72.667 42 171 63 295 63h354l222 546h-9h-24c-74.667 0 -112 32.667 -112 98c0 39.333 15.333 72.666 46 99.999
s68 41 112 41h27h57zM529 -273l-264 -0.000976562c-130.667 0 -196 -46.333 -196 -139c0 -38 14.5 -69.833 43.5 -95.5s64.833 -38.5 107.5 -38.5c60 0 117.5 24.333 172.5 73s100.5 115.334 136.5 200.001z" />
    <glyph glyph-name="F" unicode="F" horiz-adv-x="1667" 
d="M1327 751l128.999 0.000976562h26c74.667 0 112 -32 112 -96c0 -40 -15.167 -73.833 -45.5 -101.5s-67.833 -41.5 -112.5 -41.5h-26h-180l-194 -479c-134.667 -330.667 -334 -496 -598 -496c-138 0 -252.333 44.5 -343 133.5s-136 201.167 -136 336.5
c0 105.333 26.833 206 80.5 302s128.834 178.667 225.501 248c82 58 177.5 104 286.5 138s216.5 51 322.5 51l141 4l44 1l192 483l11 28c15.333 41.333 34.833 68.833 58.5 82.5s63.5 20.5 119.5 20.5h513c92.667 0 139 -32.667 139 -98
c0 -38.667 -15.333 -71.834 -46 -99.501s-68 -41.5 -112 -41.5h-27h-427zM961.999 512.001l-54 0.000976562c-197.333 0 -355 -45 -473 -135c-132 -100.667 -198 -214.334 -198 -341.001c0 -68 20.833 -125 62.5 -171s93.5 -69 155.5 -69c144 0 262.333 114.333 355 343z
" />
    <glyph glyph-name="G" unicode="G" horiz-adv-x="1542" 
d="M1271 239h147.999c92.667 0 139 -32.667 139 -98c0 -44 -16.333 -78.5 -49 -103.5s-78 -37.5 -136 -37.5h-200l-74 -184c-80.667 -203.333 -165 -346.833 -253 -430.5s-197.667 -125.5 -329 -125.5c-124 0 -227.5 41.167 -310.5 123.5s-124.5 185.166 -124.5 308.499
c0 194.667 93.333 344.667 280 450c114 63.333 270.667 95 470 95l159 2l34 85c-50.667 -18.667 -102.334 -28 -155.001 -28c-102 0 -184.333 35.5 -247 106.5s-94 164.5 -94 280.5h-138h-26c-74.667 0 -112 31.667 -112 95c0 40.667 15.167 74.834 45.5 102.501
s67.833 41.5 112.5 41.5h26h145c72.667 144.667 164.5 258 275.5 340s228.167 123 351.5 123c102 0 185.167 -30 249.5 -90s96.5 -137.333 96.5 -232c0 -133.333 -59.667 -236 -179 -308c-79.333 -48 -198.666 -72 -357.999 -72h-228v-20c0 -85.333 50 -128 150 -128
c44.667 0 90.334 13.333 137.001 40l53 31c46 26.667 85.333 40 118 40c36.667 0 67 -11 91 -33s36 -50.333 36 -85c0 -21.333 -9.33301 -55 -28 -101zM893.999 0c-140.667 0 -248.333 -13.333 -323 -40c-69.333 -24.667 -124 -60.167 -164 -106.5s-60 -97.5 -60 -153.5
c0 -52 17.167 -96 51.5 -132s76.5 -54 126.5 -54c60.667 0 115.5 27 164.5 81s97.833 141.333 146.5 262zM863 922h193.999c165.333 0 248 45 248 135c0 26.667 -10.833 48.834 -32.5 66.501s-49.167 26.5 -82.5 26.5c-51.333 0 -106.166 -20.333 -164.499 -61
s-112.5 -96.334 -162.5 -167.001z" />
    <glyph glyph-name="H" unicode="H" horiz-adv-x="2114" 
d="M1858 512l-110.999 -273h173h26c74.667 0 112 -32.667 112 -98c0 -44 -16.333 -78.5 -49 -103.5s-78 -37.5 -136 -37.5h-205c-64.667 -0 -116 14.833 -154 44.5s-57 70.167 -57 121.5c0 32 7.66699 66.667 23 104l16 39l83 203h-319l-195 -479
c-134 -330.667 -334 -496 -600 -496c-141.333 0 -257.833 44.167 -349.5 132.5s-137.5 200.833 -137.5 337.5c0 105.333 26.667 206 80 302s128.666 178.667 225.999 248c82 58 177.5 104 286.5 138s216.167 51 321.5 51l142 4l44 1l195 479l11 29c33.333 80 86 120 158 120
c32.667 0 60 -9.83301 82 -29.5s33 -43.5 33 -71.5c0 -22.667 -9.33301 -57 -28 -103l-172 -424h319l193 475l12 30c34 82 87.333 123 160 123c31.333 0 58 -10 80 -30s33 -44.667 33 -74c0 -22.667 -9.66699 -58 -29 -106l-170 -418h77h27c74 0 111 -32.667 111 -98
c0 -44 -16.333 -78.5 -49 -103.5s-77.667 -37.5 -135 -37.5h-128zM981.001 512l-54.001 0.00195312c-197.333 0 -355 -45 -473 -135c-61.333 -46.667 -109.666 -100.334 -144.999 -161.001s-53 -120.334 -53 -179.001c0 -69.333 21 -126.833 63 -172.5s95 -68.5 159 -68.5
c141.333 0 258.333 114.333 351 343z" />
    <glyph glyph-name="I" unicode="I" horiz-adv-x="1204" 
d="M886 239l167.999 -0.000976562c92 0 138 -32 138 -96c0 -45.333 -16.167 -80.5 -48.5 -105.5s-77.833 -37.5 -136.5 -37.5h-182c-73.333 0 -129 14.167 -167 42.5s-57 69.5 -57 123.5c0 38 13.667 91 41 159l201 494c40.667 100 61 168.667 61 206
c0 30 -13.667 56.833 -41 80.5s-58.666 35.5 -93.999 35.5c-66.667 0 -127 -28.833 -181 -86.5s-81 -122.167 -81 -193.5c0 -41.333 9.16699 -73.333 27.5 -96s51.833 -43.667 100.5 -63c43.333 -17.333 65 -47 65 -89c0 -38.667 -14.5 -70.5 -43.5 -95.5
s-65.167 -37.5 -108.5 -37.5c-83.333 0 -154.666 35.5 -213.999 106.5s-89 156.167 -89 255.5c0 144.667 54.667 271.334 164 380.001s236.666 163 381.999 163c109.333 0 200.5 -32 273.5 -96s109.5 -143.667 109.5 -239c0 -68.667 -17.333 -145.667 -52 -231z" />
    <glyph glyph-name="J" unicode="J" horiz-adv-x="1511" 
d="M1212 239l149.005 -0.000976562c92 0 138 -32.667 138 -98c0 -44 -16.333 -78.5 -49 -103.5s-78 -37.5 -136 -37.5h-196l-74 -184c-80.667 -203.333 -165 -346.833 -253 -430.5s-197.667 -125.5 -329 -125.5c-124 0 -227.5 41.333 -310.5 124s-124.5 185.667 -124.5 309
c0 92.667 24.333 178.167 73 256.5s117.667 142.5 207 192.5c113.333 63.333 269.666 95 468.999 95l158 2l233 580c40 100.667 60 169.334 60 206.001c0 31.333 -14 58.5 -42 81.5s-61.333 34.5 -100 34.5c-64.667 0 -123.5 -29.333 -176.5 -88s-79.5 -123.667 -79.5 -195
c0 -38.667 9.16699 -69.5 27.5 -92.5s50.166 -43.167 95.499 -60.5c48 -19.333 72 -50 72 -92c0 -38 -14.333 -69.667 -43 -95s-64.334 -38 -107.001 -38c-84.667 0 -156.834 35.167 -216.501 105.5s-89.5 155.5 -89.5 255.5c0 146 54.667 273.167 164 381.5
s237.666 162.5 384.999 162.5c108 0 198.167 -32.5 270.5 -97.5s108.5 -146.5 108.5 -244.5c0 -62 -17.333 -136.667 -52 -224zM845.005 -0.000976562c-140 0 -247.333 -13.333 -322 -40c-69.333 -24.667 -124 -60.167 -164 -106.5s-60 -97.5 -60 -153.5
c0 -52 17 -96 51 -132s75.333 -54 124 -54c62 0 117.833 27.167 167.5 81.5s98.5 141.5 146.5 261.5z" />
    <glyph glyph-name="K" unicode="K" horiz-adv-x="1611" 
d="M1295 619l210.998 -574c18.667 -49.333 58.667 -74 120 -74h324c94 0 141 -33 141 -99c0 -45.333 -16.667 -80.833 -50 -106.5s-79.666 -38.5 -138.999 -38.5h-332c-88 0 -150 12.167 -186 36.5s-68.667 75.166 -98 152.499l-265 716l-207 -509
c-40 -100 -97 -150 -171 -150c-30.667 0 -57 10 -79 30s-33 43.667 -33 71c0 22 5.66699 47.333 17 76l12 29l260 640c39.333 97.333 59 164.666 59 201.999c0 32.667 -14.167 60.834 -42.5 84.501s-61.5 35.5 -99.5 35.5c-68 0 -129.167 -28.5 -183.5 -85.5
s-81.5 -120.833 -81.5 -191.5c0 -77.333 41.667 -131 125 -161c50.667 -18 76 -49.333 76 -94c0 -37.333 -14.5 -68.166 -43.5 -92.499s-65.167 -36.5 -108.5 -36.5c-83.333 0 -154.666 35.333 -213.999 106s-89 155 -89 253c0 146 54.5 273.5 163.5 382.5
s236.833 163.5 383.5 163.5c109.333 0 200.666 -32 273.999 -96s110 -144 110 -240c0 -68 -17.333 -144.667 -52 -230l-35 -85l525 549c56.667 59.333 108.334 89 155.001 89c32 0 58.667 -10.5 80 -31.5s32 -47.5 32 -79.5c0 -39.333 -27 -87.333 -81 -144z" />
    <glyph glyph-name="L" unicode="L" horiz-adv-x="1541" 
d="M1221 703l-299.999 -737h693c92.667 0 139 -32 139 -96c0 -45.333 -16.333 -80.5 -49 -105.5s-78 -37.5 -136 -37.5h-744l-12 -28c-46.667 -104 -83.334 -177 -110.001 -219s-61.334 -82.667 -104.001 -122c-111.333 -102 -239.333 -153 -384 -153
c-117.333 0 -214.166 35 -290.499 105s-114.5 159 -114.5 267c0 67.333 16.333 130.333 49 189s77 104.334 133 137.001c72.667 42 171.334 63 296.001 63h353l299 737h-120h-27c-74.667 0 -112 33 -112 99c0 43.333 16.333 77.5 49 102.5s78 37.5 136 37.5h171l46 113
c87.333 216 220.666 324 399.999 324c91.333 0 167.333 -28.833 228 -86.5s91 -129.834 91 -216.501c0 -110.667 -44 -200.5 -132 -269.5s-202.333 -103.5 -343 -103.5h-105zM1318 942h46c50 0 92.833 12.5 128.5 37.5s53.5 55.5 53.5 91.5c0 53.333 -25 80 -75 80
c-45.333 0 -87 -46.667 -125 -140zM542.001 -273h-263c-130.667 0 -196 -46.333 -196 -139c0 -38 14.333 -69.833 43 -95.5s64.667 -38.5 108 -38.5c59.333 0 116.5 24.5 171.5 73.5s100.5 115.5 136.5 199.5z" />
    <glyph glyph-name="M" unicode="M" horiz-adv-x="2180" 
d="M1863 239l161.996 -0.00195312c92.667 0 139 -31.667 139 -95c0 -45.333 -16.167 -80.666 -48.5 -105.999s-77.833 -38 -136.5 -38h-190c-69.333 0 -122.833 14.5 -160.5 43.5s-56.5 70.5 -56.5 124.5c0 34.667 14 85.334 42 152.001l257 602l-193 -207
c-46 -50 -89.667 -75 -131 -75c-54 0 -89 37 -105 111l-28 124l-244 -602c-84 -206.667 -148 -347.167 -192 -421.5s-101 -138.833 -171 -193.5c-101.333 -78.667 -217.666 -118 -348.999 -118c-140 0 -253.667 44.167 -341 132.5s-131 203.5 -131 345.5
c0 186 68.667 349.667 206 491c74 75.333 166.333 136.166 277 182.499s219.667 69.5 327 69.5c54.667 0 98.334 -11.667 131.001 -35s49 -54.333 49 -93c0 -40.667 -17.333 -73.667 -52 -99c-20 -14.667 -58.667 -24.667 -116 -30c-132.667 -12 -239.667 -42.333 -321 -91
c-67.333 -40.667 -120.833 -93.667 -160.5 -159s-59.5 -133.666 -59.5 -204.999c0 -76 19.333 -135.833 58 -179.5s91.667 -65.5 159 -65.5c80.667 0 150.834 34.5 210.501 103.5s125.167 190.833 196.5 365.5l397 977c34.667 86 81.334 129 140.001 129
c37.333 0 66.833 -12 88.5 -36s40.5 -66 56.5 -126l61 -230l300 295c66 64.667 127.667 97 185 97c40 0 73.833 -12.167 101.5 -36.5s41.5 -53.833 41.5 -88.5c0 -22 -5.33301 -46 -16 -72l-23 -56z" />
    <glyph glyph-name="N" unicode="N" horiz-adv-x="2035" 
d="M2140 1126l-403.999 -996l-19 -47c-28.667 -64.667 -75.667 -97 -141 -97c-52 0 -89 14.333 -111 43s-36 81 -42 157l-46 603l-209 -516c-84 -206.667 -147.833 -347.167 -191.5 -421.5s-100.5 -138.833 -170.5 -193.5c-101.333 -78.667 -217.666 -118 -348.999 -118
c-140 0 -253.5 44 -340.5 132s-130.5 202.333 -130.5 343c0 188 68.667 352.333 206 493c73.333 75.333 165.5 136.333 276.5 183s219.5 70 325.5 70c56 0 100.333 -11.5 133 -34.5s49 -54.167 49 -93.5c0 -40 -13 -70 -39 -90s-69 -32.667 -129 -38
c-132.667 -12.667 -239.667 -43.334 -321 -92.001c-67.333 -40.667 -120.833 -93.667 -160.5 -159s-59.5 -133.666 -59.5 -204.999c0 -76 19.5 -135.833 58.5 -179.5s92.833 -65.5 161.5 -65.5c79.333 0 149.166 34.667 209.499 104s125.833 191 196.5 365l396 975
c35.333 87.333 89 131 161 131c83.333 0 128.666 -49.667 135.999 -149l52 -666l271 666l16 40c26 62.667 71.667 94 137 94l41 1h205c92.667 0 139 -31.333 139 -94c0 -46 -16.333 -81.667 -49 -107s-78 -38 -136 -38h-122z" />
    <glyph glyph-name="O" unicode="O" horiz-adv-x="1350" 
d="M310 683l-49.998 0.00195312c-92.667 0 -139 31.667 -139 95c0 45.333 16.167 80.666 48.5 105.999s77.833 38 136.5 38h140l28 38c207.333 283.333 415.666 425 624.999 425c104 0 189 -30 255 -90s99 -137.333 99 -232c0 -133.333 -62.667 -236 -188 -308
c-83.333 -48 -208.333 -72 -375 -72h-300c-98.667 -186.667 -148 -345.334 -148 -476.001c0 -73.333 19.333 -132 58 -176s90 -66 154 -66c88.667 0 176.667 52 264 156s152 234.333 194 391l16 60c22 82 66 123 132 123c35.333 0 64.166 -13 86.499 -39
s33.5 -59.667 33.5 -101c0 -130.667 -56 -285 -168 -463c-156 -248.667 -344 -373 -564 -373c-136.667 0 -248.5 45.833 -335.5 137.5s-130.5 209.5 -130.5 353.5c0 136 42.667 293.667 128 473zM746.002 922.002h195c165.333 0 248 45 248 135
c0 26.667 -10.833 48.834 -32.5 66.501s-49.167 26.5 -82.5 26.5c-51.333 0 -106.333 -20.333 -165 -61s-113 -96.334 -163 -167.001z" />
    <glyph glyph-name="P" unicode="P" horiz-adv-x="1668" 
d="M1331 683l-165.997 -409.995c-82.667 -202.667 -146.5 -342.334 -191.5 -419.001s-101.833 -142 -170.5 -196c-100 -78.667 -216 -118 -348 -118c-139.333 0 -252.333 44 -339 132s-130 202.333 -130 343c0 188 68.667 352.333 206 493c74 76 166.667 137.167 278 183.5
s221.666 69.5 330.999 69.5c52.667 0 95 -11.833 127 -35.5s48 -54.834 48 -93.501c0 -40.667 -17.333 -73.334 -52 -98.001c-20 -14.667 -58.333 -24.667 -115 -30c-132 -12 -239 -42.333 -321 -91c-68 -40.667 -121.667 -93.834 -161 -159.501s-59 -134.834 -59 -207.501
c0 -74 19.167 -132.833 57.5 -176.5s89.833 -65.5 154.5 -65.5c81.333 0 151.666 34.333 210.999 103s124.666 190.667 195.999 366l347 853h-109c-92 0 -138 32 -138 96c0 45.333 16.167 80.5 48.5 105.5s77.833 37.5 136.5 37.5h381c128 0 222.5 -24.167 283.5 -72.5
s91.5 -122.833 91.5 -223.5c0 -122.667 -47.333 -223 -142 -301c-68.667 -56.667 -174.667 -85 -318 -85h-137zM1428 922.005h81c106.667 0 160 43.333 160 130c0 49.333 -30.333 74 -91 74h-67z" />
    <glyph glyph-name="Q" unicode="Q" horiz-adv-x="1462" 
d="M989 107l45.998 -83.001c13.333 -23.333 29 -38.833 47 -46.5s48.333 -11.5 91 -11.5h371c92 0 138 -32.667 138 -98c0 -44 -16.167 -78.5 -48.5 -103.5s-77.5 -37.5 -135.5 -37.5h-469c-70 0 -125.333 35 -166 105l-90 155c-56 -19.333 -112.667 -29 -170 -29
c-125.333 0 -224.166 43.333 -296.499 130s-108.5 205 -108.5 355c0 114.667 22.167 235.5 66.5 362.5s100.833 232.167 169.5 315.5c66.667 80.667 142.834 143.834 228.501 189.501s170.5 68.5 254.5 68.5c125.333 0 226.333 -43.667 303 -131s115 -202.333 115 -345
c0 -148 -32.167 -296 -96.5 -444s-147.5 -265.333 -249.5 -352zM862.998 326.999c64.667 79.333 115.337 169.333 152.004 270s55 201 55 301c0 72.667 -16.667 130.334 -50 173.001s-78.333 64 -135 64c-96.667 0 -184.334 -60 -263.001 -180
c-44.667 -68 -82.167 -151.5 -112.5 -250.5s-45.5 -186.833 -45.5 -263.5c0 -68 14.667 -124 44 -168s66.666 -66 111.999 -66c6 0 15.667 1 29 3l-38 63c-30 50.667 -45 90.667 -45 120c0 34 11.333 62.667 34 86s50.667 35 84 35c29.333 0 52.666 -6.83301 69.999 -20.5
s37.666 -40.834 60.999 -81.501z" />
    <glyph glyph-name="R" unicode="R" horiz-adv-x="1886" 
d="M1589 563l211.001 -501.001c27.333 -64.667 63 -97 107 -97l40 1h418c92 0 138 -31.333 138 -94c0 -46 -16 -81.667 -48 -107s-77.667 -38 -137 -38h-461c-126.667 0 -214.667 60 -264 180l-289 696l-134 -330c-64 -158 -109.5 -264.833 -136.5 -320.5
s-58.167 -107.167 -93.5 -154.5c-127.333 -172 -287.666 -258 -480.999 -258c-140.667 0 -254.667 44 -342 132s-131 203.333 -131 346c0 186 68.667 349.667 206 491c74 75.333 166.667 136.166 278 182.499s221.666 69.5 330.999 69.5c52 0 94.167 -11.833 126.5 -35.5
s48.5 -54.5 48.5 -92.5c0 -41.333 -17.333 -74.333 -52 -99c-20 -14 -58.667 -24 -116 -30c-133.333 -12 -240.333 -42.333 -321 -91c-68 -41.333 -121.667 -94.666 -161 -159.999s-59 -133.666 -59 -204.999c0 -75.333 19.167 -134.833 57.5 -178.5s90.5 -65.5 156.5 -65.5
c81.333 0 151.833 34.333 211.5 103s125.167 190.667 196.5 366l346 853h-103c-92 0 -138 31.667 -138 95c0 46 16 81.5 48 106.5s77.333 37.5 136 37.5h332c86.667 0 150.167 -5 190.5 -15s79.166 -30.667 116.499 -62c77.333 -64.667 116 -155.667 116 -273
c0 -106.667 -31.5 -201.5 -94.5 -284.5s-146.167 -138.833 -249.5 -167.5zM1364 750.999l29 1.99902c76 4.66699 132.667 19.334 170 44.001c72 47.333 108 111 108 191c0 92 -44 138 -132 138h-22z" />
    <glyph glyph-name="S" unicode="S" horiz-adv-x="1367" 
d="M971 683l91.999 -116l53 -64c102.667 -126.667 154 -260.667 154 -402c0 -137.333 -45.333 -257.666 -136 -360.999c-124 -142 -286.333 -213 -487 -213c-155.333 0 -282.666 47.833 -381.999 143.5s-149 218.167 -149 367.5c0 182.667 77.333 335 232 457
c82 64.667 157.667 97 227 97c36 0 65.333 -10.333 88 -31s34 -47.334 34 -80.001c0 -44 -26 -82 -78 -114l-80 -49c-46 -28.667 -84.333 -68.667 -115 -120s-46 -102 -46 -152c0 -79.333 26.833 -144.833 80.5 -196.5s121.834 -77.5 204.501 -77.5
c91.333 0 170.666 34.167 237.999 102.5s101 148.833 101 241.5c0 58.667 -13.667 112 -41 160s-86.333 122.333 -177 223c-63.333 70 -108.666 131.333 -135.999 184h-270c-92 0 -138 31.667 -138 95c0 46 16.167 81.5 48.5 106.5s77.833 37.5 136.5 37.5h171
c13.333 132 73.666 241.167 180.999 327.5s236 129.5 386 129.5c112.667 0 204.5 -31 275.5 -93s106.5 -142.333 106.5 -241c0 -131.333 -56.333 -232 -169 -302c-64 -40 -165.667 -60 -305 -60h-100zM850.999 922l240 -0.000976562c135.333 0 203 39.333 203 118
c0 30.667 -13.833 55.334 -41.5 74.001s-64.5 28 -110.5 28c-72 0 -137.5 -22.333 -196.5 -67s-90.5 -95.667 -94.5 -153z" />
    <glyph glyph-name="T" unicode="T" horiz-adv-x="1528" 
d="M1518 1126l-345.998 -853.002c-84 -206.667 -148 -347.167 -192 -421.5s-100.667 -138.833 -170 -193.5c-102 -78.667 -218.667 -118 -350 -118c-140.667 0 -254.834 44.167 -342.501 132.5s-131.5 203.5 -131.5 345.5c0 187.333 69 351.333 207 492
c74 75.333 166.667 136 278 182s221.333 69 330 69c52 0 94.167 -11.833 126.5 -35.5s48.5 -54.5 48.5 -92.5c0 -41.333 -17.333 -74.333 -52 -99c-19.333 -14 -58 -24 -116 -30c-133.333 -12 -240.333 -42.333 -321 -91c-68 -41.333 -121.667 -94.666 -161 -159.999
s-59 -134.333 -59 -207c0 -74.667 19.667 -133.667 59 -177s92.666 -65 159.999 -65c80 0 150 34.667 210 104s125.333 191 196 365l346 853h-195c-92 0 -138 32.667 -138 98c0 44 16.333 78.5 49 103.5s78 37.5 136 37.5h657h26l70 -16c28 -15.333 42 -42.666 42 -81.999
c0 -44 -16.333 -78.5 -49 -103.5s-78 -37.5 -136 -37.5h-182z" />
    <glyph glyph-name="U" unicode="U" horiz-adv-x="1748" 
d="M1822 1126l-319 -785.004c-54 -132 -118.167 -228.167 -192.5 -288.5s-166.166 -90.5 -275.499 -90.5c-106 0 -195.167 31.833 -267.5 95.5s-108.5 141.834 -108.5 234.501c0 68.667 21.667 156.334 65 263.001l107 264c40.667 100 61 167.667 61 203
c0 33.333 -14 61.5 -42 84.5s-62 34.5 -102 34.5c-65.333 0 -125 -28.833 -179 -86.5s-81 -121.167 -81 -190.5c0 -41.333 9.33301 -73.666 28 -96.999s51.334 -44 98.001 -62c49.333 -19.333 74 -50.666 74 -93.999c0 -37.333 -14.333 -68.5 -43 -93.5
s-64.334 -37.5 -107.001 -37.5c-84.667 0 -156.834 35.167 -216.501 105.5s-89.5 155.5 -89.5 255.5c0 145.333 54.5 272.333 163.5 381s236.5 163 382.5 163c110.667 0 202.5 -32.5 275.5 -97.5s109.5 -146.833 109.5 -245.5c0 -62.667 -17.667 -137 -53 -223l-152 -375
c-22 -54 -33 -97 -33 -129c0 -33.333 11.167 -60.5 33.5 -81.5s51.5 -31.5 87.5 -31.5c46 0 84.167 15.667 114.5 47s61.833 87.666 94.5 168.999l329 809c23.333 58.667 47.333 96.334 72 113.001s67.667 25 129 25h216c92 0 138 -31.333 138 -94
c0 -46.667 -16 -82.5 -48 -107.5s-77.333 -37.5 -136 -37.5h-133z" />
    <glyph glyph-name="V" unicode="V" horiz-adv-x="1712" 
d="M1817 1126l-615 -1036c-52 -87.333 -113 -131 -183 -131c-99.333 0 -149 62.333 -149 187l-16 673c0 122 -10.5 204.167 -31.5 246.5s-61.5 63.5 -121.5 63.5c-55.333 0 -109.5 -28.5 -162.5 -85.5s-79.5 -115.167 -79.5 -174.5c0 -48.667 15.167 -87.5 45.5 -116.5
s70.833 -43.5 121.5 -43.5c12 0 24 0.333008 36 1c14 0.666992 22.333 1 25 1c80.667 0 121 -33.667 121 -101c0 -44.667 -22.833 -81.834 -68.5 -111.501s-103.167 -44.5 -172.5 -44.5c-110 0 -200.167 36.833 -270.5 110.5s-105.5 167.5 -105.5 281.5
c0 137.333 56.167 260.5 168.5 369.5s239.5 163.5 381.5 163.5c137.333 0 239 -47 305 -141c24.667 -35.333 41.834 -83.333 51.501 -144s14.5 -152.334 14.5 -275.001v-396l485 825l25 43c16.667 28.667 34.667 48 54 58s48.666 15 87.999 15l39 1h176
c92.667 0 139 -32 139 -96c0 -44.667 -16.333 -79.667 -49 -105s-78 -38 -136 -38h-116z" />
    <glyph glyph-name="W" unicode="W" horiz-adv-x="2404" 
d="M2478 1126l-616.001 -1059c-46 -78.667 -101.667 -118 -167 -118c-50 0 -88.667 15.5 -116 46.5s-41 75.167 -41 132.5l26 717l-364 -778c-36.667 -78.667 -89.667 -118 -159 -118c-50 0 -89.167 15.833 -117.5 47.5s-42.5 75.5 -42.5 131.5l-21 691
c0 122 -10.5 204.167 -31.5 246.5s-61.833 63.5 -122.5 63.5c-54 0 -107.667 -28.5 -161 -85.5s-80 -114.5 -80 -172.5c0 -48.667 15 -88 45 -118s69.333 -45 118 -45c14 0 27.333 0.333008 40 1s20.667 1 24 1c81.333 0 122 -33.667 122 -101
c0 -44.667 -23 -81.834 -69 -111.501s-104 -44.5 -174 -44.5c-108 0 -197.333 37 -268 111s-106 167.667 -106 281c0 138 56.167 261.5 168.5 370.5s239.5 163.5 381.5 163.5c130 0 224.167 -38.167 282.5 -114.5s87.5 -198.5 87.5 -366.5l1 -79l6 -348l357 775
c40 88.667 101 133 183 133c46.667 0 84.334 -13.833 113.001 -41.5s43 -64.5 43 -110.5l-1 -11l-18 -761l450 775l21 39c36.667 64 93 96 169 96h195c92.667 0 139 -32.667 139 -98c0 -44 -16.333 -78.5 -49 -103.5s-78 -37.5 -136 -37.5h-112z" />
    <glyph glyph-name="X" unicode="X" horiz-adv-x="1578" 
d="M1251 662l126.001 -632c5.33301 -25.333 15.333 -42.333 30 -51s40.667 -13 78 -13h380c92.667 0 139 -31.333 139 -94c0 -46 -16.167 -81.667 -48.5 -107s-77.833 -38 -136.5 -38h-379h-54c-80.667 0 -138.667 15.167 -174 45.5s-61 86.5 -77 168.5l-89 467l-293 -356
l-22 -27c-44 -52.667 -91.333 -79 -142 -79c-33.333 0 -61 10.833 -83 32.5s-33 49.167 -33 82.5c0 35.333 23.333 82 70 140l434 533l-39 211c-20.667 112.667 -70 169 -148 169c-62 0 -118.833 -28.5 -170.5 -85.5s-77.5 -119.5 -77.5 -187.5
c0 -74.667 37 -118.667 111 -132c80 -14 120 -51 120 -111c0 -41.333 -16.833 -75.833 -50.5 -103.5s-75.834 -41.5 -126.501 -41.5c-91.333 0 -168 34.5 -230 103.5s-93 154.167 -93 255.5c0 148 55.5 277.833 166.5 389.5s239.833 167.5 386.5 167.5
c87.333 0 161.5 -26 222.5 -78s101.167 -123.667 120.5 -215l21 -100l222 279c17.333 21.333 30 37.333 38 48c18.667 26 36.5 42.833 53.5 50.5s43.833 11.5 80.5 11.5h211c92 0 138 -31.667 138 -95c0 -46 -16 -81.5 -48 -106.5s-77.333 -37.5 -136 -37.5h-133z" />
    <glyph glyph-name="Y" unicode="Y" horiz-adv-x="1839" 
d="M1853 1126l-359.999 -886.998h135c92 0 138 -32.667 138 -98c0 -44 -16.167 -78.5 -48.5 -103.5s-77.5 -37.5 -135.5 -37.5h-187l-73 -184c-81.333 -203.333 -166 -346.833 -254 -430.5s-197.667 -125.5 -329 -125.5c-124 0 -227.333 41.333 -310 124
s-124 185.667 -124 309c0 93.333 24.5 179 73.5 257s118.167 142 207.5 192c114 63.333 271.667 95 473 95l159 2l34 83c-35.333 -17.333 -74.333 -26 -117 -26c-94.667 0 -173.167 29 -235.5 87s-93.5 131 -93.5 219c0 46 15.333 112.667 46 200l22 59l21 59
c15.333 42 23 77 23 105c0 32 -14 59.333 -42 82s-61.667 34 -101 34c-64 0 -122.5 -29.333 -175.5 -88s-79.5 -123 -79.5 -193c0 -40 9 -71.5 27 -94.5s50 -43.167 96 -60.5c48 -18.667 72 -49.334 72 -92.001c0 -38 -14.333 -69.667 -43 -95s-64.334 -38 -107.001 -38
c-84.667 0 -156.834 35.333 -216.501 106s-89.5 156 -89.5 256c0 145.333 54.833 272.166 164.5 380.499s237.834 162.5 384.501 162.5c110 0 201 -33 273 -99s108 -149.333 108 -250c0 -48 -8.33301 -94.667 -25 -140l-39 -106c-24.667 -66 -37 -113 -37 -141
c0 -31.333 11.667 -58 35 -80s51.333 -33 84 -33c48.667 0 89.667 17 123 51s67.333 93.333 102 178l193 476c18.667 46 41.5 78.167 68.5 96.5s65.5 27.5 115.5 27.5h236c92 0 138 -31.333 138 -94c0 -46 -16.167 -81.667 -48.5 -107s-77.833 -38 -136.5 -38h-145z
M1121 0.00195312c-140 0 -247.332 -13.333 -321.999 -40c-70 -24.667 -124.833 -60.167 -164.5 -106.5s-59.5 -97.5 -59.5 -153.5c0 -52 17.167 -96 51.5 -132s76.166 -54 125.499 -54c60.667 0 115.5 27 164.5 81s97.833 141.333 146.5 262z" />
    <glyph glyph-name="Z" unicode="Z" horiz-adv-x="1414" 
d="M894 627c159.333 -118.667 246.001 -247.997 260.001 -387.997h131c92 0 138 -32 138 -96c0 -44.667 -16.333 -79.667 -49 -105s-77.667 -38 -135 -38h-74c-14.667 -208.667 -92.667 -385.334 -234 -530.001s-306.666 -217 -495.999 -217
c-146.667 0 -268.334 46.167 -365.001 138.5s-145 208.833 -145 349.5c0 151.333 53.667 272.166 161 362.499s250.666 135.5 429.999 135.5h371c-25.333 94 -89 168.333 -191 223l-30 16c-56 29.333 -84 68 -84 116c0 30 19 67 57 111l361 421h-414
c-92 0 -138 31.667 -138 95c0 45.333 16.167 80.666 48.5 105.999s77.833 38 136.5 38h577c111.333 0 167 -43.333 167 -130c0 -38.667 -18.667 -79 -56 -121zM901.001 0.00292969l-234.999 0.000976562c-150.667 0 -255.334 -12 -314.001 -36
c-110 -44.667 -165 -120.334 -165 -227.001c0 -66.667 25.167 -123.167 75.5 -169.5s111.833 -69.5 184.5 -69.5c108.667 0 206.5 48 293.5 144s140.5 215.333 160.5 358z" />
    <glyph glyph-name="bracketleft" unicode="[" horiz-adv-x="932" 
d="M950 1188l-466.001 -1215h152c52.667 0 90.334 -7.66699 113.001 -23s34 -41 34 -77c0 -97.333 -64 -146 -192 -146h-322c-79.333 0 -119 30.333 -119 91c0 19.333 9.33301 53 28 101l534 1375c20 52.667 42.667 89.167 68 109.5s60 30.5 104 30.5h269h44
c25.333 0 46.5 -8.66699 63.5 -26s25.5 -38.666 25.5 -63.999c0 -45.333 -18.667 -84.333 -56 -117c-29.333 -26 -85.333 -39 -168 -39h-112z" />
    <glyph glyph-name="backslash" unicode="\" horiz-adv-x="905" 
d="M623 1340l85.999 -1526c0.666992 -16 1 -25.333 1 -28c0 -27.333 -9.5 -50.833 -28.5 -70.5s-41.833 -29.5 -68.5 -29.5c-45.333 0 -69.666 31 -72.999 93l-86 1527c-0.666992 14.667 -1 23 -1 25c0 29.333 9.33301 53.833 28 73.5s42 29.5 70 29.5
c44 0 67.667 -25 71 -75z" />
    <glyph glyph-name="bracketright" unicode="]" horiz-adv-x="822" 
d="M349 -27l467.001 1215h-84c-52.667 0 -90.334 7.66699 -113.001 23s-34 41 -34 77c0 97.333 64 146 192 146h253c80 0 120 -30.333 120 -91c0 -17.333 -3.33301 -35.333 -10 -54l-18 -47l-534 -1375c-20 -52 -42.667 -88.333 -68 -109s-60 -31 -104 -31h-270h-44
c-24.667 0 -45.5 8.66699 -62.5 26s-25.5 38.666 -25.5 63.999c0 45.333 18.667 84.333 56 117c29.333 26 85.333 39 168 39h111z" />
    <glyph glyph-name="asciicircum" unicode="^" horiz-adv-x="1024" 
d="M278 693h-264l332 680h331l333 -680h-265l-233 479z" />
    <glyph glyph-name="underscore" unicode="_" horiz-adv-x="1024" 
d="M0 -99h1024v-227h-1024v227z" />
    <glyph glyph-name="grave" unicode="`" horiz-adv-x="1024" 
d="M668 1058l42.001 -96c8 -19.333 12 -37.333 12 -54c0 -18.667 -6.83301 -34.667 -20.5 -48s-29.834 -20 -48.501 -20c-21.333 0 -43.333 8.66699 -66 26l-119 88c-38 28 -57 56.667 -57 86c0 22.667 7.83301 41.5 23.5 56.5s35.167 22.5 58.5 22.5h74
c49.333 0 83 -20.333 101 -61z" />
    <glyph glyph-name="a" unicode="a" horiz-adv-x="957" 
d="M777 218h110.002c84 0 126 -29.333 126 -88c0 -40.667 -15 -72.5 -45 -95.5s-71.333 -34.5 -124 -34.5h-128c-57.333 -0 -96.333 22.333 -117 67c-50 -44.667 -98.333 -67 -145 -67h-114c-73.333 0 -132.5 26.167 -177.5 78.5s-67.5 120.833 -67.5 205.5
c0 128 44.167 242.5 132.5 343.5s188.166 151.5 299.499 151.5c85.333 0 147.666 -29.667 186.999 -89c33.333 50 77 75 131 75c29.333 0 53.833 -9.33301 73.5 -28s29.5 -41.667 29.5 -69c0 -18.667 -5.33301 -41 -16 -67l-11 -27zM414.002 213l25.001 0.000976562
c54.667 0 91 22.333 109 67l70 173c9.33301 22.667 14 41.667 14 57c0 18 -8.83301 33.667 -26.5 47s-38.834 20 -63.501 20c-48.667 0 -96 -28.333 -142 -85s-69 -115.334 -69 -176.001c0 -68.667 27.667 -103 83 -103z" />
    <glyph glyph-name="b" unicode="b" horiz-adv-x="889" 
d="M590 765c30 9.33301 56.668 13.999 80.001 13.999c77.333 0 140 -28.833 188 -86.5s72 -132.5 72 -224.5c0 -178 -68.667 -316.667 -206 -416c-48 -34.667 -98 -52 -150 -52h-95c-66 0 -122.333 23.667 -169 71c-28 -47.333 -72 -71 -132 -71
c-28.667 0 -53 9.33301 -73 28s-30 41.334 -30 68.001c0 20 5.33301 43 16 69l11 27l419 1033l11 28c31.333 74.667 79.666 112 144.999 112c30 0 55.167 -9.16699 75.5 -27.5s30.5 -40.833 30.5 -67.5c0 -20.667 -5.33301 -43.667 -16 -69l-11 -28zM391.001 274.999
c33.333 -42.667 72.333 -64.002 117 -64.002c32 0 59 9 81 27c30.667 24.667 57.5 61.334 80.5 110.001s34.5 92.334 34.5 131.001c0 30 -8.66699 54.5 -26 73.5s-40 28.5 -68 28.5c-63.333 0 -114 -47 -152 -141z" />
    <glyph glyph-name="c" unicode="c" horiz-adv-x="779" 
d="M667 0h-290c-83.333 -0 -151.166 29.333 -203.499 88s-78.5 134.667 -78.5 228c0 124.667 43 233 129 325s187 138 303 138c78.667 0 142.667 -22 192 -66s74 -101.333 74 -172c0 -49.333 -12.333 -89.833 -37 -121.5s-56.334 -47.5 -95.001 -47.5
c-61.333 0 -92 28.667 -92 86v22c0.666992 7.33301 1 14.333 1 21c0 46.667 -23 70 -69 70c-43.333 0 -82.833 -23 -118.5 -69s-53.5 -97.333 -53.5 -154c0 -47.333 14.5 -80.833 43.5 -100.5s78.167 -29.5 147.5 -29.5h189c84.667 0 127 -29.667 127 -89
c0 -40 -15.167 -71.5 -45.5 -94.5s-71.5 -34.5 -123.5 -34.5z" />
    <glyph glyph-name="d" unicode="d" horiz-adv-x="968" 
d="M781 218h114.001c84.667 0 127 -29.667 127 -89c0 -40.667 -15 -72.334 -45 -95.001s-71.333 -34 -124 -34h-135c-52 0 -90 21.333 -114 64c-42.667 -42.667 -88.334 -64 -137.001 -64h-127c-74 0 -133.167 25.333 -177.5 76s-66.5 118 -66.5 202
c0 128.667 43.833 244.334 131.5 347.001s186.167 154 295.5 154c80.667 0 145 -29 193 -87l223 547c38 93.333 91 140 159 140c28.667 0 53 -9.16699 73 -27.5s30 -40.833 30 -67.5c0 -20.667 -5 -44 -15 -70l-12 -27zM415.001 213h38c46 0 76.333 18.333 91 55l75 185
c9.33301 22.667 14 40 14 52c0 20 -8.5 37 -25.5 51s-38.167 21 -63.5 21c-52 0 -100.5 -29 -145.5 -87s-67.5 -120.667 -67.5 -188c0 -59.333 28 -89 84 -89z" />
    <glyph glyph-name="e" unicode="e" horiz-adv-x="814" 
d="M334 293c0 -50 37.668 -74.998 113.001 -74.998h297c84 0 126 -29.667 126 -89c0 -40.667 -14.833 -72.334 -44.5 -95.001s-71.167 -34 -124.5 -34h-283c-105.333 0 -185.5 26 -240.5 78s-82.5 128 -82.5 228c0 128.667 43.5 239.667 130.5 333s190.5 140 310.5 140
c87.333 0 157.5 -22.833 210.5 -68.5s79.5 -105.834 79.5 -180.501c0 -90 -36.667 -156.667 -110 -200c-40.667 -24.667 -101.334 -37 -182.001 -37h-200zM382.001 475.002h109.999c71.333 0 106 15.667 104 47c-2 35.333 -25 53 -69 53
c-61.333 0 -109.666 -33.333 -144.999 -100z" />
    <glyph glyph-name="f" unicode="f" horiz-adv-x="688" 
d="M646 765l137.999 0.000976562c84.667 0 127 -29.667 127 -89c0 -40.667 -14.833 -72.334 -44.5 -95.001s-71.167 -34 -124.5 -34h-184l-449 -1107c-37.333 -91.333 -89.333 -137 -156 -137c-29.333 0 -54 9 -74 27s-30 40.333 -30 67c0 19.333 8.66699 51 26 95l429 1055
h-68c-84.667 0 -127 29 -127 87c0 41.333 14.833 73.5 44.5 96.5s71.167 34.5 124.5 34.5h114l127 313c42.667 104 93.834 177.833 153.501 221.5s139.5 65.5 239.5 65.5h114c85.333 0 128 -29.333 128 -88c0 -42 -15 -74.667 -45 -98s-71.667 -35 -125 -35h-30
c-56 0 -100.167 -11.333 -132.5 -34s-59.5 -61 -81.5 -115z" />
    <glyph glyph-name="g" unicode="g" horiz-adv-x="892" 
d="M683 -28l120 0.00292969c84.667 0 127 -29.333 127 -88c0 -40.667 -15 -72.5 -45 -95.5s-71.333 -34.5 -124 -34.5h-166l-42 -103c-102 -250 -251 -375 -447 -375c-102.667 0 -188.167 31.667 -256.5 95s-102.5 142.666 -102.5 237.999c0 62 16.5 120.167 49.5 174.5
s78.167 97.5 135.5 129.5c70.667 39.333 165.667 59 285 59h215l31 78c-42 -25.333 -81.667 -38 -119 -38c-71.333 0 -129.166 24.667 -173.499 74s-66.5 113.666 -66.5 192.999c0 128 45 243.333 135 346s191 154 303 154c82 0 143.333 -26.667 184 -80
c31.333 53.333 75.666 80 132.999 80c28 0 51.833 -9.16699 71.5 -27.5s29.5 -40.5 29.5 -66.5c0 -20.667 -8.66699 -52.334 -26 -95.001zM553 272.003l81 197.999c6.66699 16.667 10 30.334 10 41.001c0 20 -8.83301 36.667 -26.5 50s-39.834 20 -66.501 20
c-48 0 -93.833 -27.5 -137.5 -82.5s-65.5 -113.167 -65.5 -174.5c0 -70 32.667 -105 98 -105c56.667 0 92.334 17.667 107.001 53zM343 -245.998h-173c-60 0 -106.5 -12.667 -139.5 -38s-49.5 -61 -49.5 -107c0 -31.333 11.333 -58 34 -80s50.667 -33 84 -33
c48 0 90 19 126 57s75.333 105 118 201z" />
    <glyph glyph-name="h" unicode="h" horiz-adv-x="1023" 
d="M575 722c70 38 127.665 57 172.998 57c64 0 116.5 -17.833 157.5 -53.5s61.5 -81.167 61.5 -136.5c0 -33.333 -8 -69.666 -24 -108.999l-105 -262h115c84 0 126 -29.667 126 -89c0 -40.667 -14.833 -72.334 -44.5 -95.001s-71.167 -34 -124.5 -34h-201
c-42.667 0 -78.5 12.167 -107.5 36.5s-43.5 54.166 -43.5 89.499c0 24 7.66699 54.667 23 92l92 226c11.333 28.667 17 50.334 17 65.001c0 38 -25.333 57 -76 57c-68 0 -125.333 -58 -172 -174l-112 -275c-35.333 -87.333 -87.666 -131 -156.999 -131
c-27.333 0 -50.666 8.66699 -69.999 26s-29 38.333 -29 63c0 18.667 5 40.667 15 66l11 27l435 1073c38 92 90 138 156 138c27.333 0 50.833 -9.16699 70.5 -27.5s29.5 -40.5 29.5 -66.5c0 -21.333 -8.66699 -53 -26 -95z" />
    <glyph glyph-name="i" unicode="i" horiz-adv-x="555" 
d="M372 218l113.001 0.000976562c84 0 126 -29.667 126 -89c0 -40.667 -14.833 -72.334 -44.5 -95.001s-71.167 -34 -124.5 -34h-159c-58.667 0 -104.834 12 -138.501 36s-50.5 56.667 -50.5 98c0 22 7 50 21 84l165 406l11 28c30.667 75.333 80 113 148 113
c28 0 52.167 -9.33301 72.5 -28s30.5 -41 30.5 -67c0 -21.333 -9 -54 -27 -98zM504.001 1084c38.667 0 71.5 -13.5 98.5 -40.5s40.5 -59.833 40.5 -98.5s-13.5 -71.5 -40.5 -98.5s-59.833 -40.5 -98.5 -40.5s-71.5 13.5 -98.5 40.5s-40.5 59.833 -40.5 98.5
s13.5 71.5 40.5 98.5s59.833 40.5 98.5 40.5z" />
    <glyph glyph-name="j" unicode="j" horiz-adv-x="601" 
d="M390 -41l110 -0.000976562c84 0 126 -29.667 126 -89c0 -40 -14.833 -71.5 -44.5 -94.5s-71.167 -34.5 -124.5 -34.5h-156l-71 -143l-29 -59c-92 -184 -224 -276 -396 -276c-103.333 0 -190 31.5 -260 94.5s-105 141.5 -105 235.5c0 55.333 13.667 109.5 41 162.5
s63.333 95.167 108 126.5c72.667 51.333 185 77 337 77h208l227 560h-108c-84.667 0 -127 29.667 -127 89c0 40.667 14.833 72.334 44.5 95.001s71.5 34 125.5 34h239c80.667 0 121 -33.667 121 -101c0 -26 -7 -56 -21 -90zM45 -259.001h-140.001
c-152.667 0 -229 -49.333 -229 -148c0 -32 10.667 -58.167 32 -78.5s49 -30.5 83 -30.5c48.667 0 91.834 18.833 129.501 56.5s79.167 104.5 124.5 200.5zM637.999 1084c38.667 0 71.5 -13.5 98.5 -40.5s40.5 -59.833 40.5 -98.5s-13.5 -71.5 -40.5 -98.5
s-59.833 -40.5 -98.5 -40.5s-71.5 13.5 -98.5 40.5s-40.5 59.833 -40.5 98.5s13.5 71.5 40.5 98.5s59.833 40.5 98.5 40.5z" />
    <glyph glyph-name="k" unicode="k" horiz-adv-x="881" 
d="M704 423l155.001 -242.997c19.333 -30 29 -54.667 29 -74c0 -30.667 -12.833 -58.334 -38.5 -83.001s-54.5 -37 -86.5 -37c-28 0 -52.333 15 -73 45l-12 18l-232 347l-112 -277c-36 -88.667 -88.667 -133 -158 -133c-28.667 0 -52.834 8.83301 -72.501 26.5
s-29.5 39.167 -29.5 64.5c0 19.333 5.33301 41.666 16 66.999l11 27l428 1055l11 27c30.667 74.667 79.667 112 147 112c28 0 52 -9.33301 72 -28s30 -41 30 -67c0 -20 -5.33301 -43 -16 -69l-11 -27l-255 -628l225 167c46.667 34.667 86.667 52 120 52
c28 0 51.333 -9 70 -27s28 -40.333 28 -67c0 -44.667 -24.667 -85.334 -74 -122.001l-23 -17z" />
    <glyph glyph-name="l" unicode="l" horiz-adv-x="544" 
d="M362 218l105 0.00195312c84.667 0 127 -29.667 127 -89c0 -40.667 -14.833 -72.334 -44.5 -95.001s-71.167 -34 -124.5 -34h-180c-49.333 0 -88.333 11.667 -117 35s-43 54.666 -43 93.999c0 20.667 9.66699 55 29 103l404 994l11 27c30.667 74.667 79.667 112 147 112
c28 0 51.833 -9.33301 71.5 -28s29.5 -41 29.5 -67c0 -20 -5 -42.667 -15 -68l-11 -27z" />
    <glyph glyph-name="m" unicode="m" horiz-adv-x="1486" 
d="M1297 218l119.002 0.00195312c84 0 126 -29.667 126 -89c0 -40.667 -14.833 -72.334 -44.5 -95.001s-70.834 -34 -123.501 -34h-203c-44 0 -79.667 11.667 -107 35s-41 54 -41 92c0 26 9 61.333 27 106l94 229c5.33301 13.333 8 25.666 8 36.999c0 43.333 -22 65 -66 65
c-34 0 -67.667 -15.333 -101 -46s-60 -71.334 -80 -122.001l-112 -276c-36.667 -89.333 -90 -134 -160 -134c-27.333 0 -50.666 9 -69.999 27s-29 39.333 -29 64c0 19.333 5 42 15 68l11 27l113 279c10 24.667 15 44 15 58c0 14.667 -6.66699 27.5 -20 38.5
s-29 16.5 -47 16.5c-72 0 -129 -52 -171 -156l-117 -287c-36.667 -90 -89.667 -135 -159 -135c-27.333 0 -50.833 8.83301 -70.5 26.5s-29.5 39.167 -29.5 64.5c0 20 5 42.667 15 68l11 27l199 490c28 68.667 70 103 126 103c58 0 94 -27.333 108 -82
c45.333 38.667 82.166 64.334 110.499 77.001s63.166 19 104.499 19c89.333 0 156.333 -39 201 -117c74.667 78 158.667 117 252 117c64 0 117.5 -18.5 160.5 -55.5s64.5 -82.5 64.5 -136.5c0 -34 -7.33301 -69 -22 -105z" />
    <glyph glyph-name="n" unicode="n" horiz-adv-x="1025" 
d="M835 218l120 0.00292969c84.667 0 127 -29.667 127 -89c0 -40.667 -15 -72.334 -45 -95.001s-71.333 -34 -124 -34h-209c-40.667 0 -74.834 12.333 -102.501 37s-41.5 55.667 -41.5 93c0 22.667 9.33301 56.667 28 102l88 218c9.33301 22.667 14.333 41 15 55
c0.666992 16 -5.83301 29.667 -19.5 41s-31.167 17 -52.5 17c-68.667 0 -124 -51.667 -166 -155l-118 -290c-35.333 -88 -88 -132 -158 -132c-28.667 0 -53 8.66699 -73 26s-30 38.666 -30 63.999c0 18.667 5.33301 41 16 67l11 27l202 498c26 64.667 70.333 97 133 97
c51.333 0 88 -22.667 110 -68c71.333 54.667 139.333 82 204 82c62.667 0 114.334 -18 155.001 -54s61 -81.667 61 -137c0 -30.667 -7.33301 -64.334 -22 -101.001z" />
    <glyph glyph-name="o" unicode="o" horiz-adv-x="848" 
d="M557 779c96.667 0 176.167 -30.6699 238.5 -92.0029s93.5 -139.333 93.5 -234c0 -71.333 -16.333 -142.166 -49 -212.499s-75 -126.5 -127 -168.5c-34.667 -27.333 -70.5 -46.166 -107.5 -56.499s-88.833 -15.5 -155.5 -15.5c-108.667 0 -182 13 -220 39
c-89.333 61.333 -134 152 -134 272c0 126.667 45.667 236.334 137 329.001s199.333 139 324 139zM533 565.997c-49.333 0 -94.333 -24.332 -135 -72.999s-61 -102.334 -61 -161.001c0 -77.333 43.333 -116 130 -116c50.667 0 89.667 15.667 117 47
c45.333 51.333 68 110 68 176c0 38 -11 68.667 -33 92s-50.667 35 -86 35z" />
    <glyph glyph-name="p" unicode="p" horiz-adv-x="894" 
d="M311 78l-261.003 -642c-36 -88.667 -88.667 -133 -158 -133c-26.667 0 -49.5 8.83301 -68.5 26.5s-28.5 38.834 -28.5 63.501c0 20.667 8.33301 52 25 94l482 1188c24.667 60 67.334 90 128.001 90c42 0 75.333 -20 100 -60c46.667 49.333 103.667 74 171 74
c70 0 126.5 -26.5 169.5 -79.5s64.5 -122.833 64.5 -209.5c0 -164 -51 -297.667 -153 -401c-33.333 -34 -67.666 -57.333 -102.999 -70s-84.666 -19 -147.999 -19c-68 0 -114.833 4.66699 -140.5 14s-52.167 30.666 -79.5 63.999zM392.997 282
c16.667 -29.333 32.499 -48.332 47.499 -56.999s38.833 -13 71.5 -13c47.333 0 84.333 17.667 111 53c54 71.333 81 144.666 81 219.999c0 64.667 -30.667 97 -92 97c-67.333 0 -115.666 -39 -144.999 -117c-3.33301 -8.66699 -6 -16 -8 -22z" />
    <glyph glyph-name="q" unicode="q" horiz-adv-x="844" 
d="M491 -478l110 -0.00195312c84.667 0 127 -30 127 -90c0 -40.667 -14.833 -72.167 -44.5 -94.5s-71.5 -33.5 -125.5 -33.5h-185c-45.333 0 -82 11.333 -110 34s-42 52.334 -42 89.001c0 26.667 9.33301 63 28 109l206 507c-36 -28.667 -78 -43 -126 -43
c-66.667 0 -122.167 25.5 -166.5 76.5s-66.5 114.5 -66.5 190.5c0 70 15.833 142 47.5 216s72.167 134.667 121.5 182c80 76 174.333 114 283 114c91.333 0 165.833 -26.167 223.5 -78.5s86.5 -120.166 86.5 -203.499c0 -46.667 -13 -101.667 -39 -165zM545 263.998l69 171
c7.33301 18.667 11 37 11 55c0 20 -9.16699 36.833 -27.5 50.5s-40.833 20.5 -67.5 20.5c-45.333 0 -88.333 -26 -129 -78s-61 -107 -61 -165c0 -65.333 34.667 -98 104 -98c20.667 0 41.5 4.66699 62.5 14s33.833 19.333 38.5 30z" />
    <glyph glyph-name="r" unicode="r" horiz-adv-x="836" 
d="M344 546l-33.999 -84.001c-30.667 -74.667 -70.667 -112 -120 -112c-30 0 -55 9 -75 27s-30 40.333 -30 67c0 15.333 7.33301 41.333 22 78l113 279c27.333 67.333 66 101 116 101c49.333 0 79.666 -23.333 90.999 -70l8 -31c4 -16 10 -26 18 -30s27.667 -6 59 -6h234
c87.333 0 131 -30.667 131 -92c0 -84.667 -55.333 -127 -166 -127l-11 -10c-106 -101.333 -159 -179.666 -159 -234.999s30.667 -83 92 -83h126c84.667 0 127 -29.333 127 -88c0 -41.333 -14.833 -73.333 -44.5 -96s-71.167 -34 -124.5 -34h-196
c-66.667 0 -121.167 23 -163.5 69s-63.5 105.667 -63.5 179c0 46.667 11.333 92 34 136s62.667 98 120 162h-104z" />
    <glyph glyph-name="s" unicode="s" horiz-adv-x="715" 
d="M427 492l-19.001 -46c-29.333 -66 -71 -99 -125 -99c-27.333 0 -51.833 9.5 -73.5 28.5s-32.5 40.833 -32.5 65.5c0 23.333 9.66699 54.333 29 93l133 270c32.667 64.667 73.334 97 122.001 97c26 0 48.333 -8.5 67 -25.5s28 -37.167 28 -60.5c0 -6 -2 -19 -6 -39
c-2.66699 -14.667 -4 -27.667 -4 -39c0 -42 15.667 -85 47 -129l57 -79c58 -80.667 87 -158.667 87 -234c0 -84 -31.333 -154.167 -94 -210.5s-140.667 -84.5 -234 -84.5h-209c-84.667 -0 -127 29.333 -127 88c0 40.667 15 72.5 45 95.5s71.333 34.5 124 34.5h116
c92.667 0 139 33.667 139 101c0 24.667 -8.66699 53.667 -26 87z" />
    <glyph glyph-name="t" unicode="t" horiz-adv-x="616" 
d="M594 765l31.002 0.00195312c84.667 0 127 -29.667 127 -89c0 -40.667 -15 -72.334 -45 -95.001s-71.333 -34 -124 -34h-73l-134 -329h112c84.667 0 127 -29.667 127 -89c0 -40.667 -14.833 -72.334 -44.5 -95.001s-71.167 -34 -124.5 -34h-179
c-50.667 0 -90.834 11.667 -120.501 35s-44.5 55 -44.5 95c0 24.667 6 52 18 82l19 44l118 291h-15c-74.667 0 -112 29 -112 87c0 41.333 14.833 73.5 44.5 96.5s71.167 34.5 124.5 34.5h46l53 131l11 27c31.333 74 80.666 111 147.999 111
c27.333 0 50.833 -9.16699 70.5 -27.5s29.5 -40.5 29.5 -66.5c0 -25.333 -8.66699 -57.333 -26 -96z" />
    <glyph glyph-name="u" unicode="u" horiz-adv-x="985" 
d="M799 218h116.001c46 0 78.667 -6.83301 98 -20.5s29 -36.167 29 -67.5c0 -40.667 -14.833 -72.5 -44.5 -95.5s-71.167 -34.5 -124.5 -34.5h-179c-56 0 -93.333 21.667 -112 65c-36.667 -43.333 -82.667 -65 -138 -65h-146c-58.667 -0 -107.334 18.333 -146.001 55
s-58 83 -58 139c0 32 8.66699 69.333 26 112l136 334c38 92.667 90 139 156 139c28.667 0 53 -9.16699 73 -27.5s30 -40.833 30 -67.5c0 -20 -5.33301 -43 -16 -69l-11 -27l-105 -257l-11 -30c-6 -17.333 -9.33301 -30.333 -10 -39c-1.33301 -30 18 -45 58 -45
c82.667 0 137.667 33.333 165 100l125 308c37.333 93.333 90 140 158 140c28 0 52 -9.33301 72 -28s30 -41 30 -67c0 -20.667 -8.66699 -52.667 -26 -96z" />
    <glyph glyph-name="v" unicode="v" horiz-adv-x="687" 
d="M346 352l232 316.001l18 27c38.667 56 82 84 130 84c31.333 0 57 -9.83301 77 -29.5s30 -44.834 30 -75.501c0 -33.333 -20 -76 -60 -128l-370 -479c-41.333 -54 -90 -81 -146 -81c-47.333 0 -84.666 16.5 -111.999 49.5s-41 78.167 -41 135.5c0 12 0.333008 21.667 1 29
l36 399c4.66699 54 19.167 95.167 43.5 123.5s57.166 42.5 98.499 42.5c63.333 0 95 -32 95 -96c0 -9.33301 -1.33301 -25.333 -4 -48z" />
    <glyph glyph-name="w" unicode="w" horiz-adv-x="1165" 
d="M824 372l235.001 305.997l19 24c39.333 51.333 82.666 77 129.999 77c30 0 54.667 -9.83301 74 -29.5s29 -44.5 29 -74.5c0 -31.333 -20.333 -72.666 -61 -123.999l-375 -472c-49.333 -62 -100.333 -93 -153 -93c-43.333 0 -80 16.333 -110 49s-45 72.667 -45 120
c0 12 1 24.333 3 37l33 180l-204 -293c-42.667 -62 -90 -93 -142 -93c-44.667 0 -81.334 17.333 -110.001 52s-43 79.334 -43 134.001c0 8 0.333008 14.667 1 20l28 419c4 54 18.167 95.5 42.5 124.5s57.5 43.5 99.5 43.5c62.667 0 94 -34.333 94 -103
c0 -11.333 -0.666992 -24 -2 -38l-28 -280l223 319c47.333 68 102.333 102 165 102c38.667 0 69.334 -11 92.001 -33s34 -51.667 34 -89c0 -15.333 -0.333008 -26.666 -1 -33.999z" />
    <glyph glyph-name="x" unicode="x" horiz-adv-x="699" 
d="M459 566l113 128.001c50 56.667 96.667 85 140 85c30 0 55 -9.83301 75 -29.5s30 -44.167 30 -73.5c0 -40.667 -26.333 -87.334 -79 -140.001l-171 -169l83 -194l9 -20c7.33301 -16.667 11 -33 11 -49c0 -30 -13.167 -57.167 -39.5 -81.5s-55.833 -36.5 -88.5 -36.5
c-39.333 0 -70.333 24 -93 72l-62 136l-117 -124l-21 -22c-39.333 -41.333 -79.333 -62 -120 -62c-30 0 -54.833 9.83301 -74.5 29.5s-29.5 44.167 -29.5 73.5c0 36.667 25.333 81 76 133l178 183l-77 179c-12.667 30 -19 53.333 -19 70c0 32 13.167 60.833 39.5 86.5
s55.833 38.5 88.5 38.5c40 0 71.333 -27.667 94 -83z" />
    <glyph glyph-name="y" unicode="y" horiz-adv-x="878" 
d="M665 -41h115.998c84.667 0 127 -29.667 127 -89c0 -40.667 -14.833 -72.334 -44.5 -95.001s-71.167 -34 -124.5 -34h-162c-19.333 -57.333 -54.333 -133.333 -105 -228c-88 -166.667 -216 -250 -384 -250c-102 0 -187.667 32 -257 96s-104 143.333 -104 238
c0 66 18.833 127.5 56.5 184.5s87.167 99.833 148.5 128.5c70.667 32.667 175 49 313 49h163l29 72c-49.333 -20.667 -94.666 -31 -135.999 -31c-71.333 0 -129.166 18.167 -173.499 54.5s-66.5 83.5 -66.5 141.5c0 35.333 14.333 88.333 43 159l109 269l11 28
c32 75.333 81.667 113 149 113c29.333 0 53.833 -9.33301 73.5 -28s29.5 -42.334 29.5 -71.001c0 -19.333 -8.66699 -50.666 -26 -93.999l-98 -239c-15.333 -38.667 -23.333 -63.667 -24 -75c-2 -32.667 18.667 -49 62 -49c30.667 0 62 9 94 27s52.333 38.333 61 61l134 327
l10 28c31.333 75.333 81 113 149 113c29.333 0 53.833 -9.5 73.5 -28.5s29.5 -42.5 29.5 -70.5c0 -19.333 -5 -41.666 -15 -66.999l-12 -27zM337.998 -259h-140.001c-153.333 0 -230 -48 -230 -144c0 -34 10.5 -61.333 31.5 -82s49.167 -31 84.5 -31
c48.667 0 91.834 19 129.501 57s79.167 104.667 124.5 200z" />
    <glyph glyph-name="z" unicode="z" horiz-adv-x="799" 
d="M467 218l251.999 0.000976562c84 0 126 -29.667 126 -89c0 -40.667 -14.833 -72.334 -44.5 -95.001s-71.167 -34 -124.5 -34h-466c-41.333 -0 -74.166 10.333 -98.499 31s-36.5 48.667 -36.5 84c0 34 22.333 72.667 67 116l327 315l-111 -4h-25
c-72.667 0 -109 30 -109 90c0 37.333 14.333 68.833 43 94.5s63.667 38.5 105 38.5h25h311c92.667 0 139 -39.333 139 -118c0 -40.667 -21 -81.667 -63 -123z" />
    <glyph glyph-name="braceleft" unicode="{" horiz-adv-x="887" 
d="M553 608c40 -33.333 60.002 -71.333 60.002 -114c0 -36 -11.333 -83.667 -34 -143l-89 -232l-10 -27c-12 -30.667 -18.333 -54.334 -19 -71.001c-1.33301 -28 27.334 -43.667 86.001 -47c46 -2.66699 78.333 -11.5 97 -26.5s28 -39.5 28 -73.5
c0 -45.333 -15.833 -81.166 -47.5 -107.499s-75.167 -39.5 -130.5 -39.5h-41l-34 1l-72 2c-136 0 -204 47 -204 141c0 46.667 13 104 39 172l101 264c18.667 48 28 85.333 28 112c0 24.667 -16.333 47.334 -49 68.001c-28 16.667 -46 30.5 -54 41.5s-12 27.167 -12 48.5
c0 81.333 46 132 138 152c45.333 10 81.166 28.167 107.499 54.5s50.5 68.166 72.5 125.499l81 209c80 208.667 211.333 313 394 313l45 2l34 1h45c80 0 120 -33 120 -99c0 -98.667 -66.333 -148 -199 -148c-58.667 0 -98.834 -8.33301 -120.501 -25
s-44.834 -56.667 -69.501 -120l-68 -177c-26 -68 -54.833 -120.333 -86.5 -157s-77.167 -70 -136.5 -100z" />
    <glyph glyph-name="bar" unicode="|" horiz-adv-x="1024" 
d="M386 1365h253v-1706h-253v1706z" />
    <glyph glyph-name="braceright" unicode="}" horiz-adv-x="887" 
d="M589 553c-40 33.333 -60.001 71.6699 -60.001 115.003c0 35.333 11.333 82.666 34 141.999l89 232l10 27c11.333 30.667 17.333 54.334 18 71.001c1.33301 28 -27.334 43.667 -86.001 47c-45.333 2.66699 -77.333 11.5 -96 26.5s-28 39.5 -28 73.5
c0 45.333 15.833 81.166 47.5 107.499s75.167 39.5 130.5 39.5h41l34 -1l72 -2c136 0 204 -47 204 -141c0 -46.667 -13 -104 -39 -172l-101 -264c-18.667 -48 -28 -85.333 -28 -112c0 -24.667 16.333 -47.334 49 -68.001c28 -16.667 46 -30.5 54 -41.5s12 -27.167 12 -48.5
c0 -80.667 -46 -131.334 -138 -152.001c-46 -10.667 -82 -29 -108 -55s-50 -67.667 -72 -125l-81 -209c-80 -208.667 -211.333 -313 -394 -313l-45 -2l-34 -1h-45c-80 0 -120 33 -120 99c0 98.667 66.333 148 199 148c58.667 0 98.834 8.33301 120.501 25
s44.834 56.667 69.501 120l68 177c26 68 54.833 120.333 86.5 157s77.167 70 136.5 100z" />
    <glyph glyph-name="asciitilde" unicode="~" horiz-adv-x="1365" 
d="M324 1152l-138.998 92c6.66699 14.667 11.667 26 15 34c41.333 92 83.166 155.833 125.499 191.5s98.166 53.5 167.499 53.5c45.333 0 116.333 -18 213 -54c88.667 -33.333 149.667 -50 183 -50c32 0 58.333 7.5 79 22.5s43.667 43.5 69 85.5l143 -84
c-46.667 -98 -94.167 -167.167 -142.5 -207.5s-108.166 -60.5 -179.499 -60.5c-36.667 0 -105 18 -205 54c-92 33.333 -150.667 50 -176 50c-34 0 -61.333 -8.5 -82 -25.5s-44.334 -50.833 -71.001 -101.5z" />
    <glyph glyph-name="exclamdown" unicode="&#xa1;" horiz-adv-x="593" 
d="M495 779c38 0 70.667 -13.667 98 -41s41 -60 41 -98c0 -38.667 -13.667 -71.667 -41 -99s-60 -41 -98 -41c-38.667 0 -71.667 13.667 -99 41s-41 60.333 -41 99c0 38 13.667 70.667 41 98s60.333 41 99 41zM44 -304l219 593c20.667 55.333 41.167 94.5 61.5 117.5
s44.5 34.5 72.5 34.5c26 0 48.167 -9.16699 66.5 -27.5s27.5 -40.833 27.5 -67.5c0 -18 -3.66699 -40 -11 -66l-189 -683c-23.333 -85.333 -70.333 -128 -141 -128c-36.667 0 -67.667 12 -93 36s-38 53.333 -38 88c0 22.667 8.33301 57 25 103z" />
    <glyph glyph-name="cent" unicode="&#xa2;" 
d="M822 967c71.333 -36.667 107.001 -103.334 107.001 -200.001c0 -48.667 -12.667 -88 -38 -118s-58.333 -45 -99 -45c-59.333 0 -89 30 -89 90c0 8 0.333008 15 1 21c0.666992 10 1 17 1 21c0 44 -23.667 66 -71 66c-42 0 -80.667 -23 -116 -69s-53 -96.333 -53 -151
c0 -36 9.33301 -65.167 28 -87.5s42.667 -33.5 72 -33.5c18 0 41.667 6 71 18c24.667 10 43.667 15 57 15c25.333 0 46.333 -10 63 -30s25 -45 25 -75c0 -97.333 -63 -149.333 -189 -156c-12 -78.667 -52.667 -118 -122 -118c-30.667 0 -55.834 9.33301 -75.501 28
s-29.5 42.334 -29.5 71.001c0 13.333 3 31 9 53c-95.333 70.667 -143 165.334 -143 284.001c0 110.667 33 207.667 99 291s153.333 137.666 262 162.999c20 69.333 62 104 126 104c31.333 0 57 -9.66699 77 -29s30 -44.333 30 -75c0 -8 -1 -20.667 -3 -38z" />
    <glyph glyph-name="sterling" unicode="&#xa3;" 
d="M622 647l129.998 0.000976562c86.667 0 130 -30.667 130 -92c0 -41.333 -15.333 -73.666 -46 -96.999s-73.334 -35 -128.001 -35h-136c-27.333 -78 -68.666 -146.333 -123.999 -205h294c84.667 0 127 -29.667 127 -89c0 -40.667 -15 -72.334 -45 -95.001
s-71.333 -34 -124 -34h-441c-69.333 0 -116 7 -140 21s-36 41 -36 81c0 34.667 21.333 71 64 109c82.667 73.333 138 144 166 212h-14c-70 0 -105 30 -105 90c0 42 15.333 74.833 46 98.5s73.334 35.5 128.001 35.5h15l1 20c2.66699 40 4 67 4 81l2 81
c0 122 34.167 221.333 102.5 298s157.5 115 267.5 115c100.667 0 181.834 -28.5 243.501 -85.5s92.5 -132.167 92.5 -225.5c0 -71.333 -16.167 -130.5 -48.5 -177.5s-73.166 -70.5 -122.499 -70.5c-30.667 0 -57.167 10.5 -79.5 31.5s-33.5 45.833 -33.5 74.5
c0 18 6.33301 44.333 19 79c9.33301 25.333 14 44.666 14 57.999c0 25.333 -7.83301 46.166 -23.5 62.499s-35.834 24.5 -60.501 24.5c-41.333 0 -73.833 -17.167 -97.5 -51.5s-35.5 -81.166 -35.5 -140.499c0 -48 -1.66699 -98.667 -5 -152z" />
    <glyph glyph-name="currency" unicode="&#xa4;" horiz-adv-x="860" 
d="M805 917l76.001 54.001l11 8c10.667 7.33301 23 11 37 11c23.333 0 44.666 -8.83301 63.999 -26.5s29 -37.167 29 -58.5c0 -26.667 -10 -47 -30 -61l-82 -59c14 -38.667 21 -79 21 -121c0 -59.333 -16.333 -124 -49 -194l49 -57l9 -10c10 -11.333 15 -25 15 -41
c0 -26 -8.33301 -48.5 -25 -67.5s-36.667 -28.5 -60 -28.5c-22.667 0 -41.667 8.66699 -57 26l-35 41c-35.333 -27.333 -69 -45.666 -101 -54.999s-79 -14 -141 -14c-64.667 0 -109 2.33301 -133 7s-48 15.667 -72 33l-64 -46l-11 -7c-10.667 -7.33301 -23 -11 -37 -11
c-24 0 -45.5 8.66699 -64.5 26s-28.5 36.666 -28.5 57.999c0 27.333 10.667 48.666 32 63.999l75 53c-11.333 36 -17 70.333 -17 103c0 69.333 19.667 139.333 59 210l-54 63l-9 9c-10 12 -15 26 -15 42c0 26 8.5 48.5 25.5 67.5s36.833 28.5 59.5 28.5s41 -8 55 -24l50 -57
c74 54.667 153.333 82 238 82c64 0 124 -16 180 -48zM608.001 777.001c-44.667 0 -85.668 -21.999 -123.001 -65.999s-56 -92.333 -56 -145c0 -74 41 -111 123 -111c46.667 0 82.334 14 107.001 42c42 47.333 63 100.666 63 159.999c0 36 -10.5 65 -31.5 87
s-48.5 33 -82.5 33z" />
    <glyph glyph-name="yen" unicode="&#xa5;" 
d="M1015 886c57.333 -7.33301 85.998 -35.666 85.998 -84.999c0 -40.667 -15.167 -72.834 -45.5 -96.501s-72.166 -35.5 -125.499 -35.5h-86l-86 -109h10c83.333 0 125 -28.667 125 -86c0 -41.333 -15.167 -73.833 -45.5 -97.5s-72.166 -35.5 -125.499 -35.5h-92l-91 -222
c-37.333 -88.667 -90 -133 -158 -133c-28 0 -52 8.66699 -72 26s-30 38.666 -30 63.999c0 20 5 42.667 15 68l11 27l69 170h-22c-83.333 0 -125 28.667 -125 86c0 42 15.167 74.667 45.5 98s72.166 35 125.499 35h57v109h-45c-83.333 0 -125 28.667 -125 86
c0 40.667 15 72.834 45 96.501s71 35.5 123 35.5v176l-1 19l20 79c28.667 45.333 68.334 68 119.001 68c64 0 96 -39.333 96 -118l-1 -26v-269l231 316l18 26c38.667 56 82 84 130 84c32 0 57.833 -9.83301 77.5 -29.5s29.5 -45.167 29.5 -76.5
c0 -33.333 -20 -75.333 -60 -126z" />
    <glyph glyph-name="brokenbar" unicode="&#xa6;" horiz-adv-x="1024" 
d="M386 1365h253v-706h-253v706zM386 314h253v-655h-253v655z" />
    <glyph glyph-name="section" unicode="&#xa7;" horiz-adv-x="1161" 
d="M696 166c18 -56.667 26.998 -105.665 26.998 -146.998c0 -79.333 -30.5 -147.833 -91.5 -205.5s-133.167 -86.5 -216.5 -86.5h-265c-88 0 -132 30.667 -132 92c0 44 15.333 78 46 102s74 36 130 36h203c26.667 0 48.334 7 65.001 21s25 32.333 25 55c0 16 -4 33 -12 51
l-180 415l-14 32c-25.333 56 -38 109.333 -38 160c0 73.333 28.333 136.5 85 189.5s124 79.5 202 79.5h69c-27.333 61.333 -41 115.666 -41 162.999c0 77.333 27.667 142.666 83 195.999s123 80 203 80h232c50 0 85.5 -7.33301 106.5 -22s31.5 -39 31.5 -73
c0 -42.667 -16 -76.334 -48 -101.001s-75.333 -37 -130 -37h-130l-25 -1c-54 0 -81 -18.667 -81 -56c0 -14 5.66699 -33.667 17 -59l165 -372c37.333 -83.333 56 -156.666 56 -219.999c0 -78.667 -30.667 -147 -92 -205s-133.666 -87 -216.999 -87h-33zM597.998 396.002h113
c26.667 0 48.5 7 65.5 21s25.5 32.333 25.5 55c0 14.667 -4.33301 31.667 -13 51l-88 204h-109l-25 -1c-54.667 0 -82 -18.333 -82 -55c0 -13.333 6 -33.333 18 -60z" />
    <glyph glyph-name="dieresis" unicode="&#xa8;" horiz-adv-x="1024" 
d="M894 1123c37.333 0 69.166 -13.167 95.499 -39.5s39.5 -58.166 39.5 -95.499c0 -38 -13.167 -70.167 -39.5 -96.5s-58.166 -39.5 -95.499 -39.5c-38 0 -70.167 13.167 -96.5 39.5s-39.5 58.5 -39.5 96.5c0 37.333 13.167 69.166 39.5 95.499s58.5 39.5 96.5 39.5z
M512 1123c38 0 70.167 -13.167 96.5 -39.5s39.5 -58.166 39.5 -95.499c0 -38 -13.167 -70.167 -39.5 -96.5s-58.5 -39.5 -96.5 -39.5c-37.333 0 -69.166 13.167 -95.499 39.5s-39.5 58.5 -39.5 96.5c0 37.333 13.167 69.166 39.5 95.499s58.166 39.5 95.499 39.5z" />
    <glyph glyph-name="copyright" unicode="&#xa9;" horiz-adv-x="1493" 
d="M815 732c-39.333 -70 -59 -135.999 -59 -197.999c0 -42.667 9.5 -72.834 28.5 -90.501s50.833 -26.5 95.5 -26.5h196c49.333 0 74 -17.667 74 -53c0 -52 -32 -78 -96 -78h-207c-74 0 -132.167 20.833 -174.5 62.5s-63.5 98.5 -63.5 170.5c0 63.333 17.333 134.333 52 213
h-12h-12c-41.333 0 -62 18 -62 54c0 22 8 40.333 24 55s35.667 22 59 22h13h62c40.667 66.667 89.167 119.5 145.5 158.5s112.5 58.5 168.5 58.5c48.667 0 89 -15.167 121 -45.5s48 -68.5 48 -114.5c0 -125.333 -95 -188 -285 -188h-116zM897 863.001h72
c70.667 0 106 17.667 106 53c0 23.333 -14.667 35 -44 35c-36 0 -80.667 -29.333 -134 -88zM1038 1379c170.667 0 311.333 -54.3311 422 -162.998s166 -246.667 166 -414c0 -126 -28.833 -251.333 -86.5 -376s-133.167 -224.334 -226.5 -299.001
c-61.333 -48.667 -124.833 -82 -190.5 -100s-157.167 -27 -274.5 -27c-120.667 0 -205.5 4.33301 -254.5 13s-94.5 27.667 -136.5 57c-72.667 50 -130.334 118 -173.001 204s-64 178 -64 276c0 93.333 18.333 188.166 55 284.499s87.334 182.5 152.001 258.5
c162 190.667 365.667 286 611 286zM1016 1259c-199.333 0 -364.666 -78.6689 -495.999 -236.002c-112 -134 -168 -283 -168 -447c0 -81.333 17.167 -157.666 51.5 -228.999s81.166 -127.666 140.499 -168.999c34.667 -24 71.834 -39.667 111.501 -47s108.5 -11 206.5 -11
c95.333 0 169.666 7.5 222.999 22.5s105 42.5 155 82.5c76 62 137.333 144.167 184 246.5s70 205.833 70 310.5c0 138 -45 252 -135 342s-204.333 135 -343 135z" />
    <glyph glyph-name="ordfeminine" unicode="&#xaa;" horiz-adv-x="765" 
d="M768 845l68.002 -0.000976562h17c48.667 0 73 -22 73 -66c0 -32 -11.333 -57.167 -34 -75.5s-53.667 -27.5 -93 -27.5h-88c-29.333 0 -49.333 6.33301 -60 19l-14 15c-0.666992 1.33301 -3 4 -7 8c-30.667 -28 -63 -42 -97 -42h-81c-48 0 -87.333 18.833 -118 56.5
s-46 86.167 -46 145.5c0 93.333 32 177.5 96 252.5s135.667 112.5 215 112.5c57.333 0 98.666 -19 123.999 -57c23.333 31.333 53.666 47 90.999 47c48.667 0 73 -24 73 -72c0 -15.333 -6.33301 -38.666 -19 -69.999zM515.002 840.999h26c26 0 43.333 11 52 33l54 131l4 11
c4 8.66699 6 17.334 6 26.001c0 11.333 -5.5 21.5 -16.5 30.5s-23.5 13.5 -37.5 13.5c-32.667 0 -64 -19.333 -94 -58s-45 -79.334 -45 -122.001c0 -43.333 17 -65 51 -65zM266.002 573.999h445c68 0 102 -25.333 102 -76c0 -51.333 -34 -77 -102 -77h-445h-17
c-25.333 0 -45.833 7.16699 -61.5 21.5s-23.5 32.833 -23.5 55.5c0 50.667 28.333 76 85 76h17z" />
    <glyph glyph-name="guillemotleft" unicode="&#xab;" horiz-adv-x="893" 
d="M405 427l54 -142.999c10 -27.333 15 -49 15 -65c0 -27.333 -10.667 -52 -32 -74s-45 -33 -71 -33c-34 0 -58.333 19.333 -73 58l-7 18l-54 144l-19 48c-8.66699 22.667 -13 42 -13 58c0 24.667 14 56.667 42 96l85 117c38.667 53.333 76 80 112 80
c22.667 0 42.167 -8.33301 58.5 -25s24.5 -36.667 24.5 -60c0 -28.667 -14.667 -64.334 -44 -107.001zM704 427.001l54 -142.999c10 -27.333 15 -49 15 -65c0 -27.333 -10.667 -52 -32 -74s-45 -33 -71 -33c-34 0 -58.333 19.333 -73 58l-7 18l-54 144l-19 48
c-8.66699 22.667 -13 42 -13 58c0 24.667 14 56.667 42 96l85 117c38.667 53.333 76 80 112 80c22.667 0 42.167 -8.33301 58.5 -25s24.5 -36.667 24.5 -60c0 -28.667 -14.667 -64.334 -44 -107.001z" />
    <glyph glyph-name="logicalnot" unicode="&#xac;" horiz-adv-x="1024" 
d="M702 0v310h-634v236h887v-546h-253z" />
    <glyph glyph-name="registered" unicode="&#xae;" horiz-adv-x="1493" 
d="M1023 687l94.001 -223c11.333 -26.667 29.666 -40 54.999 -40h8c47.333 0 71 -18.333 71 -55c0 -50 -31.667 -75 -95 -75h-21c-63.333 0 -107.333 30 -132 90l-126 303l-131 -324c-20.667 -50 -50.334 -75 -89.001 -75c-17.333 0 -32.166 5.5 -44.499 16.5
s-18.5 24.5 -18.5 40.5c0 11.333 3 24 9 38l5 13l223 551h-34c-49.333 0 -74 18.667 -74 56c0 50 32 75 96 75h155c137.333 0 206 -57.667 206 -173c0 -50 -14.833 -95.333 -44.5 -136s-67.167 -68 -112.5 -82zM920.001 792c79.333 4.66699 119 38 119 100
c0 36.667 -18.667 55 -56 55zM1038 1379c170.667 0 311.333 -54.3311 422 -162.998s166 -246.667 166 -414c0 -126 -28.833 -251.333 -86.5 -376s-133.167 -224.334 -226.5 -299.001c-61.333 -48.667 -124.833 -82 -190.5 -100s-157.167 -27 -274.5 -27
c-120.667 0 -205.5 4.33301 -254.5 13s-94.5 27.667 -136.5 57c-72.667 50 -130.334 118 -173.001 204s-64 178 -64 276c0 93.333 18.333 188.166 55 284.499s87.334 182.5 152.001 258.5c162 190.667 365.667 286 611 286zM1016 1259
c-199.333 0 -364.666 -78.6689 -495.999 -236.002c-112 -134 -168 -283 -168 -447c0 -81.333 17.167 -157.666 51.5 -228.999s81.166 -127.666 140.499 -168.999c34.667 -24 71.834 -39.667 111.501 -47s108.5 -11 206.5 -11c95.333 0 169.666 7.5 222.999 22.5
s105 42.5 155 82.5c76 62 137.333 144.167 184 246.5s70 205.833 70 310.5c0 138 -45 252 -135 342s-204.333 135 -343 135z" />
    <glyph glyph-name="degree" unicode="&#xb0;" horiz-adv-x="735" 
d="M600 1379c86 0 159.5 -29.833 220.5 -89.5s91.5 -131.5 91.5 -215.5c0 -85.333 -30.5 -158.166 -91.5 -218.499s-134.5 -90.5 -220.5 -90.5c-86.667 0 -160.5 30.167 -221.5 90.5s-91.5 133.166 -91.5 218.499c0 84 30.5 155.833 91.5 215.5s134.833 89.5 221.5 89.5z
M600 1231c-44.667 0 -82.667 -15.5 -114 -46.5s-47 -68.167 -47 -111.5c0 -44 15.667 -81.667 47 -113s69.333 -47 114 -47s82.667 15.667 114 47s47 69 47 113c0 43.333 -15.833 80.5 -47.5 111.5s-69.5 46.5 -113.5 46.5z" />
    <glyph glyph-name="plusminus" unicode="&#xb1;" 
d="M621 853l73.0029 178c32 77.333 78.333 116 139 116c28.667 0 52.5 -8.16699 71.5 -24.5s28.5 -36.5 28.5 -60.5c0 -16 -7 -40.667 -21 -74l-55 -135h157c84 0 126 -27.667 126 -83c0 -38 -14.833 -67.833 -44.5 -89.5s-70.834 -32.5 -123.501 -32.5h-199l-73 -178
c-32 -77.333 -78.333 -116 -139 -116c-28.667 0 -52.834 8.33301 -72.501 25s-28.834 36.667 -27.501 60c0.666992 18 7.66699 42.667 21 74l55 135h-158c-84 0 -126 27.667 -126 83c0 38 15 67.833 45 89.5s71.333 32.5 124 32.5h199zM193.003 287h593.001
c84 0 126 -27.667 126 -83c0 -38 -14.833 -67.833 -44.5 -89.5s-70.834 -32.5 -123.501 -32.5h-593c-84 0 -126 27.667 -126 83c0 38 15 67.833 45 89.5s71 32.5 123 32.5z" />
    <glyph glyph-name="twosuperior" unicode="&#xb2;" horiz-adv-x="617" 
d="M503 635l169.001 -0.000976562c55.333 0 83 -19 83 -57c0 -27.333 -10 -48.666 -30 -63.999s-47.667 -23 -83 -23h-303c-58 0 -87 24 -87 72c0 24 10.667 47 32 69l337 339c17.333 17.333 26 35.333 26 54c0 18 -7.33301 33.5 -22 46.5s-31.667 19.5 -51 19.5
c-45.333 0 -68 -20.667 -68 -62c0 -14 4.66699 -29.667 14 -47c8.66699 -16 13 -30.333 13 -43c0 -22 -7.5 -40.167 -22.5 -54.5s-34.167 -21.5 -57.5 -21.5c-31.333 0 -58 14.667 -80 44s-33 64.666 -33 105.999c0 64 23.667 117.5 71 160.5s105.666 64.5 174.999 64.5
c66.667 0 121.667 -19.167 165 -57.5s65 -87.166 65 -146.499c0 -58 -22 -109 -66 -153z" />
    <glyph glyph-name="threesuperior" unicode="&#xb3;" horiz-adv-x="617" 
d="M693 944c62.667 -40.667 94 -96.666 94 -167.999c0 -84 -28 -154.5 -84 -211.5s-125.333 -85.5 -208 -85.5c-68 0 -123.667 18.167 -167 54.5s-65 83.166 -65 140.499c0 43.333 11 80 33 110s49 45 81 45c18.667 0 34.834 -6.16699 48.501 -18.5
s20.5 -27.166 20.5 -44.499c0 -10 -1.66699 -20.667 -5 -32l-4 -14c-4.66699 -16.667 -7 -28.667 -7 -36c0 -40 23.333 -60 70 -60c31.333 0 59.166 14.833 83.499 44.5s36.5 63.5 36.5 101.5c0 45.333 -24.333 76 -73 92c-36.667 11.333 -55 31.666 -55 60.999
c0 18.667 7 36 21 52l13 13l91 99h-128c-55.333 0 -83 19 -83 57c0 24 9.5 44.333 28.5 61s42.167 25 69.5 25h15h236c68 0 102 -25 102 -75c0 -24.667 -8.66699 -46 -26 -64z" />
    <glyph glyph-name="acute" unicode="&#xb4;" horiz-adv-x="1024" 
d="M846 973l-123.001 -97c-29.333 -23.333 -54.666 -35 -75.999 -35c-18 0 -34 6.83301 -48 20.5s-21 29.5 -21 47.5c0 7.33301 1.33301 14.333 4 21l8 20l38 100c16.667 44 47.667 66 93 66h58c67.333 0 101 -26.333 101 -79c0 -24.667 -11.333 -46 -34 -64z" />
    <glyph glyph-name="mu" unicode="&#xb5;" horiz-adv-x="985" 
d="M228 0l-39.998 -160c-10.667 -40 -31 -73.333 -61 -100s-63 -40 -99 -40c-28 0 -52.167 9.33301 -72.5 28s-30.5 41 -30.5 67c0 20.667 9 53 27 97l304 748c37.333 92.667 89 139 155 139c28.667 0 53 -9.16699 73 -27.5s30 -40.833 30 -67.5
c0 -21.333 -8.66699 -53.333 -26 -96l-105 -257l-12 -30c-6 -16.667 -9.33301 -29.667 -10 -39c-1.33301 -30 18 -45 58 -45c83.333 0 138.333 33.333 165 100l125 308c38 93.333 91 140 159 140c28 0 52 -9.33301 72 -28s30 -41 30 -67c0 -20 -5.33301 -43 -16 -69l-11 -27
l-144 -356h116c45.333 0 77.666 -6.83301 96.999 -20.5s29 -36.167 29 -67.5c0 -40.667 -14.833 -72.5 -44.5 -95.5s-70.834 -34.5 -123.501 -34.5h-179c-56.667 0 -94 21.667 -112 65c-36.667 -43.333 -82.667 -65 -138 -65h-216z" />
    <glyph glyph-name="paragraph" unicode="&#xb6;" 
d="M1137 1160l-551 -1363c-30 -74.667 -72.333 -112 -127 -112c-22.667 0 -42 7.5 -58 22.5s-24 32.833 -24 53.5c0 17.333 7 43.333 21 78l534 1321h-82l-551 -1363c-30 -74.667 -72.333 -112 -127 -112c-22.667 0 -42 7.33301 -58 22s-24 32.667 -24 54
c0 16 4.33301 34.667 13 56l8 22l355 877c-146 12.667 -219 103 -219 271c0 137.333 48.667 246.333 146 327c67.333 56.667 173 85 317 85h522c92 0 138 -32 138 -96c0 -45.333 -16.167 -80.5 -48.5 -105.5s-77.5 -37.5 -135.5 -37.5h-49z" />
    <glyph glyph-name="cedilla" unicode="&#xb8;" horiz-adv-x="1024" 
d="M621 -88c12 3.33301 23.667 5 35 5c45.333 0 84.666 -19 117.999 -57s50 -82.667 50 -134c0 -64 -20.833 -116.333 -62.5 -157s-95.5 -61 -161.5 -61h-121c-54.667 0 -82 17.667 -82 53c0 59.333 36.333 89 109 89h75c56.667 0 85 24.333 85 73c0 44.667 -21 67 -63 67
c-20 0 -38.667 -6 -56 -18c-20.667 -14 -40.667 -21 -60 -21c-36.667 0 -55 18 -55 54c0 16.667 6 35.667 18 57l85 155c20.667 37.333 47.334 56 80.001 56c38.667 0 58 -18 58 -54c0 -16 -7.33301 -35.667 -22 -59z" />
    <glyph glyph-name="onesuperior" unicode="&#xb9;" horiz-adv-x="617" 
d="M591 1085l-35 0.000976562c-56 0 -84 19.333 -84 58c0 27.333 10 48.666 30 63.999s47.667 23 83 23h122c52.667 0 79 -20.667 79 -62c0 -11.333 -3.33301 -25 -10 -41l-225 -555c-24 -59.333 -59 -89 -105 -89c-44.667 0 -67 21 -67 63c0 12 3 25.333 9 40l7 16z" />
    <glyph glyph-name="ordmasculine" unicode="&#xba;" horiz-adv-x="737" 
d="M698 1242c68.667 0 124.501 -21.335 167.501 -64.002s64.5 -97.667 64.5 -165c0 -52.667 -11.833 -105.167 -35.5 -157.5s-54.834 -94.166 -93.501 -125.499c-42.667 -36 -109 -54 -199 -54c-66 0 -112.333 9.66699 -139 29c-59.333 42.667 -89 105.667 -89 189
c0 92.667 32.5 173.834 97.5 243.501s140.5 104.5 226.5 104.5zM679.001 1077c-32 0 -61.001 -16.667 -87.001 -50s-39 -70.333 -39 -111c0 -48.667 27 -73 81 -73c34.667 0 63.334 14.5 86.001 43.5s34 65.5 34 109.5c0 54 -25 81 -75 81zM252 573.998h445
c68 0 102 -25.333 102 -76c0 -51.333 -34 -77 -102 -77h-445h-17c-25.333 0 -45.833 7.16699 -61.5 21.5s-23.5 32.833 -23.5 55.5c0 50.667 28.333 76 85 76h17z" />
    <glyph glyph-name="guillemotright" unicode="&#xbb;" horiz-adv-x="893" 
d="M327 416l-53.001 143c-10.667 28 -16 49.667 -16 65c0 27.333 10.667 52 32 74s45.333 33 72 33c33.333 0 57.333 -19.333 72 -58l7 -18l55 -144l18 -48c8.66699 -22.667 13 -42 13 -58c0 -25.333 -14 -57.333 -42 -96l-84 -117c-38.667 -53.333 -76 -80 -112 -80
c-23.333 0 -43.166 8.33301 -59.499 25s-24.5 36.667 -24.5 60c0 28 10 57 30 87l15 20zM625.999 416l-53.001 143c-10.667 28 -16 49.667 -16 65c0 27.333 10.667 52 32 74s45.333 33 72 33c33.333 0 57.333 -19.333 72 -58l7 -18l55 -144l18 -48
c8.66699 -22.667 13 -42 13 -58c0 -25.333 -14 -57.333 -42 -96l-84 -117c-38.667 -53.333 -76 -80 -112 -80c-23.333 0 -43.166 8.33301 -59.499 25s-24.5 36.667 -24.5 60c0 28 10 57 30 87l15 20z" />
    <glyph glyph-name="onequarter" unicode="&#xbc;" horiz-adv-x="1599" 
d="M591 1085l-35 0.000976562c-56 0 -84 19.333 -84 58c0 27.333 10 48.666 30 63.999s47.667 23 83 23h122c52.667 0 79 -20.667 79 -62c0 -11.333 -3.33301 -25 -10 -41l-225 -555c-24 -59.333 -59 -89 -105 -89c-44.667 0 -67 21 -67 63c0 12 3 25.333 9 40l7 16z
M602 43.001l587 1186c16.667 33.333 43 50 79 50c36.667 0 54.334 -13.667 53.001 -41c-0.666992 -10 -4.66699 -22.667 -12 -38l-587 -1186c-16.667 -32.667 -43.334 -49 -80.001 -49c-35.333 0 -53 13.333 -53 40c0 7.33301 4.33301 20 13 38zM1502 296.001
l26.999 -0.00195312c55.333 0 83 -19 83 -57c0 -27.333 -10 -48.666 -30 -63.999s-47.667 -23 -83 -23h-56l-28 -71c-24.667 -59.333 -60 -89 -106 -89c-45.333 0 -68 21 -68 63c0 12 3 25.667 9 41l7 16l16 40h-119c-78.667 0 -118 31.333 -118 94c0 28.667 10 54 30 76
l23 24l300 315c54.667 57.333 104.334 86 149.001 86c28 0 51.5 -8.66699 70.5 -26s28.5 -38.666 28.5 -63.999c0 -18.667 -6 -43 -18 -73zM1332 295.999l103 232l-212 -232h109z" />
    <glyph glyph-name="onehalf" unicode="&#xbd;" horiz-adv-x="1599" 
d="M591 1085l-35 0.000976562c-56 0 -84 19.333 -84 58c0 27.333 10 48.666 30 63.999s47.667 23 83 23h122c52.667 0 79 -20.667 79 -62c0 -11.333 -3.33301 -25 -10 -41l-225 -555c-24 -59.333 -59 -89 -105 -89c-44.667 0 -67 21 -67 63c0 12 3 25.333 9 40l7 16z
M602 43.001l587 1186c16.667 33.333 43 50 79 50c36.667 0 54.334 -13.667 53.001 -41c-0.666992 -10 -4.66699 -22.667 -12 -38l-587 -1186c-16.667 -32.667 -43.334 -49 -80.001 -49c-35.333 0 -53 13.333 -53 40c0 7.33301 4.33301 20 13 38zM1286 144.001
l168.999 -0.000976562c55.333 0 83 -19 83 -57c0 -27.333 -10 -48.666 -30 -63.999s-47.667 -23 -83 -23h-302c-58.667 0 -88 24 -88 72c0 23.333 11 46.333 33 69l337 339c16.667 17.333 25 35.333 25 54c0 18 -7.16699 33.5 -21.5 46.5s-31.166 19.5 -50.499 19.5
c-45.333 0 -68 -20.667 -68 -62c0 -13.333 4.33301 -29 13 -47c8.66699 -16.667 13 -31 13 -43c0 -22 -7.5 -40.167 -22.5 -54.5s-33.833 -21.5 -56.5 -21.5c-31.333 0 -58 14.667 -80 44s-33 64.666 -33 105.999c0 64 23.5 117.5 70.5 160.5s105.5 64.5 175.5 64.5
c66 0 120.667 -19.167 164 -57.5s65 -87.166 65 -146.499c0 -58 -22 -109 -66 -153z" />
    <glyph glyph-name="threequarters" unicode="&#xbe;" horiz-adv-x="1599" 
d="M693 944c62.667 -40.667 94 -96.666 94 -167.999c0 -84 -28 -154.5 -84 -211.5s-125.333 -85.5 -208 -85.5c-68 0 -123.667 18.167 -167 54.5s-65 83.166 -65 140.499c0 43.333 11 80 33 110s49 45 81 45c18.667 0 34.834 -6.16699 48.501 -18.5
s20.5 -27.166 20.5 -44.499c0 -10 -1.66699 -20.667 -5 -32l-4 -14c-4.66699 -16.667 -7 -28.667 -7 -36c0 -40 23.333 -60 70 -60c31.333 0 59.166 14.833 83.499 44.5s36.5 63.5 36.5 101.5c0 45.333 -24.333 76 -73 92c-36.667 11.333 -55 31.666 -55 60.999
c0 18.667 7 36 21 52l13 13l91 99h-128c-55.333 0 -83 19 -83 57c0 24 9.5 44.333 28.5 61s42.167 25 69.5 25h15h236c68 0 102 -25 102 -75c0 -24.667 -8.66699 -46 -26 -64zM603 43.001l587.001 1186c16.667 33.333 43 50 79 50c35.333 0 53 -13.667 53 -41
c0 -8.66699 -4 -21.334 -12 -38.001l-587 -1186c-16.667 -32.667 -43.334 -49 -80.001 -49c-35.333 0 -53 13.333 -53 40c0 8 4.33301 20.667 13 38zM1502 296.002l27.999 -0.000976562c55.333 0 83 -19 83 -57c0 -27.333 -10 -48.666 -30 -63.999s-47.667 -23 -83 -23h-56
l-29 -71c-24 -59.333 -59 -89 -105 -89c-45.333 0 -68 21 -68 63c0 12 3 25.667 9 41l7 16l16 40h-119c-36 0 -64.667 8.5 -86 25.5s-32 39.833 -32 68.5c0 29.333 10 54.666 30 75.999l23 24l300 315c54.667 57.333 104.334 86 149.001 86c28 0 51.5 -8.66699 70.5 -26
s28.5 -38.666 28.5 -63.999c0 -18 -6.33301 -42.333 -19 -73zM1333 296.001l103 232l-212 -232h109z" />
    <glyph glyph-name="questiondown" unicode="&#xbf;" horiz-adv-x="848" 
d="M579 779c38 0 70.667 -13.667 98 -41s41 -60 41 -98c0 -38.667 -13.667 -71.667 -41 -99s-60 -41 -98 -41c-38.667 0 -71.667 13.667 -99 41s-41 60.333 -41 99c0 38 13.667 70.667 41 98s60.333 41 99 41zM466 447c31.333 0 57.334 -10.4971 78.001 -31.4971
s31 -46.833 31 -77.5c0 -92 -77 -207.667 -231 -347c-63.333 -56.667 -102.833 -95.5 -118.5 -116.5s-23.5 -44.167 -23.5 -69.5c0 -30 11.667 -55.667 35 -77s51 -32 83 -32c37.333 0 69.666 12.5 96.999 37.5s41 54.167 41 87.5c0 12.667 -6 39 -18 79
c-7.33301 23.333 -11 43.333 -11 60c0 29.333 10.167 54.166 30.5 74.499s44.833 30.5 73.5 30.5c48 0 87.667 -21.167 119 -63.5s47 -95.5 47 -159.5c0 -108 -37.667 -197.167 -113 -267.5s-171.333 -105.5 -288 -105.5c-99.333 0 -182.333 30.667 -249 92
s-100 137.333 -100 228c0 62 14.333 117.167 43 165.5s78 101.166 148 158.499c114.667 93.333 178 153.666 190 180.999l40 88c19.333 43.333 51.333 65 96 65z" />
    <glyph glyph-name="Agrave" unicode="&#xc0;" horiz-adv-x="2138" 
d="M1613 512h-277.002l-331 -573c-156 -271.333 -341 -407 -555 -407c-131.333 0 -241.5 47.167 -330.5 141.5s-133.5 211.166 -133.5 350.499c0 113.333 34.333 222.5 103 327.5s162.334 192.167 281.001 261.5c88.667 50.667 187 86.334 295 107.001s251.667 31 431 31h74
l79 145c110 202 244.333 336.667 403 404c102 43.333 235.333 65 400 65c42 0 75 -9.33301 99 -28s36 -44.667 36 -78c0 -15.333 -4 -33.333 -12 -54l-9 -23l-172 -431h76h26c74.667 0 112 -32.333 112 -97c0 -39.333 -15.333 -72.833 -46 -100.5s-68 -41.5 -112 -41.5h-27
h-126l-111 -273h163h26c74.667 0 112 -32 112 -96c0 -40 -15.333 -73.833 -46 -101.5s-68 -41.5 -112 -41.5h-27h-214c-57.333 -0 -104.166 14.833 -140.499 44.5s-54.5 68.167 -54.5 115.5c0 36.667 13.667 88.667 41 156zM1711 751l144 355
c-70.667 -4.66699 -130.167 -27.167 -178.5 -67.5s-103.5 -113.5 -165.5 -219.5l-41 -68h241zM1033 512h-85.001c-190.667 0 -342 -35.333 -454 -106c-71.333 -45.333 -128.166 -102 -170.499 -170s-63.5 -136.667 -63.5 -206c0 -63.333 20.333 -117.5 61 -162.5
s90 -67.5 148 -67.5c100.667 0 189.667 66.667 267 200zM2030 1659l42 -96.001c8.66699 -20 13 -38 13 -54c0 -18.667 -6.83301 -34.667 -20.5 -48s-29.834 -20 -48.501 -20c-21.333 0 -43.666 8.66699 -66.999 26l-119 88c-38 28.667 -57 57.334 -57 86.001
c0 22.667 7.83301 41.5 23.5 56.5s35.167 22.5 58.5 22.5h74c50 0 83.667 -20.333 101 -61z" />
    <glyph glyph-name="Aacute" unicode="&#xc1;" horiz-adv-x="2138" 
d="M1613 512h-277.002l-331 -573c-156 -271.333 -341 -407 -555 -407c-131.333 0 -241.5 47.167 -330.5 141.5s-133.5 211.166 -133.5 350.499c0 113.333 34.333 222.5 103 327.5s162.334 192.167 281.001 261.5c88.667 50.667 187 86.334 295 107.001s251.667 31 431 31h74
l79 145c110 202 244.333 336.667 403 404c102 43.333 235.333 65 400 65c42 0 75 -9.33301 99 -28s36 -44.667 36 -78c0 -15.333 -4 -33.333 -12 -54l-9 -23l-172 -431h76h26c74.667 0 112 -32.333 112 -97c0 -39.333 -15.333 -72.833 -46 -100.5s-68 -41.5 -112 -41.5h-27
h-126l-111 -273h163h26c74.667 0 112 -32 112 -96c0 -40 -15.333 -73.833 -46 -101.5s-68 -41.5 -112 -41.5h-27h-214c-57.333 -0 -104.166 14.833 -140.499 44.5s-54.5 68.167 -54.5 115.5c0 36.667 13.667 88.667 41 156zM1711 751l144 355
c-70.667 -4.66699 -130.167 -27.167 -178.5 -67.5s-103.5 -113.5 -165.5 -219.5l-41 -68h241zM1033 512h-85.001c-190.667 0 -342 -35.333 -454 -106c-71.333 -45.333 -128.166 -102 -170.499 -170s-63.5 -136.667 -63.5 -206c0 -63.333 20.333 -117.5 61 -162.5
s90 -67.5 148 -67.5c100.667 0 189.667 66.667 267 200zM2168 1575l-122.001 -97.001c-29.333 -23.333 -54.666 -35 -75.999 -35c-18 0 -34 6.83301 -48 20.5s-21 29.5 -21 47.5c0 7.33301 1.33301 14.333 4 21l8 20l37 100c16.667 44 48 66 94 66h57
c67.333 0 101 -26.333 101 -79c0 -25.333 -11.333 -46.666 -34 -63.999z" />
    <glyph glyph-name="Acircumflex" unicode="&#xc2;" horiz-adv-x="2138" 
d="M1613 512h-277.002l-331 -573c-156 -271.333 -341 -407 -555 -407c-131.333 0 -241.5 47.167 -330.5 141.5s-133.5 211.166 -133.5 350.499c0 113.333 34.333 222.5 103 327.5s162.334 192.167 281.001 261.5c88.667 50.667 187 86.334 295 107.001s251.667 31 431 31h74
l79 145c110 202 244.333 336.667 403 404c102 43.333 235.333 65 400 65c42 0 75 -9.33301 99 -28s36 -44.667 36 -78c0 -15.333 -4 -33.333 -12 -54l-9 -23l-172 -431h76h26c74.667 0 112 -32.333 112 -97c0 -39.333 -15.333 -72.833 -46 -100.5s-68 -41.5 -112 -41.5h-27
h-126l-111 -273h163h26c74.667 0 112 -32 112 -96c0 -40 -15.333 -73.833 -46 -101.5s-68 -41.5 -112 -41.5h-27h-214c-57.333 -0 -104.166 14.833 -140.499 44.5s-54.5 68.167 -54.5 115.5c0 36.667 13.667 88.667 41 156zM1711 751l144 355
c-70.667 -4.66699 -130.167 -27.167 -178.5 -67.5s-103.5 -113.5 -165.5 -219.5l-41 -68h241zM1033 512h-85.001c-190.667 0 -342 -35.333 -454 -106c-71.333 -45.333 -128.166 -102 -170.499 -170s-63.5 -136.667 -63.5 -206c0 -63.333 20.333 -117.5 61 -162.5
s90 -67.5 148 -67.5c100.667 0 189.667 66.667 267 200zM1973 1529l-119.002 -64.999c-36 -20 -63.667 -30 -83 -30c-21.333 0 -40.166 8.16699 -56.499 24.5s-24.5 35.833 -24.5 58.5c0 39.333 28.333 74 85 104l117 63c38.667 20.667 71.667 31 99 31
c16.667 0 34.334 -7.66699 53.001 -23c7.33301 -6.66699 14.333 -12.334 21 -17.001l81 -67c34 -28 51 -58 51 -90c0 -24 -8.16699 -43.833 -24.5 -59.5s-36.5 -23.5 -60.5 -23.5c-22 0 -48.667 14 -80 42z" />
    <glyph glyph-name="Atilde" unicode="&#xc3;" horiz-adv-x="2138" 
d="M1613 512h-277.002l-331 -573c-156 -271.333 -341 -407 -555 -407c-131.333 0 -241.5 47.167 -330.5 141.5s-133.5 211.166 -133.5 350.499c0 113.333 34.333 222.5 103 327.5s162.334 192.167 281.001 261.5c88.667 50.667 187 86.334 295 107.001s251.667 31 431 31h74
l79 145c110 202 244.333 336.667 403 404c102 43.333 235.333 65 400 65c42 0 75 -9.33301 99 -28s36 -44.667 36 -78c0 -15.333 -4 -33.333 -12 -54l-9 -23l-172 -431h76h26c74.667 0 112 -32.333 112 -97c0 -39.333 -15.333 -72.833 -46 -100.5s-68 -41.5 -112 -41.5h-27
h-126l-111 -273h163h26c74.667 0 112 -32 112 -96c0 -40 -15.333 -73.833 -46 -101.5s-68 -41.5 -112 -41.5h-27h-214c-57.333 -0 -104.166 14.833 -140.499 44.5s-54.5 68.167 -54.5 115.5c0 36.667 13.667 88.667 41 156zM1711 751l144 355
c-70.667 -4.66699 -130.167 -27.167 -178.5 -67.5s-103.5 -113.5 -165.5 -219.5l-41 -68h241zM1033 512h-85.001c-190.667 0 -342 -35.333 -454 -106c-71.333 -45.333 -128.166 -102 -170.499 -170s-63.5 -136.667 -63.5 -206c0 -63.333 20.333 -117.5 61 -162.5
s90 -67.5 148 -67.5c100.667 0 189.667 66.667 267 200zM1788 1595l38.999 50c30 38 66.333 57 109 57c24 0 53 -11.333 87 -34l32 -21c8.66699 -6 16.334 -9 23.001 -9c8 0 16.333 4.33301 25 13l23 24c14 14 31 21 51 21c25.333 0 47 -7.83301 65 -23.5s27 -34.5 27 -56.5
c0 -26.667 -9.66699 -51 -29 -73l-57 -65c-26.667 -30 -58 -45 -94 -45c-31.333 0 -64 14 -98 42c-19.333 16 -32.333 24 -39 24c-8.66699 0 -19.667 -6.33301 -33 -19c-27.333 -26.667 -56.333 -40 -87 -40c-22 0 -40.5 7.66699 -55.5 23s-22.5 34.333 -22.5 57
c0 22 11.333 47 34 75z" />
    <glyph glyph-name="Adieresis" unicode="&#xc4;" horiz-adv-x="2138" 
d="M1613 512h-277.002l-331 -573c-156 -271.333 -341 -407 -555 -407c-131.333 0 -241.5 47.167 -330.5 141.5s-133.5 211.166 -133.5 350.499c0 113.333 34.333 222.5 103 327.5s162.334 192.167 281.001 261.5c88.667 50.667 187 86.334 295 107.001s251.667 31 431 31h74
l79 145c110 202 244.333 336.667 403 404c102 43.333 235.333 65 400 65c42 0 75 -9.33301 99 -28s36 -44.667 36 -78c0 -15.333 -4 -33.333 -12 -54l-9 -23l-172 -431h76h26c74.667 0 112 -32.333 112 -97c0 -39.333 -15.333 -72.833 -46 -100.5s-68 -41.5 -112 -41.5h-27
h-126l-111 -273h163h26c74.667 0 112 -32 112 -96c0 -40 -15.333 -73.833 -46 -101.5s-68 -41.5 -112 -41.5h-27h-214c-57.333 -0 -104.166 14.833 -140.499 44.5s-54.5 68.167 -54.5 115.5c0 36.667 13.667 88.667 41 156zM1711 751l144 355
c-70.667 -4.66699 -130.167 -27.167 -178.5 -67.5s-103.5 -113.5 -165.5 -219.5l-41 -68h241zM1033 512h-85.001c-190.667 0 -342 -35.333 -454 -106c-71.333 -45.333 -128.166 -102 -170.499 -170s-63.5 -136.667 -63.5 -206c0 -63.333 20.333 -117.5 61 -162.5
s90 -67.5 148 -67.5c100.667 0 189.667 66.667 267 200zM2119 1710c38 0 70.168 -13.167 96.501 -39.5s39.5 -58.166 39.5 -95.499c0 -38 -13.167 -70.167 -39.5 -96.5s-58.5 -39.5 -96.5 -39.5c-37.333 0 -69.166 13.167 -95.5 39.5c-26.333 26.333 -39.5 58.5 -39.5 96.5
c0 37.333 13.167 69.166 39.5 95.499s58.166 39.5 95.499 39.5zM1711 1710c37.333 0 69.166 -13.167 95.499 -39.5s39.5 -58.166 39.5 -95.499c0 -38 -13.167 -70.167 -39.5 -96.5s-58.166 -39.5 -95.499 -39.5c-38 0 -70.167 13.167 -96.5 39.5s-39.5 58.5 -39.5 96.5
c0 37.333 13.167 69.166 39.5 95.499s58.5 39.5 96.5 39.5z" />
    <glyph glyph-name="Aring" unicode="&#xc5;" horiz-adv-x="2138" 
d="M1613 512h-277.002l-331 -573c-156 -271.333 -341 -407 -555 -407c-131.333 0 -241.5 47.167 -330.5 141.5s-133.5 211.166 -133.5 350.499c0 113.333 34.333 222.5 103 327.5s162.334 192.167 281.001 261.5c88.667 50.667 187 86.334 295 107.001s251.667 31 431 31h74
l79 145c110 202 244.333 336.667 403 404c102 43.333 235.333 65 400 65c42 0 75 -9.33301 99 -28s36 -44.667 36 -78c0 -15.333 -4 -33.333 -12 -54l-9 -23l-172 -431h76h26c74.667 0 112 -32.333 112 -97c0 -39.333 -15.333 -72.833 -46 -100.5s-68 -41.5 -112 -41.5h-27
h-126l-111 -273h163h26c74.667 0 112 -32 112 -96c0 -40 -15.333 -73.833 -46 -101.5s-68 -41.5 -112 -41.5h-27h-214c-57.333 -0 -104.166 14.833 -140.499 44.5s-54.5 68.167 -54.5 115.5c0 36.667 13.667 88.667 41 156zM1711 751l144 355
c-70.667 -4.66699 -130.167 -27.167 -178.5 -67.5s-103.5 -113.5 -165.5 -219.5l-41 -68h241zM1033 512h-85.001c-190.667 0 -342 -35.333 -454 -106c-71.333 -45.333 -128.166 -102 -170.499 -170s-63.5 -136.667 -63.5 -206c0 -63.333 20.333 -117.5 61 -162.5
s90 -67.5 148 -67.5c100.667 0 189.667 66.667 267 200zM2066 1791c48.667 0 90.335 -17.333 125.001 -52c34.667 -34.667 52 -76.334 52 -125.001c0 -49.333 -17.333 -91.333 -52 -126s-76.334 -52 -125.001 -52c-49.333 0 -91.333 17.333 -126 52s-52 76.667 -52 126
c0 48.667 17.333 90.334 52 125.001s76.667 52 126 52zM2065 1677c-18 0 -33.5 -6.5 -46.5 -19.5s-19.5 -28.5 -19.5 -46.5c0 -18.667 6.5 -34.5 19.5 -47.5s28.5 -19.5 46.5 -19.5c18.667 0 34.5 6.5 47.5 19.5s19.5 28.833 19.5 47.5c0 18 -6.5 33.5 -19.5 46.5
s-28.833 19.5 -47.5 19.5z" />
    <glyph glyph-name="AE" unicode="&#xc6;" horiz-adv-x="2507" 
d="M2239 1127l-148.998 -372.002h124c92 0 138 -34.333 138 -103c0 -41.333 -16.833 -74.666 -50.5 -99.999s-77.834 -38 -132.5 -38h-177l-223 -545h692c91.333 0 137 -31.667 137 -95c0 -46 -16.333 -82 -49 -108s-78 -39 -136 -39h-701l-38 1
c-60.667 0 -108.834 14.833 -144.501 44.5s-53.5 69.5 -53.5 119.5c0 33.333 7.33301 68.333 22 105l20 49l191 470h-276l-331 -572c-157.333 -272 -343.333 -408 -558 -408c-128.667 0 -237.834 47.833 -327.501 143.5s-134.5 211.834 -134.5 348.501
c0 110.667 34.667 219 104 325s163 193.667 281 263c88.667 52 185.5 88 290.5 108s249.5 30 433.5 30h74l79 147c77.333 142 170 252.667 278 332c120 88 291.667 132 515 132h60h514c49.333 0 85 -7.5 107 -22.5s33 -39.833 33 -74.5c0 -40 -15.167 -73.5 -45.5 -100.5
s-68.166 -40.5 -113.5 -40.5h-29h-424zM1806 753.998l144 355c-73.333 -6.66699 -133 -29.167 -179 -67.5s-100.333 -110.833 -163 -217.5l-41 -70h239zM1127 515.998h-83.0029c-82.667 0 -166.667 -10.167 -252 -30.5s-152.666 -45.833 -201.999 -76.5
c-71.333 -45.333 -127.833 -101.5 -169.5 -168.5s-62.5 -135.167 -62.5 -204.5c0 -64.667 20.5 -119.5 61.5 -164.5s90.833 -67.5 149.5 -67.5c68.667 0 134.334 36.333 197.001 109c32.667 38.667 55.334 68.667 68.001 90z" />
    <glyph glyph-name="Ccedilla" unicode="&#xc7;" horiz-adv-x="1180" 
d="M885 -273c-4 -12.667 -10.333 -25.999 -19 -39.999l-30 -48c12.667 3.33301 24.334 5 35.001 5c45.333 0 84.833 -19 118.5 -57s50.5 -82.667 50.5 -134c0 -64 -20.833 -116.333 -62.5 -157s-95.5 -61 -161.5 -61h-121c-55.333 0 -83 17.667 -83 53
c0 28 9.83301 49.833 29.5 65.5s46.5 23.5 80.5 23.5h74c57.333 0 86 24 86 72c0 45.333 -21.333 68 -64 68c-19.333 0 -38 -6 -56 -18c-20.667 -14 -40.667 -21 -60 -21c-36.667 0 -55 18 -55 54c0 16.667 6 36 18 58l76 137h-57c-96.667 0 -174 13.333 -232 40
c-80.667 37.333 -144 94.833 -190 172.5s-69 166.167 -69 265.5c0 133.333 40.667 292.666 122 477.999h-56h-26c-74.667 0 -112 32 -112 96c0 40 15.333 73.833 46 101.5s68 41.5 112 41.5h27h145c60 100 140.667 196.333 242 289c129.333 116.667 269 175 419 175
c98.667 0 180.334 -30.333 245.001 -91s97 -138 97 -232c0 -134 -62.333 -236.667 -187 -308c-84.667 -48 -219.334 -72 -404.001 -72h-261c-90 -160 -135 -308.333 -135 -445c0 -97.333 22.167 -167 66.5 -209s118.166 -63 221.499 -63h556c92 0 138 -31.333 138 -94
c0 -45.333 -16.167 -80.833 -48.5 -106.5s-77.833 -38.5 -136.5 -38.5h-379zM751 922.001l193.999 -0.000976562c166 0 249 44.333 249 133c0 28 -10.833 50.833 -32.5 68.5s-49.167 26.5 -82.5 26.5c-51.333 0 -106.666 -20.667 -165.999 -62
s-113.333 -96.666 -162 -165.999z" />
    <glyph glyph-name="Egrave" unicode="&#xc8;" horiz-adv-x="1605" 
d="M945 751l202 489c22 54 44 88.333 66 103s63 22 123 22h516c92 0 138 -31.333 138 -94c0 -41.333 -15.167 -75.833 -45.5 -103.5s-67.833 -41.5 -112.5 -41.5h-27h-426l-152 -375h125h26c74.667 0 112 -32.333 112 -97c0 -39.333 -15.333 -72.833 -46 -100.5
s-68 -41.5 -112 -41.5h-27h-175l-222 -546h691h26c74.667 0 112 -31.333 112 -94c0 -41.333 -15.167 -75.833 -45.5 -103.5s-67.833 -41.5 -112.5 -41.5h-27h-741l-13 -28c-46.667 -104 -83.167 -177 -109.5 -219s-60.833 -82.667 -103.5 -122
c-111.333 -102 -239.333 -153 -384 -153c-118 0 -215.167 35 -291.5 105s-114.5 159 -114.5 267c0 67.333 16.333 130.333 49 189s77 104.334 133 137.001c72.667 42 171 63 295 63h354l222 546h-9h-24c-74.667 0 -112 32.667 -112 98c0 39.333 15.333 72.666 46 99.999
s68 41 112 41h27h57zM529 -273l-264 -0.000976562c-130.667 0 -196 -46.333 -196 -139c0 -38 14.5 -69.833 43.5 -95.5s64.833 -38.5 107.5 -38.5c60 0 117.5 24.333 172.5 73s100.5 115.334 136.5 200.001zM1628 1659l41.001 -96c8.66699 -19.333 13 -37.333 13 -54
c0 -18.667 -6.83301 -34.667 -20.5 -48s-29.834 -20 -48.501 -20c-21.333 0 -43.333 8.66699 -66 26l-119 88c-38 28 -57 56.667 -57 86c0 22.667 7.83301 41.5 23.5 56.5s35.167 22.5 58.5 22.5h74c49.333 0 83 -20.333 101 -61z" />
    <glyph glyph-name="Eacute" unicode="&#xc9;" horiz-adv-x="1605" 
d="M945 751l202 489c22 54 44 88.333 66 103s63 22 123 22h516c92 0 138 -31.333 138 -94c0 -41.333 -15.167 -75.833 -45.5 -103.5s-67.833 -41.5 -112.5 -41.5h-27h-426l-152 -375h125h26c74.667 0 112 -32.333 112 -97c0 -39.333 -15.333 -72.833 -46 -100.5
s-68 -41.5 -112 -41.5h-27h-175l-222 -546h691h26c74.667 0 112 -31.333 112 -94c0 -41.333 -15.167 -75.833 -45.5 -103.5s-67.833 -41.5 -112.5 -41.5h-27h-741l-13 -28c-46.667 -104 -83.167 -177 -109.5 -219s-60.833 -82.667 -103.5 -122
c-111.333 -102 -239.333 -153 -384 -153c-118 0 -215.167 35 -291.5 105s-114.5 159 -114.5 267c0 67.333 16.333 130.333 49 189s77 104.334 133 137.001c72.667 42 171 63 295 63h354l222 546h-9h-24c-74.667 0 -112 32.667 -112 98c0 39.333 15.333 72.666 46 99.999
s68 41 112 41h27h57zM529 -273l-264 -0.000976562c-130.667 0 -196 -46.333 -196 -139c0 -38 14.5 -69.833 43.5 -95.5s64.833 -38.5 107.5 -38.5c60 0 117.5 24.333 172.5 73s100.5 115.334 136.5 200.001zM1739 1575l-123.001 -97
c-29.333 -23.333 -54.666 -35 -75.999 -35c-18 0 -34 6.83301 -48 20.5s-21 29.5 -21 47.5c0 7.33301 1.33301 14.333 4 21l8 20l38 100c16 44 47 66 93 66h58c67.333 0 101 -26.333 101 -79c0 -24.667 -11.333 -46 -34 -64z" />
    <glyph glyph-name="Ecircumflex" unicode="&#xca;" horiz-adv-x="1605" 
d="M945 751l202 489c22 54 44 88.333 66 103s63 22 123 22h516c92 0 138 -31.333 138 -94c0 -41.333 -15.167 -75.833 -45.5 -103.5s-67.833 -41.5 -112.5 -41.5h-27h-426l-152 -375h125h26c74.667 0 112 -32.333 112 -97c0 -39.333 -15.333 -72.833 -46 -100.5
s-68 -41.5 -112 -41.5h-27h-175l-222 -546h691h26c74.667 0 112 -31.333 112 -94c0 -41.333 -15.167 -75.833 -45.5 -103.5s-67.833 -41.5 -112.5 -41.5h-27h-741l-13 -28c-46.667 -104 -83.167 -177 -109.5 -219s-60.833 -82.667 -103.5 -122
c-111.333 -102 -239.333 -153 -384 -153c-118 0 -215.167 35 -291.5 105s-114.5 159 -114.5 267c0 67.333 16.333 130.333 49 189s77 104.334 133 137.001c72.667 42 171 63 295 63h354l222 546h-9h-24c-74.667 0 -112 32.667 -112 98c0 39.333 15.333 72.666 46 99.999
s68 41 112 41h27h57zM529 -273l-264 -0.000976562c-130.667 0 -196 -46.333 -196 -139c0 -38 14.5 -69.833 43.5 -95.5s64.833 -38.5 107.5 -38.5c60 0 117.5 24.333 172.5 73s100.5 115.334 136.5 200.001zM1639 1529l-119.003 -64.999c-36 -20 -63.667 -30 -83 -30
c-21.333 0 -40.166 8.16699 -56.499 24.5s-24.5 35.833 -24.5 58.5c0 39.333 28.333 74 85 104l117 63c38.667 20.667 71.667 31 99 31c16.667 0 34.334 -7.66699 53.001 -23c7.33301 -6.66699 14 -12.334 20 -17.001l82 -67c33.333 -27.333 50 -57.333 50 -90
c0 -24 -8.16699 -43.833 -24.5 -59.5s-36.5 -23.5 -60.5 -23.5c-21.333 0 -47.666 14 -78.999 42z" />
    <glyph glyph-name="Edieresis" unicode="&#xcb;" horiz-adv-x="1605" 
d="M945 751l202 489c22 54 44 88.333 66 103s63 22 123 22h516c92 0 138 -31.333 138 -94c0 -41.333 -15.167 -75.833 -45.5 -103.5s-67.833 -41.5 -112.5 -41.5h-27h-426l-152 -375h125h26c74.667 0 112 -32.333 112 -97c0 -39.333 -15.333 -72.833 -46 -100.5
s-68 -41.5 -112 -41.5h-27h-175l-222 -546h691h26c74.667 0 112 -31.333 112 -94c0 -41.333 -15.167 -75.833 -45.5 -103.5s-67.833 -41.5 -112.5 -41.5h-27h-741l-13 -28c-46.667 -104 -83.167 -177 -109.5 -219s-60.833 -82.667 -103.5 -122
c-111.333 -102 -239.333 -153 -384 -153c-118 0 -215.167 35 -291.5 105s-114.5 159 -114.5 267c0 67.333 16.333 130.333 49 189s77 104.334 133 137.001c72.667 42 171 63 295 63h354l222 546h-9h-24c-74.667 0 -112 32.667 -112 98c0 39.333 15.333 72.666 46 99.999
s68 41 112 41h27h57zM529 -273l-264 -0.000976562c-130.667 0 -196 -46.333 -196 -139c0 -38 14.5 -69.833 43.5 -95.5s64.833 -38.5 107.5 -38.5c60 0 117.5 24.333 172.5 73s100.5 115.334 136.5 200.001zM1826 1710c38 0 70.167 -13.167 96.5 -39.5
s39.5 -58.166 39.5 -95.499c0 -38 -13.167 -70.167 -39.5 -96.5s-58.5 -39.5 -96.5 -39.5c-37.333 0 -69.166 13.167 -95.499 39.5s-39.5 58.5 -39.5 96.5c0 37.333 13.167 69.166 39.5 95.499s58.166 39.5 95.499 39.5zM1418 1710c37.333 0 69.166 -13.167 95.499 -39.5
s39.5 -58.166 39.5 -95.499c0 -38 -13.167 -70.167 -39.5 -96.5s-58.166 -39.5 -95.499 -39.5c-38 0 -70.167 13.167 -96.5 39.5s-39.5 58.5 -39.5 96.5c0 37.333 13.167 69.166 39.5 95.499s58.5 39.5 96.5 39.5z" />
    <glyph glyph-name="Igrave" unicode="&#xcc;" horiz-adv-x="1204" 
d="M886 239l167.999 -0.000976562c92 0 138 -32 138 -96c0 -45.333 -16.167 -80.5 -48.5 -105.5s-77.833 -37.5 -136.5 -37.5h-182c-73.333 0 -129 14.167 -167 42.5s-57 69.5 -57 123.5c0 38 13.667 91 41 159l201 494c40.667 100 61 168.667 61 206
c0 30 -13.667 56.833 -41 80.5s-58.666 35.5 -93.999 35.5c-66.667 0 -127 -28.833 -181 -86.5s-81 -122.167 -81 -193.5c0 -41.333 9.16699 -73.333 27.5 -96s51.833 -43.667 100.5 -63c43.333 -17.333 65 -47 65 -89c0 -38.667 -14.5 -70.5 -43.5 -95.5
s-65.167 -37.5 -108.5 -37.5c-83.333 0 -154.666 35.5 -213.999 106.5s-89 156.167 -89 255.5c0 144.667 54.667 271.334 164 380.001s236.666 163 381.999 163c109.333 0 200.5 -32 273.5 -96s109.5 -143.667 109.5 -239c0 -68.667 -17.333 -145.667 -52 -231z
M839.999 1659l41 -96c8.66699 -19.333 13 -37.333 13 -54c0 -18.667 -6.83301 -34.667 -20.5 -48s-29.834 -20 -48.501 -20c-21.333 0 -43.666 8.66699 -66.999 26l-118 88c-38 28 -57 56.667 -57 86c0 22.667 7.83301 41.5 23.5 56.5s35.167 22.5 58.5 22.5h73
c50 0 84 -20.333 102 -61z" />
    <glyph glyph-name="Iacute" unicode="&#xcd;" horiz-adv-x="1204" 
d="M886 239l167.999 -0.000976562c92 0 138 -32 138 -96c0 -45.333 -16.167 -80.5 -48.5 -105.5s-77.833 -37.5 -136.5 -37.5h-182c-73.333 0 -129 14.167 -167 42.5s-57 69.5 -57 123.5c0 38 13.667 91 41 159l201 494c40.667 100 61 168.667 61 206
c0 30 -13.667 56.833 -41 80.5s-58.666 35.5 -93.999 35.5c-66.667 0 -127 -28.833 -181 -86.5s-81 -122.167 -81 -193.5c0 -41.333 9.16699 -73.333 27.5 -96s51.833 -43.667 100.5 -63c43.333 -17.333 65 -47 65 -89c0 -38.667 -14.5 -70.5 -43.5 -95.5
s-65.167 -37.5 -108.5 -37.5c-83.333 0 -154.666 35.5 -213.999 106.5s-89 156.167 -89 255.5c0 144.667 54.667 271.334 164 380.001s236.666 163 381.999 163c109.333 0 200.5 -32 273.5 -96s109.5 -143.667 109.5 -239c0 -68.667 -17.333 -145.667 -52 -231zM1019 1575
l-123.001 -97c-29.333 -23.333 -54.666 -35 -75.999 -35c-18 0 -34 6.83301 -48 20.5s-21 29.5 -21 47.5c0 7.33301 1.33301 14.333 4 21l8 20l38 100c16.667 44 47.667 66 93 66h58c67.333 0 101 -26.333 101 -79c0 -24.667 -11.333 -46 -34 -64z" />
    <glyph glyph-name="Icircumflex" unicode="&#xce;" horiz-adv-x="1204" 
d="M886 239l167.999 -0.000976562c92 0 138 -32 138 -96c0 -45.333 -16.167 -80.5 -48.5 -105.5s-77.833 -37.5 -136.5 -37.5h-182c-73.333 0 -129 14.167 -167 42.5s-57 69.5 -57 123.5c0 38 13.667 91 41 159l201 494c40.667 100 61 168.667 61 206
c0 30 -13.667 56.833 -41 80.5s-58.666 35.5 -93.999 35.5c-66.667 0 -127 -28.833 -181 -86.5s-81 -122.167 -81 -193.5c0 -41.333 9.16699 -73.333 27.5 -96s51.833 -43.667 100.5 -63c43.333 -17.333 65 -47 65 -89c0 -38.667 -14.5 -70.5 -43.5 -95.5
s-65.167 -37.5 -108.5 -37.5c-83.333 0 -154.666 35.5 -213.999 106.5s-89 156.167 -89 255.5c0 144.667 54.667 271.334 164 380.001s236.666 163 381.999 163c109.333 0 200.5 -32 273.5 -96s109.5 -143.667 109.5 -239c0 -68.667 -17.333 -145.667 -52 -231z
M890.999 1529l-119.002 -64.999c-36 -20 -63.333 -30 -82 -30c-21.333 0 -40.166 8.16699 -56.499 24.5s-24.5 35.833 -24.5 58.5c0 39.333 28.333 74 85 104l117 63c38.667 20.667 71.667 31 99 31c16.667 0 34.334 -7.66699 53.001 -23
c7.33301 -6.66699 14 -12.334 20 -17.001l81 -67c34 -28 51 -58 51 -90c0 -24 -8.16699 -43.833 -24.5 -59.5s-36.5 -23.5 -60.5 -23.5c-21.333 0 -48 14 -80 42z" />
    <glyph glyph-name="Idieresis" unicode="&#xcf;" horiz-adv-x="1204" 
d="M886 239l167.999 -0.000976562c92 0 138 -32 138 -96c0 -45.333 -16.167 -80.5 -48.5 -105.5s-77.833 -37.5 -136.5 -37.5h-182c-73.333 0 -129 14.167 -167 42.5s-57 69.5 -57 123.5c0 38 13.667 91 41 159l201 494c40.667 100 61 168.667 61 206
c0 30 -13.667 56.833 -41 80.5s-58.666 35.5 -93.999 35.5c-66.667 0 -127 -28.833 -181 -86.5s-81 -122.167 -81 -193.5c0 -41.333 9.16699 -73.333 27.5 -96s51.833 -43.667 100.5 -63c43.333 -17.333 65 -47 65 -89c0 -38.667 -14.5 -70.5 -43.5 -95.5
s-65.167 -37.5 -108.5 -37.5c-83.333 0 -154.666 35.5 -213.999 106.5s-89 156.167 -89 255.5c0 144.667 54.667 271.334 164 380.001s236.666 163 381.999 163c109.333 0 200.5 -32 273.5 -96s109.5 -143.667 109.5 -239c0 -68.667 -17.333 -145.667 -52 -231zM1024 1710
c38 0 70.167 -13.167 96.5 -39.5s39.5 -58.166 39.5 -95.499c0 -38 -13.167 -70.167 -39.5 -96.5s-58.5 -39.5 -96.5 -39.5c-37.333 0 -69.166 13.167 -95.499 39.5s-39.5 58.5 -39.5 96.5c0 37.333 13.167 69.166 39.5 95.499s58.166 39.5 95.499 39.5zM684.999 1710
c37.333 0 69.166 -13.167 95.499 -39.5s39.5 -58.166 39.5 -95.499c0 -38 -13.167 -70.167 -39.5 -96.5s-58.166 -39.5 -95.499 -39.5c-38 0 -70.167 13.167 -96.5 39.5s-39.5 58.5 -39.5 96.5c0 37.333 13.167 69.166 39.5 95.499s58.5 39.5 96.5 39.5z" />
    <glyph glyph-name="Eth" unicode="&#xd0;" horiz-adv-x="1871" 
d="M849 512l-8.00098 -0.00195312h-27c-74.667 0 -112 31.333 -112 94c0 41.333 15.167 75.833 45.5 103.5s67.833 41.5 112.5 41.5h27h59l152 375h-99h-27c-74.667 0 -112 31.333 -112 94c0 40.667 15.167 75 45.5 103s67.833 42 112.5 42h27h293
c196 0 346.333 -46.667 451 -140s157 -227.666 157 -402.999c0 -166.667 -39.5 -332.5 -118.5 -497.5s-182.833 -298.833 -311.5 -401.5c-88.667 -70.667 -182.167 -121 -280.5 -151s-219.166 -45 -362.499 -45h-62l-12 -28c-46.667 -104 -83.334 -177 -110.001 -219
s-61.334 -82.667 -104.001 -122c-111.333 -102 -239.666 -153 -384.999 -153c-117.333 0 -214.166 35 -290.499 105s-114.5 159 -114.5 267c0 67.333 16.333 130.333 49 189s77 104.334 133 137.001c72.667 42 171 63 295 63h355zM1130 511.998l-222 -545.999h40
c206.667 0 379.667 91.667 519 275c67.333 88 120.5 183.333 159.5 286s58.5 197.667 58.5 285c0 97.333 -27.333 174 -82 230s-129 84 -223 84l-153 -375h123h27c74.667 0 112 -31.667 112 -95c0 -40.667 -15.167 -74.834 -45.5 -102.501s-67.833 -41.5 -112.5 -41.5h-27
h-174zM529.999 -273.001h-264.999c-130.667 0 -196 -46.333 -196 -139c0 -38 14.333 -70 43 -96s63.667 -39 105 -39c61.333 0 119.666 24.167 174.999 72.5s101.333 115.5 138 201.5z" />
    <glyph glyph-name="Ntilde" unicode="&#xd1;" horiz-adv-x="2035" 
d="M2140 1126l-403.999 -996l-19 -47c-28.667 -64.667 -75.667 -97 -141 -97c-52 0 -89 14.333 -111 43s-36 81 -42 157l-46 603l-209 -516c-84 -206.667 -147.833 -347.167 -191.5 -421.5s-100.5 -138.833 -170.5 -193.5c-101.333 -78.667 -217.666 -118 -348.999 -118
c-140 0 -253.5 44 -340.5 132s-130.5 202.333 -130.5 343c0 188 68.667 352.333 206 493c73.333 75.333 165.5 136.333 276.5 183s219.5 70 325.5 70c56 0 100.333 -11.5 133 -34.5s49 -54.167 49 -93.5c0 -40 -13 -70 -39 -90s-69 -32.667 -129 -38
c-132.667 -12.667 -239.667 -43.334 -321 -92.001c-67.333 -40.667 -120.833 -93.667 -160.5 -159s-59.5 -133.666 -59.5 -204.999c0 -76 19.5 -135.833 58.5 -179.5s92.833 -65.5 161.5 -65.5c79.333 0 149.166 34.667 209.499 104s125.833 191 196.5 365l396 975
c35.333 87.333 89 131 161 131c83.333 0 128.666 -49.667 135.999 -149l52 -666l271 666l16 40c26 62.667 71.667 94 137 94l41 1h205c92.667 0 139 -31.333 139 -94c0 -46 -16.333 -81.667 -49 -107s-78 -38 -136 -38h-122zM1572 1595l40.001 50
c29.333 38 65.666 57 108.999 57c24 0 53 -11.333 87 -34l31 -21c9.33301 -6 17.333 -9 24 -9c7.33301 0 15.333 4.33301 24 13l24 24c14 14 31 21 51 21c25.333 0 47 -7.83301 65 -23.5s27 -34.5 27 -56.5c0 -26 -9.66699 -50.333 -29 -73l-58 -65c-26 -30 -57 -45 -93 -45
c-31.333 0 -64 14 -98 42c-19.333 16 -32.333 24 -39 24c-8.66699 0 -19.667 -6.33301 -33 -19c-27.333 -26.667 -56.333 -40 -87 -40c-22 0 -40.5 7.66699 -55.5 23s-22.5 34.333 -22.5 57c0 22 11 47 33 75z" />
    <glyph glyph-name="Ograve" unicode="&#xd2;" horiz-adv-x="1350" 
d="M310 683l-49.998 0.00195312c-92.667 0 -139 31.667 -139 95c0 45.333 16.167 80.666 48.5 105.999s77.833 38 136.5 38h140l28 38c207.333 283.333 415.666 425 624.999 425c104 0 189 -30 255 -90s99 -137.333 99 -232c0 -133.333 -62.667 -236 -188 -308
c-83.333 -48 -208.333 -72 -375 -72h-300c-98.667 -186.667 -148 -345.334 -148 -476.001c0 -73.333 19.333 -132 58 -176s90 -66 154 -66c88.667 0 176.667 52 264 156s152 234.333 194 391l16 60c22 82 66 123 132 123c35.333 0 64.166 -13 86.499 -39
s33.5 -59.667 33.5 -101c0 -130.667 -56 -285 -168 -463c-156 -248.667 -344 -373 -564 -373c-136.667 0 -248.5 45.833 -335.5 137.5s-130.5 209.5 -130.5 353.5c0 136 42.667 293.667 128 473zM746.002 922.002h195c165.333 0 248 45 248 135
c0 26.667 -10.833 48.834 -32.5 66.501s-49.167 26.5 -82.5 26.5c-51.333 0 -106.333 -20.333 -165 -61s-113 -96.334 -163 -167.001zM1159 1659l41.999 -96c8 -18.667 12 -36.667 12 -54c0 -18.667 -6.83301 -34.667 -20.5 -48s-29.5 -20 -47.5 -20
c-21.333 0 -43.666 8.66699 -66.999 26l-119 88c-38 28 -57 56.667 -57 86c0 22.667 7.83301 41.5 23.5 56.5s35.167 22.5 58.5 22.5h74c49.333 0 83 -20.333 101 -61z" />
    <glyph glyph-name="Oacute" unicode="&#xd3;" horiz-adv-x="1350" 
d="M310 683l-49.998 0.00195312c-92.667 0 -139 31.667 -139 95c0 45.333 16.167 80.666 48.5 105.999s77.833 38 136.5 38h140l28 38c207.333 283.333 415.666 425 624.999 425c104 0 189 -30 255 -90s99 -137.333 99 -232c0 -133.333 -62.667 -236 -188 -308
c-83.333 -48 -208.333 -72 -375 -72h-300c-98.667 -186.667 -148 -345.334 -148 -476.001c0 -73.333 19.333 -132 58 -176s90 -66 154 -66c88.667 0 176.667 52 264 156s152 234.333 194 391l16 60c22 82 66 123 132 123c35.333 0 64.166 -13 86.499 -39
s33.5 -59.667 33.5 -101c0 -130.667 -56 -285 -168 -463c-156 -248.667 -344 -373 -564 -373c-136.667 0 -248.5 45.833 -335.5 137.5s-130.5 209.5 -130.5 353.5c0 136 42.667 293.667 128 473zM746.002 922.002h195c165.333 0 248 45 248 135
c0 26.667 -10.833 48.834 -32.5 66.501s-49.167 26.5 -82.5 26.5c-51.333 0 -106.333 -20.333 -165 -61s-113 -96.334 -163 -167.001zM1297 1575l-122.001 -97.001c-29.333 -23.333 -54.666 -35 -75.999 -35c-18.667 0 -35 6.83301 -49 20.5s-21 29.5 -21 47.5
c0 7.33301 1.33301 14.333 4 21l9 20l37 100c16.667 44 48 66 94 66h57c67.333 0 101 -26.333 101 -79c0 -25.333 -11.333 -46.666 -34 -63.999z" />
    <glyph glyph-name="Ocircumflex" unicode="&#xd4;" horiz-adv-x="1350" 
d="M310 683l-49.998 0.00195312c-92.667 0 -139 31.667 -139 95c0 45.333 16.167 80.666 48.5 105.999s77.833 38 136.5 38h140l28 38c207.333 283.333 415.666 425 624.999 425c104 0 189 -30 255 -90s99 -137.333 99 -232c0 -133.333 -62.667 -236 -188 -308
c-83.333 -48 -208.333 -72 -375 -72h-300c-98.667 -186.667 -148 -345.334 -148 -476.001c0 -73.333 19.333 -132 58 -176s90 -66 154 -66c88.667 0 176.667 52 264 156s152 234.333 194 391l16 60c22 82 66 123 132 123c35.333 0 64.166 -13 86.499 -39
s33.5 -59.667 33.5 -101c0 -130.667 -56 -285 -168 -463c-156 -248.667 -344 -373 -564 -373c-136.667 0 -248.5 45.833 -335.5 137.5s-130.5 209.5 -130.5 353.5c0 136 42.667 293.667 128 473zM746.002 922.002h195c165.333 0 248 45 248 135
c0 26.667 -10.833 48.834 -32.5 66.501s-49.167 26.5 -82.5 26.5c-51.333 0 -106.333 -20.333 -165 -61s-113 -96.334 -163 -167.001zM1170 1529l-119.002 -64.999c-36 -20 -63.667 -30 -83 -30c-21.333 0 -40.166 8.16699 -56.499 24.5s-24.5 35.833 -24.5 58.5
c0 39.333 28.333 74 85 104l117 63c38.667 20.667 71.667 31 99 31c16.667 0 34.334 -7.66699 53.001 -23c7.33301 -6.66699 14.333 -12.334 21 -17.001l81 -67c34 -28 51 -58 51 -90c0 -24 -8.16699 -43.833 -24.5 -59.5s-36.5 -23.5 -60.5 -23.5c-22 0 -48.667 14 -80 42z
" />
    <glyph glyph-name="Otilde" unicode="&#xd5;" horiz-adv-x="1350" 
d="M310 683l-49.998 0.00195312c-92.667 0 -139 31.667 -139 95c0 45.333 16.167 80.666 48.5 105.999s77.833 38 136.5 38h140l28 38c207.333 283.333 415.666 425 624.999 425c104 0 189 -30 255 -90s99 -137.333 99 -232c0 -133.333 -62.667 -236 -188 -308
c-83.333 -48 -208.333 -72 -375 -72h-300c-98.667 -186.667 -148 -345.334 -148 -476.001c0 -73.333 19.333 -132 58 -176s90 -66 154 -66c88.667 0 176.667 52 264 156s152 234.333 194 391l16 60c22 82 66 123 132 123c35.333 0 64.166 -13 86.499 -39
s33.5 -59.667 33.5 -101c0 -130.667 -56 -285 -168 -463c-156 -248.667 -344 -373 -564 -373c-136.667 0 -248.5 45.833 -335.5 137.5s-130.5 209.5 -130.5 353.5c0 136 42.667 293.667 128 473zM746.002 922.002h195c165.333 0 248 45 248 135
c0 26.667 -10.833 48.834 -32.5 66.501s-49.167 26.5 -82.5 26.5c-51.333 0 -106.333 -20.333 -165 -61s-113 -96.334 -163 -167.001zM916.002 1595l40 50c29.333 38 65.666 57 108.999 57c24 0 53 -11.333 87 -34l32 -21c8.66699 -6 16.334 -9 23.001 -9
c8 0 16.333 4.33301 25 13l23 24c14 14 31 21 51 21c25.333 0 47 -7.83301 65 -23.5s27 -34.5 27 -56.5c0 -26 -9.66699 -50.333 -29 -73l-58 -65c-26 -30 -57 -45 -93 -45c-31.333 0 -64 14 -98 42c-19.333 16 -32.333 24 -39 24c-8.66699 0 -19.667 -6.33301 -33 -19
c-27.333 -26.667 -56.333 -40 -87 -40c-22 0 -40.5 7.66699 -55.5 23s-22.5 34.333 -22.5 57c0 22 11 47 33 75z" />
    <glyph glyph-name="Odieresis" unicode="&#xd6;" horiz-adv-x="1350" 
d="M310 683l-49.998 0.00195312c-92.667 0 -139 31.667 -139 95c0 45.333 16.167 80.666 48.5 105.999s77.833 38 136.5 38h140l28 38c207.333 283.333 415.666 425 624.999 425c104 0 189 -30 255 -90s99 -137.333 99 -232c0 -133.333 -62.667 -236 -188 -308
c-83.333 -48 -208.333 -72 -375 -72h-300c-98.667 -186.667 -148 -345.334 -148 -476.001c0 -73.333 19.333 -132 58 -176s90 -66 154 -66c88.667 0 176.667 52 264 156s152 234.333 194 391l16 60c22 82 66 123 132 123c35.333 0 64.166 -13 86.499 -39
s33.5 -59.667 33.5 -101c0 -130.667 -56 -285 -168 -463c-156 -248.667 -344 -373 -564 -373c-136.667 0 -248.5 45.833 -335.5 137.5s-130.5 209.5 -130.5 353.5c0 136 42.667 293.667 128 473zM746.002 922.002h195c165.333 0 248 45 248 135
c0 26.667 -10.833 48.834 -32.5 66.501s-49.167 26.5 -82.5 26.5c-51.333 0 -106.333 -20.333 -165 -61s-113 -96.334 -163 -167.001zM1383 1710c38 0 70.167 -13.167 96.5 -39.5s39.5 -58.166 39.5 -95.499c0 -38 -13.167 -70.167 -39.5 -96.5s-58.5 -39.5 -96.5 -39.5
c-37.333 0 -69.166 13.167 -95.499 39.5s-39.5 58.5 -39.5 96.5c0 37.333 13.167 69.166 39.5 95.499s58.166 39.5 95.499 39.5zM976.002 1710c37.333 0 69.166 -13.167 95.499 -39.5s39.5 -58.166 39.5 -95.499c0 -38 -13.167 -70.167 -39.5 -96.5
s-58.166 -39.5 -95.499 -39.5c-38 0 -70.167 13.167 -96.5 39.5s-39.5 58.5 -39.5 96.5c0 37.333 13.167 69.166 39.5 95.499s58.5 39.5 96.5 39.5z" />
    <glyph glyph-name="multiply" unicode="&#xd7;" 
d="M767 596l107.001 -180l7 -12c6.66699 -10.667 10 -22 10 -34c0 -26 -10.5 -49.833 -31.5 -71.5s-44.167 -32.5 -69.5 -32.5c-36.667 0 -63.334 13.667 -80.001 41l-104 175l-267 -190c-24.667 -17.333 -46.334 -26 -65.001 -26c-23.333 0 -44.333 9.66699 -63 29
s-28 41 -28 65c0 26.667 12 48.334 36 65.001l296 210l-106 178c-11.333 19.333 -17 35.666 -17 48.999c0 25.333 10.833 48.5 32.5 69.5s45.5 31.5 71.5 31.5c34.667 0 59.667 -13 75 -39l104 -175l264 187c25.333 18 47.333 27 66 27
c22.667 0 43.334 -9.83301 62.001 -29.5s28 -41.167 28 -64.5c0 -26.667 -10.667 -47.667 -32 -63z" />
    <glyph glyph-name="Oslash" unicode="&#xd8;" horiz-adv-x="1152" 
d="M1295 1087c17.333 -46.667 26.001 -105.998 26.001 -177.998c0 -248.667 -74.333 -473.334 -223 -674.001c-65.333 -87.333 -142 -155.833 -230 -205.5s-177.333 -74.5 -268 -74.5c-131.333 0 -231.666 41.667 -300.999 125c-34.667 -26 -64.334 -39 -89.001 -39
c-28.667 0 -52.667 9.83301 -72 29.5s-29 44.167 -29 73.5c0 46.667 30 95.667 90 147c-9.33301 64.667 -14 118.667 -14 162c0 108.667 22.5 226.334 67.5 353.001s101.167 231 168.5 313c65.333 79.333 140.833 142.166 226.5 188.499s169.5 69.5 251.5 69.5
c105.333 0 199 -35 281 -105c37.333 32.667 69.666 49 96.999 49s50.833 -10.333 70.5 -31s29.5 -44.667 29.5 -72c0 -36.667 -27.333 -80.334 -82 -131.001zM869.001 1132c-96 0 -182.668 -59.0029 -260.001 -177.003c-45.333 -69.333 -83 -153.166 -113 -251.499
s-45 -187.166 -45 -266.499c0 -70 15 -126.167 45 -168.5s70 -63.5 120 -63.5c58.667 0 116.5 21.833 173.5 65.5s106.833 104.5 149.5 182.5c33.333 62 61 133.833 83 215.5s33 154.834 33 219.501c0 78 -16.167 138.167 -48.5 180.5s-78.166 63.5 -137.499 63.5z" />
    <glyph glyph-name="Ugrave" unicode="&#xd9;" horiz-adv-x="1748" 
d="M1822 1126l-319 -785.004c-54 -132 -118.167 -228.167 -192.5 -288.5s-166.166 -90.5 -275.499 -90.5c-106 0 -195.167 31.833 -267.5 95.5s-108.5 141.834 -108.5 234.501c0 68.667 21.667 156.334 65 263.001l107 264c40.667 100 61 167.667 61 203
c0 33.333 -14 61.5 -42 84.5s-62 34.5 -102 34.5c-65.333 0 -125 -28.833 -179 -86.5s-81 -121.167 -81 -190.5c0 -41.333 9.33301 -73.666 28 -96.999s51.334 -44 98.001 -62c49.333 -19.333 74 -50.666 74 -93.999c0 -37.333 -14.333 -68.5 -43 -93.5
s-64.334 -37.5 -107.001 -37.5c-84.667 0 -156.834 35.167 -216.501 105.5s-89.5 155.5 -89.5 255.5c0 145.333 54.5 272.333 163.5 381s236.5 163 382.5 163c110.667 0 202.5 -32.5 275.5 -97.5s109.5 -146.833 109.5 -245.5c0 -62.667 -17.667 -137 -53 -223l-152 -375
c-22 -54 -33 -97 -33 -129c0 -33.333 11.167 -60.5 33.5 -81.5s51.5 -31.5 87.5 -31.5c46 0 84.167 15.667 114.5 47s61.833 87.666 94.5 168.999l329 809c23.333 58.667 47.333 96.334 72 113.001s67.667 25 129 25h216c92 0 138 -31.333 138 -94
c0 -46.667 -16 -82.5 -48 -107.5s-77.333 -37.5 -136 -37.5h-133zM1426 1659l41.999 -96c8 -18.667 12 -36.667 12 -54c0 -18.667 -6.83301 -34.667 -20.5 -48s-29.5 -20 -47.5 -20c-21.333 0 -43.666 8.66699 -66.999 26l-119 88c-38 28 -57 56.667 -57 86
c0 22.667 7.83301 41.5 23.5 56.5s35.167 22.5 58.5 22.5h74c49.333 0 83 -20.333 101 -61z" />
    <glyph glyph-name="Uacute" unicode="&#xda;" horiz-adv-x="1748" 
d="M1822 1126l-319 -785.004c-54 -132 -118.167 -228.167 -192.5 -288.5s-166.166 -90.5 -275.499 -90.5c-106 0 -195.167 31.833 -267.5 95.5s-108.5 141.834 -108.5 234.501c0 68.667 21.667 156.334 65 263.001l107 264c40.667 100 61 167.667 61 203
c0 33.333 -14 61.5 -42 84.5s-62 34.5 -102 34.5c-65.333 0 -125 -28.833 -179 -86.5s-81 -121.167 -81 -190.5c0 -41.333 9.33301 -73.666 28 -96.999s51.334 -44 98.001 -62c49.333 -19.333 74 -50.666 74 -93.999c0 -37.333 -14.333 -68.5 -43 -93.5
s-64.334 -37.5 -107.001 -37.5c-84.667 0 -156.834 35.167 -216.501 105.5s-89.5 155.5 -89.5 255.5c0 145.333 54.5 272.333 163.5 381s236.5 163 382.5 163c110.667 0 202.5 -32.5 275.5 -97.5s109.5 -146.833 109.5 -245.5c0 -62.667 -17.667 -137 -53 -223l-152 -375
c-22 -54 -33 -97 -33 -129c0 -33.333 11.167 -60.5 33.5 -81.5s51.5 -31.5 87.5 -31.5c46 0 84.167 15.667 114.5 47s61.833 87.666 94.5 168.999l329 809c23.333 58.667 47.333 96.334 72 113.001s67.667 25 129 25h216c92 0 138 -31.333 138 -94
c0 -46.667 -16 -82.5 -48 -107.5s-77.333 -37.5 -136 -37.5h-133zM1564 1575l-122.001 -97.001c-29.333 -23.333 -54.666 -35 -75.999 -35c-18.667 0 -35 6.83301 -49 20.5s-21 29.5 -21 47.5c0 7.33301 1.33301 14.333 4 21l9 20l37 100c16.667 44 48 66 94 66h57
c67.333 0 101 -26.333 101 -79c0 -25.333 -11.333 -46.666 -34 -63.999z" />
    <glyph glyph-name="Ucircumflex" unicode="&#xdb;" horiz-adv-x="1748" 
d="M1822 1126l-319 -785.004c-54 -132 -118.167 -228.167 -192.5 -288.5s-166.166 -90.5 -275.499 -90.5c-106 0 -195.167 31.833 -267.5 95.5s-108.5 141.834 -108.5 234.501c0 68.667 21.667 156.334 65 263.001l107 264c40.667 100 61 167.667 61 203
c0 33.333 -14 61.5 -42 84.5s-62 34.5 -102 34.5c-65.333 0 -125 -28.833 -179 -86.5s-81 -121.167 -81 -190.5c0 -41.333 9.33301 -73.666 28 -96.999s51.334 -44 98.001 -62c49.333 -19.333 74 -50.666 74 -93.999c0 -37.333 -14.333 -68.5 -43 -93.5
s-64.334 -37.5 -107.001 -37.5c-84.667 0 -156.834 35.167 -216.501 105.5s-89.5 155.5 -89.5 255.5c0 145.333 54.5 272.333 163.5 381s236.5 163 382.5 163c110.667 0 202.5 -32.5 275.5 -97.5s109.5 -146.833 109.5 -245.5c0 -62.667 -17.667 -137 -53 -223l-152 -375
c-22 -54 -33 -97 -33 -129c0 -33.333 11.167 -60.5 33.5 -81.5s51.5 -31.5 87.5 -31.5c46 0 84.167 15.667 114.5 47s61.833 87.666 94.5 168.999l329 809c23.333 58.667 47.333 96.334 72 113.001s67.667 25 129 25h216c92 0 138 -31.333 138 -94
c0 -46.667 -16 -82.5 -48 -107.5s-77.333 -37.5 -136 -37.5h-133zM1437 1529l-119.001 -64.999c-36 -20 -63.667 -30 -83 -30c-21.333 0 -40.166 8.16699 -56.499 24.5s-24.5 35.833 -24.5 58.5c0 39.333 28.333 74 85 104l117 63c38.667 20.667 71.667 31 99 31
c17.333 0 35 -7.66699 53 -23c7.33301 -6.66699 14.333 -12.334 21 -17.001l81 -67c34 -28 51 -58 51 -90c0 -24 -8.16699 -43.833 -24.5 -59.5s-36.5 -23.5 -60.5 -23.5c-22 0 -48.667 14 -80 42z" />
    <glyph glyph-name="Udieresis" unicode="&#xdc;" horiz-adv-x="1748" 
d="M1822 1126l-319 -785.004c-54 -132 -118.167 -228.167 -192.5 -288.5s-166.166 -90.5 -275.499 -90.5c-106 0 -195.167 31.833 -267.5 95.5s-108.5 141.834 -108.5 234.501c0 68.667 21.667 156.334 65 263.001l107 264c40.667 100 61 167.667 61 203
c0 33.333 -14 61.5 -42 84.5s-62 34.5 -102 34.5c-65.333 0 -125 -28.833 -179 -86.5s-81 -121.167 -81 -190.5c0 -41.333 9.33301 -73.666 28 -96.999s51.334 -44 98.001 -62c49.333 -19.333 74 -50.666 74 -93.999c0 -37.333 -14.333 -68.5 -43 -93.5
s-64.334 -37.5 -107.001 -37.5c-84.667 0 -156.834 35.167 -216.501 105.5s-89.5 155.5 -89.5 255.5c0 145.333 54.5 272.333 163.5 381s236.5 163 382.5 163c110.667 0 202.5 -32.5 275.5 -97.5s109.5 -146.833 109.5 -245.5c0 -62.667 -17.667 -137 -53 -223l-152 -375
c-22 -54 -33 -97 -33 -129c0 -33.333 11.167 -60.5 33.5 -81.5s51.5 -31.5 87.5 -31.5c46 0 84.167 15.667 114.5 47s61.833 87.666 94.5 168.999l329 809c23.333 58.667 47.333 96.334 72 113.001s67.667 25 129 25h216c92 0 138 -31.333 138 -94
c0 -46.667 -16 -82.5 -48 -107.5s-77.333 -37.5 -136 -37.5h-133zM1584 1710c37.333 0 69.166 -13.167 95.499 -39.5s39.5 -58.166 39.5 -95.499c0 -38 -13.167 -70.167 -39.5 -96.5s-58.166 -39.5 -95.499 -39.5c-38 0 -70.167 13.167 -96.5 39.5s-39.5 58.5 -39.5 96.5
c0 37.333 13.167 69.166 39.5 95.499s58.5 39.5 96.5 39.5zM1174 1710c38 0 70.167 -13.167 96.5 -39.5s39.5 -58.166 39.5 -95.499c0 -38 -13.167 -70.167 -39.5 -96.5s-58.5 -39.5 -96.5 -39.5c-37.333 0 -69.166 13.167 -95.499 39.5s-39.5 58.5 -39.5 96.5
c0 37.333 13.167 69.166 39.5 95.499s58.166 39.5 95.499 39.5z" />
    <glyph glyph-name="Yacute" unicode="&#xdd;" horiz-adv-x="1839" 
d="M1853 1126l-359.999 -886.998h135c92 0 138 -32.667 138 -98c0 -44 -16.167 -78.5 -48.5 -103.5s-77.5 -37.5 -135.5 -37.5h-187l-73 -184c-81.333 -203.333 -166 -346.833 -254 -430.5s-197.667 -125.5 -329 -125.5c-124 0 -227.333 41.333 -310 124
s-124 185.667 -124 309c0 93.333 24.5 179 73.5 257s118.167 142 207.5 192c114 63.333 271.667 95 473 95l159 2l34 83c-35.333 -17.333 -74.333 -26 -117 -26c-94.667 0 -173.167 29 -235.5 87s-93.5 131 -93.5 219c0 46 15.333 112.667 46 200l22 59l21 59
c15.333 42 23 77 23 105c0 32 -14 59.333 -42 82s-61.667 34 -101 34c-64 0 -122.5 -29.333 -175.5 -88s-79.5 -123 -79.5 -193c0 -40 9 -71.5 27 -94.5s50 -43.167 96 -60.5c48 -18.667 72 -49.334 72 -92.001c0 -38 -14.333 -69.667 -43 -95s-64.334 -38 -107.001 -38
c-84.667 0 -156.834 35.333 -216.501 106s-89.5 156 -89.5 256c0 145.333 54.833 272.166 164.5 380.499s237.834 162.5 384.501 162.5c110 0 201 -33 273 -99s108 -149.333 108 -250c0 -48 -8.33301 -94.667 -25 -140l-39 -106c-24.667 -66 -37 -113 -37 -141
c0 -31.333 11.667 -58 35 -80s51.333 -33 84 -33c48.667 0 89.667 17 123 51s67.333 93.333 102 178l193 476c18.667 46 41.5 78.167 68.5 96.5s65.5 27.5 115.5 27.5h236c92 0 138 -31.333 138 -94c0 -46 -16.167 -81.667 -48.5 -107s-77.833 -38 -136.5 -38h-145z
M1121 0.00195312c-140 0 -247.332 -13.333 -321.999 -40c-70 -24.667 -124.833 -60.167 -164.5 -106.5s-59.5 -97.5 -59.5 -153.5c0 -52 17.167 -96 51.5 -132s76.166 -54 125.499 -54c60.667 0 115.5 27 164.5 81s97.833 141.333 146.5 262zM1610 1575l-123.001 -97
c-29.333 -23.333 -54.666 -35 -75.999 -35c-18 0 -34 6.83301 -48 20.5s-21 29.5 -21 47.5c0 7.33301 1.33301 14.333 4 21l8 20l38 100c16.667 44 47.667 66 93 66h58c67.333 0 101 -26.333 101 -79c0 -24.667 -11.333 -46 -34 -64z" />
    <glyph glyph-name="Thorn" unicode="&#xde;" horiz-adv-x="1668" 
d="M1163 266l-19.9971 -47.9971c-70.667 -172 -128.834 -295.667 -174.501 -371s-100.834 -138.333 -165.501 -189c-100 -78.667 -216 -118 -348 -118c-139.333 0 -252.333 44 -339 132s-130 202.333 -130 343c0 188.667 68.667 353 206 493
c73.333 75.333 166.166 136.333 278.499 183s222.5 70 330.5 70c52 0 94.167 -12 126.5 -36s48.5 -55.333 48.5 -94c0 -39.333 -13 -68.833 -39 -88.5s-68.667 -32.5 -128 -38.5c-132 -12 -239 -42.333 -321 -91c-68 -40.667 -121.667 -93.834 -161 -159.501
s-59 -134.834 -59 -207.501c0 -74 19.167 -132.833 57.5 -176.5s89.833 -65.5 154.5 -65.5c81.333 0 152 34.5 212 103.5s125 190.833 195 365.5l387 957c40 99.333 96.667 149 170 149c32.667 0 60 -9.83301 82 -29.5s33 -43.834 33 -72.501
c0 -22 -5.33301 -46.333 -16 -73l-12 -29l-93 -228c214 -12 321 -110.333 321 -295c0 -122 -47.333 -222.333 -142 -301c-68 -56.667 -173.667 -85 -317 -85h-137zM1259 505.003h82c106 0 159 43.333 159 130c0 49.333 -30.333 74 -91 74h-66z" />
    <glyph glyph-name="germandbls" unicode="&#xdf;" horiz-adv-x="1010" 
d="M949 718c66 -60 98.999 -135.334 98.999 -226.001c0 -75.333 -17.167 -149.666 -51.5 -222.999s-79.5 -132.333 -135.5 -177c-88.667 -70.667 -182.667 -106 -282 -106c-54 0 -99.5 13 -136.5 39s-55.5 57.667 -55.5 95c0 28 10.333 51.833 31 71.5s45.667 29.5 75 29.5
c5.33301 0 12.666 -0.333008 21.999 -1l17 -2c8 -0.666992 13.333 -1 16 -1c20 -2 33.667 -3 41 -3c58 0 109 29.333 153 88s66 126.667 66 204c0 39.333 -5.16699 69 -15.5 89s-31.166 40.667 -62.499 62c-42.667 28.667 -64 58.667 -64 90c0 30 8.66699 53 26 69
s47.666 28.333 90.999 37c54.667 12 97.667 35.5 129 70.5s47 77.5 47 127.5c0 70 -35 105 -105 105c-66.667 0 -118.667 -45.667 -156 -137l-368 -906l-10 -28c-30 -74.667 -78 -112 -144 -112c-29.333 0 -53.666 9.33301 -72.999 28s-29 42 -29 70
c0 18.667 5 40.667 15 66l11 27l381 936c74 181.333 197 272 369 272c102.667 0 185.834 -28.667 249.501 -86s95.5 -131.666 95.5 -222.999c0 -80 -22 -150.833 -66 -212.5s-104 -105.834 -180 -132.501z" />
    <glyph glyph-name="agrave" unicode="&#xe0;" horiz-adv-x="957" 
d="M777 218h110.002c84 0 126 -29.333 126 -88c0 -40.667 -15 -72.5 -45 -95.5s-71.333 -34.5 -124 -34.5h-128c-57.333 -0 -96.333 22.333 -117 67c-50 -44.667 -98.333 -67 -145 -67h-114c-73.333 0 -132.5 26.167 -177.5 78.5s-67.5 120.833 -67.5 205.5
c0 128 44.167 242.5 132.5 343.5s188.166 151.5 299.499 151.5c85.333 0 147.666 -29.667 186.999 -89c33.333 50 77 75 131 75c29.333 0 53.833 -9.33301 73.5 -28s29.5 -41.667 29.5 -69c0 -18.667 -5.33301 -41 -16 -67l-11 -27zM414.002 213l25.001 0.000976562
c54.667 0 91 22.333 109 67l70 173c9.33301 22.667 14 41.667 14 57c0 18 -8.83301 33.667 -26.5 47s-38.834 20 -63.501 20c-48.667 0 -96 -28.333 -142 -85s-69 -115.334 -69 -176.001c0 -68.667 27.667 -103 83 -103zM634.003 1058l42.001 -96
c8 -19.333 12 -37.333 12 -54c0 -18.667 -6.83301 -34.667 -20.5 -48s-29.834 -20 -48.501 -20c-21.333 0 -43.333 8.66699 -66 26l-119 88c-38 28 -57 56.667 -57 86c0 22.667 7.83301 41.5 23.5 56.5s35.167 22.5 58.5 22.5h74c49.333 0 83 -20.333 101 -61z" />
    <glyph glyph-name="aacute" unicode="&#xe1;" horiz-adv-x="957" 
d="M777 218h110.002c84 0 126 -29.333 126 -88c0 -40.667 -15 -72.5 -45 -95.5s-71.333 -34.5 -124 -34.5h-128c-57.333 -0 -96.333 22.333 -117 67c-50 -44.667 -98.333 -67 -145 -67h-114c-73.333 0 -132.5 26.167 -177.5 78.5s-67.5 120.833 -67.5 205.5
c0 128 44.167 242.5 132.5 343.5s188.166 151.5 299.499 151.5c85.333 0 147.666 -29.667 186.999 -89c33.333 50 77 75 131 75c29.333 0 53.833 -9.33301 73.5 -28s29.5 -41.667 29.5 -69c0 -18.667 -5.33301 -41 -16 -67l-11 -27zM414.002 213l25.001 0.000976562
c54.667 0 91 22.333 109 67l70 173c9.33301 22.667 14 41.667 14 57c0 18 -8.83301 33.667 -26.5 47s-38.834 20 -63.501 20c-48.667 0 -96 -28.333 -142 -85s-69 -115.334 -69 -176.001c0 -68.667 27.667 -103 83 -103zM812.003 973.001l-123.001 -97
c-29.333 -23.333 -54.666 -35 -75.999 -35c-18 0 -34 6.83301 -48 20.5s-21 29.5 -21 47.5c0 7.33301 1.33301 14.333 4 21l8 20l38 100c16.667 44 47.667 66 93 66h58c67.333 0 101 -26.333 101 -79c0 -24.667 -11.333 -46 -34 -64z" />
    <glyph glyph-name="acircumflex" unicode="&#xe2;" horiz-adv-x="957" 
d="M777 218h110.002c84 0 126 -29.333 126 -88c0 -40.667 -15 -72.5 -45 -95.5s-71.333 -34.5 -124 -34.5h-128c-57.333 -0 -96.333 22.333 -117 67c-50 -44.667 -98.333 -67 -145 -67h-114c-73.333 0 -132.5 26.167 -177.5 78.5s-67.5 120.833 -67.5 205.5
c0 128 44.167 242.5 132.5 343.5s188.166 151.5 299.499 151.5c85.333 0 147.666 -29.667 186.999 -89c33.333 50 77 75 131 75c29.333 0 53.833 -9.33301 73.5 -28s29.5 -41.667 29.5 -69c0 -18.667 -5.33301 -41 -16 -67l-11 -27zM414.002 213l25.001 0.000976562
c54.667 0 91 22.333 109 67l70 173c9.33301 22.667 14 41.667 14 57c0 18 -8.83301 33.667 -26.5 47s-38.834 20 -63.501 20c-48.667 0 -96 -28.333 -142 -85s-69 -115.334 -69 -176.001c0 -68.667 27.667 -103 83 -103zM671.003 942.001l-119.001 -65
c-36 -20 -65 -30 -87 -30c-20 0 -37.833 8.66699 -53.5 26s-23.5 37 -23.5 59c0 38 28.333 72 85 102l117 63c38.667 20.667 71.667 31 99 31c16.667 0 34.334 -7.66699 53.001 -23l21 -17l81 -67c34 -28 51 -58.333 51 -91c0 -23.333 -8.16699 -42.833 -24.5 -58.5
s-36.5 -23.5 -60.5 -23.5c-22 0 -48.667 14 -80 42z" />
    <glyph glyph-name="atilde" unicode="&#xe3;" horiz-adv-x="957" 
d="M777 218h110.002c84 0 126 -29.333 126 -88c0 -40.667 -15 -72.5 -45 -95.5s-71.333 -34.5 -124 -34.5h-128c-57.333 -0 -96.333 22.333 -117 67c-50 -44.667 -98.333 -67 -145 -67h-114c-73.333 0 -132.5 26.167 -177.5 78.5s-67.5 120.833 -67.5 205.5
c0 128 44.167 242.5 132.5 343.5s188.166 151.5 299.499 151.5c85.333 0 147.666 -29.667 186.999 -89c33.333 50 77 75 131 75c29.333 0 53.833 -9.33301 73.5 -28s29.5 -41.667 29.5 -69c0 -18.667 -5.33301 -41 -16 -67l-11 -27zM414.002 213l25.001 0.000976562
c54.667 0 91 22.333 109 67l70 173c9.33301 22.667 14 41.667 14 57c0 18 -8.83301 33.667 -26.5 47s-38.834 20 -63.501 20c-48.667 0 -96 -28.333 -142 -85s-69 -115.334 -69 -176.001c0 -68.667 27.667 -103 83 -103zM433.003 1008l39.999 50c30 38 66.333 57 109 57
c24 0 53 -11.333 87 -34l32 -21c8.66699 -6 16.334 -9 23.001 -9c8 0 16.333 4.33301 25 13l23 24c14 14 31 21 51 21c26 0 48.167 -8.16699 66.5 -24.5s26.833 -35.833 25.5 -58.5c-1.33301 -26 -11 -49.333 -29 -70l-58 -65c-26 -30 -57 -45 -93 -45
c-31.333 0 -64 14 -98 42c-19.333 16 -32.333 24 -39 24c-8.66699 0 -19.667 -6.33301 -33 -19c-27.333 -26.667 -56.333 -40 -87 -40c-22 0 -40.5 7.66699 -55.5 23s-22.5 34.333 -22.5 57c0 22 11 47 33 75z" />
    <glyph glyph-name="adieresis" unicode="&#xe4;" horiz-adv-x="957" 
d="M777 218h110.002c84 0 126 -29.333 126 -88c0 -40.667 -15 -72.5 -45 -95.5s-71.333 -34.5 -124 -34.5h-128c-57.333 -0 -96.333 22.333 -117 67c-50 -44.667 -98.333 -67 -145 -67h-114c-73.333 0 -132.5 26.167 -177.5 78.5s-67.5 120.833 -67.5 205.5
c0 128 44.167 242.5 132.5 343.5s188.166 151.5 299.499 151.5c85.333 0 147.666 -29.667 186.999 -89c33.333 50 77 75 131 75c29.333 0 53.833 -9.33301 73.5 -28s29.5 -41.667 29.5 -69c0 -18.667 -5.33301 -41 -16 -67l-11 -27zM414.002 213l25.001 0.000976562
c54.667 0 91 22.333 109 67l70 173c9.33301 22.667 14 41.667 14 57c0 18 -8.83301 33.667 -26.5 47s-38.834 20 -63.501 20c-48.667 0 -96 -28.333 -142 -85s-69 -115.334 -69 -176.001c0 -68.667 27.667 -103 83 -103zM860.003 1123c37.333 0 69.166 -13.167 95.499 -39.5
s39.5 -58.166 39.5 -95.499c0 -38 -13.167 -70.167 -39.5 -96.5s-58.166 -39.5 -95.499 -39.5c-38 0 -70.167 13.167 -96.5 39.5s-39.5 58.5 -39.5 96.5c0 37.333 13.167 69.166 39.5 95.499s58.5 39.5 96.5 39.5zM478.003 1123c38 0 70.167 -13.167 96.5 -39.5
s39.5 -58.166 39.5 -95.499c0 -38 -13.167 -70.167 -39.5 -96.5s-58.5 -39.5 -96.5 -39.5c-37.333 0 -69.166 13.167 -95.499 39.5s-39.5 58.5 -39.5 96.5c0 37.333 13.167 69.166 39.5 95.499s58.166 39.5 95.499 39.5z" />
    <glyph glyph-name="aring" unicode="&#xe5;" horiz-adv-x="957" 
d="M777 218h110.002c84 0 126 -29.333 126 -88c0 -40.667 -15 -72.5 -45 -95.5s-71.333 -34.5 -124 -34.5h-128c-57.333 -0 -96.333 22.333 -117 67c-50 -44.667 -98.333 -67 -145 -67h-114c-73.333 0 -132.5 26.167 -177.5 78.5s-67.5 120.833 -67.5 205.5
c0 128 44.167 242.5 132.5 343.5s188.166 151.5 299.499 151.5c85.333 0 147.666 -29.667 186.999 -89c33.333 50 77 75 131 75c29.333 0 53.833 -9.33301 73.5 -28s29.5 -41.667 29.5 -69c0 -18.667 -5.33301 -41 -16 -67l-11 -27zM414.002 213l25.001 0.000976562
c54.667 0 91 22.333 109 67l70 173c9.33301 22.667 14 41.667 14 57c0 18 -8.83301 33.667 -26.5 47s-38.834 20 -63.501 20c-48.667 0 -96 -28.333 -142 -85s-69 -115.334 -69 -176.001c0 -68.667 27.667 -103 83 -103zM656.003 1190c48.667 0 90.334 -17.333 125.001 -52
s52 -76.334 52 -125.001c0 -49.333 -17.333 -91.333 -52 -126s-76.334 -52 -125.001 -52c-49.333 0 -91.333 17.333 -126 52s-52 76.667 -52 126c0 48.667 17.333 90.334 52 125.001s76.667 52 126 52zM655.003 1076c-18 0 -33.5 -6.5 -46.5 -19.5s-19.5 -28.5 -19.5 -46.5
c0 -18.667 6.5 -34.5 19.5 -47.5s28.5 -19.5 46.5 -19.5c18.667 0 34.5 6.5 47.5 19.5s19.5 28.833 19.5 47.5c0 18 -6.5 33.5 -19.5 46.5s-28.833 19.5 -47.5 19.5z" />
    <glyph glyph-name="ae" unicode="&#xe6;" horiz-adv-x="1277" 
d="M803 296c5.33301 -52 40.6689 -77.999 106.002 -77.999h298c84.667 0 127 -29.667 127 -89c0 -40.667 -14.833 -72.334 -44.5 -95.001s-71.167 -34 -124.5 -34h-315c-77.333 -0 -144.333 25.333 -201 76c-77.333 -60 -168 -90 -272 -90
c-81.333 0 -148.666 23.167 -201.999 69.5s-80 104.833 -80 175.5c0 80 26.667 141.333 80 184s130.333 64 231 64h187c-6.66699 54.667 -41.334 82 -104.001 82h-119c-78.667 0 -118 27.333 -118 82c0 38 14 67.833 42 89.5s66.667 32.5 116 32.5h144
c80 0 147.667 -27.667 203 -83c76 64.667 161.667 97 257 97c83.333 0 150.666 -23.333 201.999 -70s77 -107.667 77 -183c0 -70.667 -24.333 -126.667 -73 -168s-114.334 -62 -197.001 -62h-220zM855.003 479.001h119.001c60 0 90 14.333 90 43c0 35.333 -23 53 -69 53
c-62.667 0 -109.334 -32 -140.001 -96zM561.004 296.001h-122c-74 0 -111 -18.333 -111 -55s26.667 -55 80 -55s105 22 155 66c-1.33301 24 -2 38.667 -2 44z" />
    <glyph glyph-name="ccedilla" unicode="&#xe7;" horiz-adv-x="779" 
d="M548 0c-4 -12.667 -10.668 -25.999 -20.001 -39.999l-30 -48c12.667 3.33301 24.667 5 36 5c44.667 0 83.834 -19 117.501 -57s50.5 -82.667 50.5 -134c0 -64.667 -20.833 -117.167 -62.5 -157.5s-95.5 -60.5 -161.5 -60.5h-121c-54.667 0 -82 17.667 -82 53
c0 28 9.66699 49.833 29 65.5s46 23.5 80 23.5h75c56.667 0 85 24.333 85 73c0 44.667 -21.333 67 -64 67c-19.333 0 -38 -6 -56 -18c-20.667 -14 -40.667 -21 -60 -21c-36.667 0 -55 18 -55 54c0 15.333 6.33301 34.666 19 57.999l75 137h-26
c-83.333 -0 -151.166 29.333 -203.499 88s-78.5 134.667 -78.5 228c0 124.667 43 233 129 325s187 138 303 138c78.667 0 142.667 -22 192 -66s74 -101.333 74 -172c0 -49.333 -12.333 -89.833 -37 -121.5s-56.334 -47.5 -95.001 -47.5c-61.333 0 -92 28.667 -92 86v22
c0.666992 7.33301 1 14.333 1 21c0 46.667 -23 70 -69 70c-43.333 0 -82.833 -23 -118.5 -69s-53.5 -97.333 -53.5 -154c0 -47.333 14.5 -80.833 43.5 -100.5s78.167 -29.5 147.5 -29.5h189c84.667 0 127 -29.667 127 -89c0 -40 -15.167 -71.5 -45.5 -94.5
s-71.5 -34.5 -123.5 -34.5h-119z" />
    <glyph glyph-name="egrave" unicode="&#xe8;" horiz-adv-x="814" 
d="M334 293c0 -50 37.668 -74.998 113.001 -74.998h297c84 0 126 -29.667 126 -89c0 -40.667 -14.833 -72.334 -44.5 -95.001s-71.167 -34 -124.5 -34h-283c-105.333 0 -185.5 26 -240.5 78s-82.5 128 -82.5 228c0 128.667 43.5 239.667 130.5 333s190.5 140 310.5 140
c87.333 0 157.5 -22.833 210.5 -68.5s79.5 -105.834 79.5 -180.501c0 -90 -36.667 -156.667 -110 -200c-40.667 -24.667 -101.334 -37 -182.001 -37h-200zM382.001 475.002h109.999c71.333 0 106 15.667 104 47c-2 35.333 -25 53 -69 53
c-61.333 0 -109.666 -33.333 -144.999 -100zM563 1058l42.001 -96c8 -19.333 12 -37.333 12 -54c0 -18.667 -6.83301 -34.667 -20.5 -48s-29.834 -20 -48.501 -20c-21.333 0 -43.333 8.66699 -66 26l-119 88c-38 28 -57 56.667 -57 86c0 22.667 7.83301 41.5 23.5 56.5
s35.167 22.5 58.5 22.5h74c49.333 0 83 -20.333 101 -61z" />
    <glyph glyph-name="eacute" unicode="&#xe9;" horiz-adv-x="814" 
d="M334 293c0 -50 37.668 -74.998 113.001 -74.998h297c84 0 126 -29.667 126 -89c0 -40.667 -14.833 -72.334 -44.5 -95.001s-71.167 -34 -124.5 -34h-283c-105.333 0 -185.5 26 -240.5 78s-82.5 128 -82.5 228c0 128.667 43.5 239.667 130.5 333s190.5 140 310.5 140
c87.333 0 157.5 -22.833 210.5 -68.5s79.5 -105.834 79.5 -180.501c0 -90 -36.667 -156.667 -110 -200c-40.667 -24.667 -101.334 -37 -182.001 -37h-200zM382.001 475.002h109.999c71.333 0 106 15.667 104 47c-2 35.333 -25 53 -69 53
c-61.333 0 -109.666 -33.333 -144.999 -100zM741 973.002l-123.001 -97c-29.333 -23.333 -54.666 -35 -75.999 -35c-18 0 -34 6.83301 -48 20.5s-21 29.5 -21 47.5c0 7.33301 1.33301 14.333 4 21l8 20l38 100c16.667 44 47.667 66 93 66h58c67.333 0 101 -26.333 101 -79
c0 -24.667 -11.333 -46 -34 -64z" />
    <glyph glyph-name="ecircumflex" unicode="&#xea;" horiz-adv-x="814" 
d="M334 293c0 -50 37.668 -74.998 113.001 -74.998h297c84 0 126 -29.667 126 -89c0 -40.667 -14.833 -72.334 -44.5 -95.001s-71.167 -34 -124.5 -34h-283c-105.333 0 -185.5 26 -240.5 78s-82.5 128 -82.5 228c0 128.667 43.5 239.667 130.5 333s190.5 140 310.5 140
c87.333 0 157.5 -22.833 210.5 -68.5s79.5 -105.834 79.5 -180.501c0 -90 -36.667 -156.667 -110 -200c-40.667 -24.667 -101.334 -37 -182.001 -37h-200zM382.001 475.002h109.999c71.333 0 106 15.667 104 47c-2 35.333 -25 53 -69 53
c-61.333 0 -109.666 -33.333 -144.999 -100zM600 942.002l-119.001 -65c-36 -20 -65 -30 -87 -30c-20 0 -37.833 8.66699 -53.5 26s-23.5 37 -23.5 59c0 38 28.333 72 85 102l117 63c38.667 20.667 71.667 31 99 31c16.667 0 34.334 -7.66699 53.001 -23l21 -17l81 -67
c34 -28 51 -58.333 51 -91c0 -23.333 -8.16699 -42.833 -24.5 -58.5s-36.5 -23.5 -60.5 -23.5c-22 0 -48.667 14 -80 42z" />
    <glyph glyph-name="edieresis" unicode="&#xeb;" horiz-adv-x="814" 
d="M334 293c0 -50 37.668 -74.998 113.001 -74.998h297c84 0 126 -29.667 126 -89c0 -40.667 -14.833 -72.334 -44.5 -95.001s-71.167 -34 -124.5 -34h-283c-105.333 0 -185.5 26 -240.5 78s-82.5 128 -82.5 228c0 128.667 43.5 239.667 130.5 333s190.5 140 310.5 140
c87.333 0 157.5 -22.833 210.5 -68.5s79.5 -105.834 79.5 -180.501c0 -90 -36.667 -156.667 -110 -200c-40.667 -24.667 -101.334 -37 -182.001 -37h-200zM382.001 475.002h109.999c71.333 0 106 15.667 104 47c-2 35.333 -25 53 -69 53
c-61.333 0 -109.666 -33.333 -144.999 -100zM789 1123c37.333 0 69.166 -13.167 95.499 -39.5s39.5 -58.166 39.5 -95.499c0 -38 -13.167 -70.167 -39.5 -96.5s-58.166 -39.5 -95.499 -39.5c-38 0 -70.167 13.167 -96.5 39.5s-39.5 58.5 -39.5 96.5
c0 37.333 13.167 69.166 39.5 95.499s58.5 39.5 96.5 39.5zM407 1123c38 0 70.167 -13.167 96.5 -39.5s39.5 -58.166 39.5 -95.499c0 -38 -13.167 -70.167 -39.5 -96.5s-58.5 -39.5 -96.5 -39.5c-37.333 0 -69.166 13.167 -95.499 39.5s-39.5 58.5 -39.5 96.5
c0 37.333 13.167 69.166 39.5 95.499s58.166 39.5 95.499 39.5z" />
    <glyph glyph-name="igrave" unicode="&#xec;" horiz-adv-x="555" 
d="M372 218l113.001 0.000976562c84 0 126 -29.667 126 -89c0 -40.667 -14.833 -72.334 -44.5 -95.001s-71.167 -34 -124.5 -34h-159c-58.667 0 -104.834 12 -138.501 36s-50.5 56.667 -50.5 98c0 22 7 50 21 84l165 406l11 28c30.667 75.333 80 113 148 113
c28 0 52.167 -9.33301 72.5 -28s30.5 -41 30.5 -67c0 -21.333 -9 -54 -27 -98zM488.001 1058l42.001 -96c8 -19.333 12 -37.333 12 -54c0 -18.667 -6.83301 -34.667 -20.5 -48s-29.834 -20 -48.501 -20c-21.333 0 -43.333 8.66699 -66 26l-119 88c-38 28 -57 56.667 -57 86
c0 22.667 7.83301 41.5 23.5 56.5s35.167 22.5 58.5 22.5h74c49.333 0 83 -20.333 101 -61z" />
    <glyph glyph-name="iacute" unicode="&#xed;" horiz-adv-x="555" 
d="M372 218l113.001 0.000976562c84 0 126 -29.667 126 -89c0 -40.667 -14.833 -72.334 -44.5 -95.001s-71.167 -34 -124.5 -34h-159c-58.667 0 -104.834 12 -138.501 36s-50.5 56.667 -50.5 98c0 22 7 50 21 84l165 406l11 28c30.667 75.333 80 113 148 113
c28 0 52.167 -9.33301 72.5 -28s30.5 -41 30.5 -67c0 -21.333 -9 -54 -27 -98zM666.001 973.001l-123.001 -97c-29.333 -23.333 -54.666 -35 -75.999 -35c-18 0 -34 6.83301 -48 20.5s-21 29.5 -21 47.5c0 7.33301 1.33301 14.333 4 21l8 20l38 100
c16.667 44 47.667 66 93 66h58c67.333 0 101 -26.333 101 -79c0 -24.667 -11.333 -46 -34 -64z" />
    <glyph glyph-name="icircumflex" unicode="&#xee;" horiz-adv-x="555" 
d="M511 942l-119.001 -65c-36 -20 -65 -30 -87 -30c-20 0 -37.833 8.66699 -53.5 26s-23.5 37 -23.5 59c0 38 28.333 72 85 102l117 63c38.667 20.667 71.667 31 99 31c16.667 0 34.334 -7.66699 53.001 -23l21 -17l81 -67c34 -28 51 -58.333 51 -91
c0 -23.333 -8.16699 -42.833 -24.5 -58.5s-36.5 -23.5 -60.5 -23.5c-22 0 -48.667 14 -80 42zM371.999 218l113.001 0.000976562c84 0 126 -29.667 126 -89c0 -40.667 -14.833 -72.334 -44.5 -95.001s-71.167 -34 -124.5 -34h-159c-58.667 0 -104.834 12 -138.501 36
s-50.5 56.667 -50.5 98c0 22 7 50 21 84l165 406l11 28c30.667 75.333 80 113 148 113c28 0 52.167 -9.33301 72.5 -28s30.5 -41 30.5 -67c0 -21.333 -9 -54 -27 -98z" />
    <glyph glyph-name="idieresis" unicode="&#xef;" horiz-adv-x="555" 
d="M372 218l113.001 0.000976562c84 0 126 -29.667 126 -89c0 -40.667 -14.833 -72.334 -44.5 -95.001s-71.167 -34 -124.5 -34h-159c-58.667 0 -104.834 12 -138.501 36s-50.5 56.667 -50.5 98c0 22 7 50 21 84l165 406l11 28c30.667 75.333 80 113 148 113
c28 0 52.167 -9.33301 72.5 -28s30.5 -41 30.5 -67c0 -21.333 -9 -54 -27 -98zM629.001 1123c34 0 62.833 -13.167 86.5 -39.5s35.5 -58.166 35.5 -95.499c0 -38 -11.833 -70.167 -35.5 -96.5s-52.5 -39.5 -86.5 -39.5s-62.833 13.167 -86.5 39.5s-35.5 58.5 -35.5 96.5
c0 37.333 11.833 69.166 35.5 95.499s52.5 39.5 86.5 39.5zM327.001 1123c34 0 62.833 -13.167 86.5 -39.5s35.5 -58.166 35.5 -95.499c0 -38 -11.833 -70.167 -35.5 -96.5s-52.5 -39.5 -86.5 -39.5c-33.333 0 -62 13.167 -86 39.5s-36 58.5 -36 96.5
c0 37.333 12 69.166 36 95.499s52.667 39.5 86 39.5z" />
    <glyph glyph-name="eth" unicode="&#xf0;" horiz-adv-x="848" 
d="M598 776l-43 184.002l-101 -25c-17.333 -4 -33 -6 -47 -6c-28.667 0 -52 8 -70 24s-27 37 -27 63c0 47.333 35 79.333 105 96l102 24l-18 73c-6.66699 25.333 -10 43.666 -10 54.999c0 30.667 11.167 57.5 33.5 80.5s48.5 34.5 78.5 34.5c54 0 89.667 -37 107 -111
l20 -86l111 25c22 4.66699 38.667 7 50 7c57.333 0 86 -27.333 86 -82c0 -51.333 -32.667 -84.333 -98 -99l-107 -25l102 -445c11.333 -48 17 -90 17 -126c0 -63.333 -16.833 -130 -50.5 -200s-75.5 -125 -125.5 -165c-59.333 -48 -147 -72 -263 -72
c-108.667 0 -182 13 -220 39c-89.333 61.333 -134 152 -134 272c0 125.333 45.333 234.666 136 327.999s196.667 140 318 140c14 0 30 -1 48 -3zM533 566.002c-49.333 0 -94.333 -24.332 -135 -72.999s-61 -102.334 -61 -161.001c0 -77.333 43.333 -116 130 -116
c50.667 0 89.667 15.667 117 47c45.333 51.333 68 110 68 176c0 38 -11 68.667 -33 92s-50.667 35 -86 35z" />
    <glyph glyph-name="ntilde" unicode="&#xf1;" horiz-adv-x="1025" 
d="M835 218l120 0.00292969c84.667 0 127 -29.667 127 -89c0 -40.667 -15 -72.334 -45 -95.001s-71.333 -34 -124 -34h-209c-40.667 0 -74.834 12.333 -102.501 37s-41.5 55.667 -41.5 93c0 22.667 9.33301 56.667 28 102l88 218c9.33301 22.667 14.333 41 15 55
c0.666992 16 -5.83301 29.667 -19.5 41s-31.167 17 -52.5 17c-68.667 0 -124 -51.667 -166 -155l-118 -290c-35.333 -88 -88 -132 -158 -132c-28.667 0 -53 8.66699 -73 26s-30 38.666 -30 63.999c0 18.667 5.33301 41 16 67l11 27l202 498c26 64.667 70.333 97 133 97
c51.333 0 88 -22.667 110 -68c71.333 54.667 139.333 82 204 82c62.667 0 114.334 -18 155.001 -54s61 -81.667 61 -137c0 -30.667 -7.33301 -64.334 -22 -101.001zM466 1008l39.999 50c30 38 66.333 57 109 57c24 0 53 -11.333 87 -34l32 -21
c8.66699 -6 16.334 -9 23.001 -9c8 0 16.333 4.33301 25 13l23 24c14 14 31 21 51 21c26 0 48.167 -8.16699 66.5 -24.5s26.833 -35.833 25.5 -58.5c-1.33301 -26 -11 -49.333 -29 -70l-58 -65c-26 -30 -57 -45 -93 -45c-31.333 0 -64 14 -98 42
c-19.333 16 -32.333 24 -39 24c-8.66699 0 -19.667 -6.33301 -33 -19c-27.333 -26.667 -56.333 -40 -87 -40c-22 0 -40.5 7.66699 -55.5 23s-22.5 34.333 -22.5 57c0 22 11 47 33 75z" />
    <glyph glyph-name="ograve" unicode="&#xf2;" horiz-adv-x="848" 
d="M557 779c96.667 0 176.167 -30.6699 238.5 -92.0029s93.5 -139.333 93.5 -234c0 -71.333 -16.333 -142.166 -49 -212.499s-75 -126.5 -127 -168.5c-34.667 -27.333 -70.5 -46.166 -107.5 -56.499s-88.833 -15.5 -155.5 -15.5c-108.667 0 -182 13 -220 39
c-89.333 61.333 -134 152 -134 272c0 126.667 45.667 236.334 137 329.001s199.333 139 324 139zM533 565.997c-49.333 0 -94.333 -24.332 -135 -72.999s-61 -102.334 -61 -161.001c0 -77.333 43.333 -116 130 -116c50.667 0 89.667 15.667 117 47
c45.333 51.333 68 110 68 176c0 38 -11 68.667 -33 92s-50.667 35 -86 35zM580 1058l42.001 -96c8 -19.333 12 -37.333 12 -54c0 -18.667 -6.83301 -34.667 -20.5 -48s-29.834 -20 -48.501 -20c-21.333 0 -43.333 8.66699 -66 26l-119 88c-38 28 -57 56.667 -57 86
c0 22.667 7.83301 41.5 23.5 56.5s35.167 22.5 58.5 22.5h74c49.333 0 83 -20.333 101 -61z" />
    <glyph glyph-name="oacute" unicode="&#xf3;" horiz-adv-x="848" 
d="M557 779c96.667 0 176.167 -30.6699 238.5 -92.0029s93.5 -139.333 93.5 -234c0 -71.333 -16.333 -142.166 -49 -212.499s-75 -126.5 -127 -168.5c-34.667 -27.333 -70.5 -46.166 -107.5 -56.499s-88.833 -15.5 -155.5 -15.5c-108.667 0 -182 13 -220 39
c-89.333 61.333 -134 152 -134 272c0 126.667 45.667 236.334 137 329.001s199.333 139 324 139zM533 565.997c-49.333 0 -94.333 -24.332 -135 -72.999s-61 -102.334 -61 -161.001c0 -77.333 43.333 -116 130 -116c50.667 0 89.667 15.667 117 47
c45.333 51.333 68 110 68 176c0 38 -11 68.667 -33 92s-50.667 35 -86 35zM758 972.998l-123.001 -97c-29.333 -23.333 -54.666 -35 -75.999 -35c-18 0 -34 6.83301 -48 20.5s-21 29.5 -21 47.5c0 7.33301 1.33301 14.333 4 21l8 20l38 100c16.667 44 47.667 66 93 66h58
c67.333 0 101 -26.333 101 -79c0 -24.667 -11.333 -46 -34 -64z" />
    <glyph glyph-name="ocircumflex" unicode="&#xf4;" horiz-adv-x="848" 
d="M557 779c96.667 0 176.167 -30.6699 238.5 -92.0029s93.5 -139.333 93.5 -234c0 -71.333 -16.333 -142.166 -49 -212.499s-75 -126.5 -127 -168.5c-34.667 -27.333 -70.5 -46.166 -107.5 -56.499s-88.833 -15.5 -155.5 -15.5c-108.667 0 -182 13 -220 39
c-89.333 61.333 -134 152 -134 272c0 126.667 45.667 236.334 137 329.001s199.333 139 324 139zM533 565.997c-49.333 0 -94.333 -24.332 -135 -72.999s-61 -102.334 -61 -161.001c0 -77.333 43.333 -116 130 -116c50.667 0 89.667 15.667 117 47
c45.333 51.333 68 110 68 176c0 38 -11 68.667 -33 92s-50.667 35 -86 35zM617 941.998l-119.001 -65c-36 -20 -65 -30 -87 -30c-20 0 -37.833 8.66699 -53.5 26s-23.5 37 -23.5 59c0 38 28.333 72 85 102l117 63c38.667 20.667 71.667 31 99 31
c16.667 0 34.334 -7.66699 53.001 -23l21 -17l81 -67c34 -28 51 -58.333 51 -91c0 -23.333 -8.16699 -42.833 -24.5 -58.5s-36.5 -23.5 -60.5 -23.5c-22 0 -48.667 14 -80 42z" />
    <glyph glyph-name="otilde" unicode="&#xf5;" horiz-adv-x="848" 
d="M557 779c96.667 0 176.167 -30.6699 238.5 -92.0029s93.5 -139.333 93.5 -234c0 -71.333 -16.333 -142.166 -49 -212.499s-75 -126.5 -127 -168.5c-34.667 -27.333 -70.5 -46.166 -107.5 -56.499s-88.833 -15.5 -155.5 -15.5c-108.667 0 -182 13 -220 39
c-89.333 61.333 -134 152 -134 272c0 126.667 45.667 236.334 137 329.001s199.333 139 324 139zM533 565.997c-49.333 0 -94.333 -24.332 -135 -72.999s-61 -102.334 -61 -161.001c0 -77.333 43.333 -116 130 -116c50.667 0 89.667 15.667 117 47
c45.333 51.333 68 110 68 176c0 38 -11 68.667 -33 92s-50.667 35 -86 35zM378 1008l39.999 50c30 38 66.333 57 109 57c24 0 53 -11.333 87 -34l32 -21c8.66699 -6 16.334 -9 23.001 -9c8 0 16.333 4.33301 25 13l23 24c14 14 31 21 51 21c26 0 48.167 -8.16699 66.5 -24.5
s26.833 -35.833 25.5 -58.5c-1.33301 -26 -11 -49.333 -29 -70l-58 -65c-26 -30 -57 -45 -93 -45c-31.333 0 -64 14 -98 42c-19.333 16 -32.333 24 -39 24c-8.66699 0 -19.667 -6.33301 -33 -19c-27.333 -26.667 -56.333 -40 -87 -40c-22 0 -40.5 7.66699 -55.5 23
s-22.5 34.333 -22.5 57c0 22 11 47 33 75z" />
    <glyph glyph-name="odieresis" unicode="&#xf6;" horiz-adv-x="848" 
d="M557 779c96.667 0 176.167 -30.6699 238.5 -92.0029s93.5 -139.333 93.5 -234c0 -71.333 -16.333 -142.166 -49 -212.499s-75 -126.5 -127 -168.5c-34.667 -27.333 -70.5 -46.166 -107.5 -56.499s-88.833 -15.5 -155.5 -15.5c-108.667 0 -182 13 -220 39
c-89.333 61.333 -134 152 -134 272c0 126.667 45.667 236.334 137 329.001s199.333 139 324 139zM533 565.997c-49.333 0 -94.333 -24.332 -135 -72.999s-61 -102.334 -61 -161.001c0 -77.333 43.333 -116 130 -116c50.667 0 89.667 15.667 117 47
c45.333 51.333 68 110 68 176c0 38 -11 68.667 -33 92s-50.667 35 -86 35zM806 1123c37.333 0 69.166 -13.167 95.499 -39.5s39.5 -58.166 39.5 -95.499c0 -38 -13.167 -70.167 -39.5 -96.5s-58.166 -39.5 -95.499 -39.5c-38 0 -70.167 13.167 -96.5 39.5
s-39.5 58.5 -39.5 96.5c0 37.333 13.167 69.166 39.5 95.499s58.5 39.5 96.5 39.5zM424 1123c38 0 70.167 -13.167 96.5 -39.5s39.5 -58.166 39.5 -95.499c0 -38 -13.167 -70.167 -39.5 -96.5s-58.5 -39.5 -96.5 -39.5c-37.333 0 -69.166 13.167 -95.499 39.5
s-39.5 58.5 -39.5 96.5c0 37.333 13.167 69.166 39.5 95.499s58.166 39.5 95.499 39.5z" />
    <glyph glyph-name="divide" unicode="&#xf7;" 
d="M366 717h593.001c84 0 126 -27.667 126 -83c0 -38 -14.833 -67.833 -44.5 -89.5s-70.834 -32.5 -123.501 -32.5h-593c-84 0 -126 27.667 -126 83c0 38 15 67.833 45 89.5s71 32.5 123 32.5zM554.001 408c34.667 0 64.167 -12.167 88.5 -36.5s36.5 -54.166 36.5 -89.499
c0 -34.667 -12.167 -64.167 -36.5 -88.5s-53.833 -36.5 -88.5 -36.5c-35.333 0 -65.166 12.167 -89.499 36.5s-36.5 53.833 -36.5 88.5c0 35.333 12.167 65.166 36.5 89.499s54.166 36.5 89.499 36.5zM721.001 1072c34.667 0 64.332 -12.333 88.999 -37
s37 -54.334 37 -89.001s-12.167 -64.167 -36.5 -88.5s-54.166 -36.5 -89.499 -36.5c-34.667 0 -64.167 12.167 -88.5 36.5s-36.5 53.833 -36.5 88.5s12.333 64.334 37 89.001s54 37 88 37z" />
    <glyph glyph-name="oslash" unicode="&#xf8;" horiz-adv-x="853" 
d="M864 601c23.333 -49.333 35 -101 35 -155c0 -134.667 -50.333 -251 -151 -349c-36.667 -36 -78 -61.167 -124 -75.5s-109.333 -21.5 -190 -21.5c-71.333 0 -125 6.66699 -161 20c-39.333 -38.667 -77 -58 -113 -58c-26 0 -49 10.167 -69 30.5s-30 43.833 -30 70.5
c0 33.333 22 71 66 113c-16 51.333 -24 99 -24 143c0 98.667 35 192.667 105 282c92 118.667 210.667 178 356 178c51.333 0 101.333 -10.333 150 -31c38 33.333 71.667 50 101 50c24 0 46.5 -10.667 67.5 -32s31.5 -44 31.5 -68c0 -24.667 -16.667 -57 -50 -97zM538 566
c-48 0 -92.333 -24.5 -133 -73.5s-61 -102.5 -61 -160.5c0 -77.333 43.333 -116 130 -116c50.667 0 89.667 15.667 117 47c45.333 51.333 68 111.333 68 180c0 36 -11.167 65.5 -33.5 88.5s-51.5 34.5 -87.5 34.5z" />
    <glyph glyph-name="ugrave" unicode="&#xf9;" horiz-adv-x="985" 
d="M799 218h116.001c46 0 78.667 -6.83301 98 -20.5s29 -36.167 29 -67.5c0 -40.667 -14.833 -72.5 -44.5 -95.5s-71.167 -34.5 -124.5 -34.5h-179c-56 0 -93.333 21.667 -112 65c-36.667 -43.333 -82.667 -65 -138 -65h-146c-58.667 -0 -107.334 18.333 -146.001 55
s-58 83 -58 139c0 32 8.66699 69.333 26 112l136 334c38 92.667 90 139 156 139c28.667 0 53 -9.16699 73 -27.5s30 -40.833 30 -67.5c0 -20 -5.33301 -43 -16 -69l-11 -27l-105 -257l-11 -30c-6 -17.333 -9.33301 -30.333 -10 -39c-1.33301 -30 18 -45 58 -45
c82.667 0 137.667 33.333 165 100l125 308c37.333 93.333 90 140 158 140c28 0 52 -9.33301 72 -28s30 -41 30 -67c0 -20.667 -8.66699 -52.667 -26 -96zM649.001 1058l42.001 -96c8 -19.333 12 -37.333 12 -54c0 -18.667 -6.83301 -34.667 -20.5 -48
s-29.834 -20 -48.501 -20c-21.333 0 -43.333 8.66699 -66 26l-119 88c-38 28 -57 56.667 -57 86c0 22.667 7.83301 41.5 23.5 56.5s35.167 22.5 58.5 22.5h74c49.333 0 83 -20.333 101 -61z" />
    <glyph glyph-name="uacute" unicode="&#xfa;" horiz-adv-x="985" 
d="M799 218h116.001c46 0 78.667 -6.83301 98 -20.5s29 -36.167 29 -67.5c0 -40.667 -14.833 -72.5 -44.5 -95.5s-71.167 -34.5 -124.5 -34.5h-179c-56 0 -93.333 21.667 -112 65c-36.667 -43.333 -82.667 -65 -138 -65h-146c-58.667 -0 -107.334 18.333 -146.001 55
s-58 83 -58 139c0 32 8.66699 69.333 26 112l136 334c38 92.667 90 139 156 139c28.667 0 53 -9.16699 73 -27.5s30 -40.833 30 -67.5c0 -20 -5.33301 -43 -16 -69l-11 -27l-105 -257l-11 -30c-6 -17.333 -9.33301 -30.333 -10 -39c-1.33301 -30 18 -45 58 -45
c82.667 0 137.667 33.333 165 100l125 308c37.333 93.333 90 140 158 140c28 0 52 -9.33301 72 -28s30 -41 30 -67c0 -20.667 -8.66699 -52.667 -26 -96zM826.001 973l-123.001 -97c-29.333 -23.333 -54.666 -35 -75.999 -35c-18 0 -34 6.83301 -48 20.5s-21 29.5 -21 47.5
c0 7.33301 1.33301 14.333 4 21l8 20l38 100c16.667 44 47.667 66 93 66h58c67.333 0 101 -26.333 101 -79c0 -24.667 -11.333 -46 -34 -64z" />
    <glyph glyph-name="ucircumflex" unicode="&#xfb;" horiz-adv-x="985" 
d="M799 218h116.001c46 0 78.667 -6.83301 98 -20.5s29 -36.167 29 -67.5c0 -40.667 -14.833 -72.5 -44.5 -95.5s-71.167 -34.5 -124.5 -34.5h-179c-56 0 -93.333 21.667 -112 65c-36.667 -43.333 -82.667 -65 -138 -65h-146c-58.667 -0 -107.334 18.333 -146.001 55
s-58 83 -58 139c0 32 8.66699 69.333 26 112l136 334c38 92.667 90 139 156 139c28.667 0 53 -9.16699 73 -27.5s30 -40.833 30 -67.5c0 -20 -5.33301 -43 -16 -69l-11 -27l-105 -257l-11 -30c-6 -17.333 -9.33301 -30.333 -10 -39c-1.33301 -30 18 -45 58 -45
c82.667 0 137.667 33.333 165 100l125 308c37.333 93.333 90 140 158 140c28 0 52 -9.33301 72 -28s30 -41 30 -67c0 -20.667 -8.66699 -52.667 -26 -96zM685.001 942l-119.001 -65c-36 -20 -65 -30 -87 -30c-20 0 -37.833 8.66699 -53.5 26s-23.5 37 -23.5 59
c0 38 28.333 72 85 102l117 63c38.667 20.667 71.667 31 99 31c16.667 0 34.334 -7.66699 53.001 -23l21 -17l81 -67c34 -28 51 -58.333 51 -91c0 -23.333 -8.16699 -42.833 -24.5 -58.5s-36.5 -23.5 -60.5 -23.5c-22 0 -48.667 14 -80 42z" />
    <glyph glyph-name="udieresis" unicode="&#xfc;" horiz-adv-x="985" 
d="M799 218h116.001c46 0 78.667 -6.83301 98 -20.5s29 -36.167 29 -67.5c0 -40.667 -14.833 -72.5 -44.5 -95.5s-71.167 -34.5 -124.5 -34.5h-179c-56 0 -93.333 21.667 -112 65c-36.667 -43.333 -82.667 -65 -138 -65h-146c-58.667 -0 -107.334 18.333 -146.001 55
s-58 83 -58 139c0 32 8.66699 69.333 26 112l136 334c38 92.667 90 139 156 139c28.667 0 53 -9.16699 73 -27.5s30 -40.833 30 -67.5c0 -20 -5.33301 -43 -16 -69l-11 -27l-105 -257l-11 -30c-6 -17.333 -9.33301 -30.333 -10 -39c-1.33301 -30 18 -45 58 -45
c82.667 0 137.667 33.333 165 100l125 308c37.333 93.333 90 140 158 140c28 0 52 -9.33301 72 -28s30 -41 30 -67c0 -20.667 -8.66699 -52.667 -26 -96zM874.001 1123c37.333 0 69.166 -13.167 95.499 -39.5s39.5 -58.166 39.5 -95.499c0 -38 -13.167 -70.167 -39.5 -96.5
s-58.166 -39.5 -95.499 -39.5c-38 0 -70.167 13.167 -96.5 39.5s-39.5 58.5 -39.5 96.5c0 37.333 13.167 69.166 39.5 95.499s58.5 39.5 96.5 39.5zM492.001 1123c38 0 70.167 -13.167 96.5 -39.5s39.5 -58.166 39.5 -95.499c0 -38 -13.167 -70.167 -39.5 -96.5
s-58.5 -39.5 -96.5 -39.5c-37.333 0 -69.166 13.167 -95.499 39.5s-39.5 58.5 -39.5 96.5c0 37.333 13.167 69.166 39.5 95.499s58.166 39.5 95.499 39.5z" />
    <glyph glyph-name="yacute" unicode="&#xfd;" horiz-adv-x="878" 
d="M665 -41h115.998c84.667 0 127 -29.667 127 -89c0 -40.667 -14.833 -72.334 -44.5 -95.001s-71.167 -34 -124.5 -34h-162c-19.333 -57.333 -54.333 -133.333 -105 -228c-88 -166.667 -216 -250 -384 -250c-102 0 -187.667 32 -257 96s-104 143.333 -104 238
c0 66 18.833 127.5 56.5 184.5s87.167 99.833 148.5 128.5c70.667 32.667 175 49 313 49h163l29 72c-49.333 -20.667 -94.666 -31 -135.999 -31c-71.333 0 -129.166 18.167 -173.499 54.5s-66.5 83.5 -66.5 141.5c0 35.333 14.333 88.333 43 159l109 269l11 28
c32 75.333 81.667 113 149 113c29.333 0 53.833 -9.33301 73.5 -28s29.5 -42.334 29.5 -71.001c0 -19.333 -8.66699 -50.666 -26 -93.999l-98 -239c-15.333 -38.667 -23.333 -63.667 -24 -75c-2 -32.667 18.667 -49 62 -49c30.667 0 62 9 94 27s52.333 38.333 61 61l134 327
l10 28c31.333 75.333 81 113 149 113c29.333 0 53.833 -9.5 73.5 -28.5s29.5 -42.5 29.5 -70.5c0 -19.333 -5 -41.666 -15 -66.999l-12 -27zM337.998 -259h-140.001c-153.333 0 -230 -48 -230 -144c0 -34 10.5 -61.333 31.5 -82s49.167 -31 84.5 -31
c48.667 0 91.834 19 129.501 57s79.167 104.667 124.5 200zM772.997 973l-123.001 -97c-29.333 -23.333 -54.666 -35 -75.999 -35c-18 0 -34 6.83301 -48 20.5s-21 29.5 -21 47.5c0 7.33301 1.33301 14.333 4 21l8 20l38 100c16.667 44 47.667 66 93 66h58
c67.333 0 101 -26.333 101 -79c0 -24.667 -11.333 -46 -34 -64z" />
    <glyph glyph-name="thorn" unicode="&#xfe;" horiz-adv-x="894" 
d="M566 705c44 49.333 94.998 74 152.998 74c64 0 116 -26.833 156 -80.5s60 -123.167 60 -208.5c0 -164 -51 -297.667 -153 -401c-33.333 -34 -67.666 -57.333 -102.999 -70s-84.666 -19 -147.999 -19c-68 0 -114.833 4.66699 -140.5 14s-52.167 30.666 -79.5 63.999
l-261 -642c-36 -88.667 -88.667 -133 -158 -133c-26.667 0 -49.5 8.83301 -68.5 26.5s-28.5 38.834 -28.5 63.501c0 20.667 8.33301 52 25 94l712 1752c37.333 93.333 90.333 140 159 140c27.333 0 50.333 -9 69 -27s28 -40 28 -66c0 -21.333 -5.33301 -45.333 -16 -72
l-11 -27zM392.998 282c16.667 -29.333 32.499 -48.332 47.499 -56.999s38.833 -13 71.5 -13c47.333 0 84.333 17.667 111 53c54 71.333 81 144.666 81 219.999c0 64.667 -30.667 97 -92 97c-67.333 0 -115.666 -39 -144.999 -117c-3.33301 -8.66699 -6 -16 -8 -22z" />
    <glyph glyph-name="ydieresis" unicode="&#xff;" horiz-adv-x="878" 
d="M665 -41h115.998c84.667 0 127 -29.667 127 -89c0 -40.667 -14.833 -72.334 -44.5 -95.001s-71.167 -34 -124.5 -34h-162c-19.333 -57.333 -54.333 -133.333 -105 -228c-88 -166.667 -216 -250 -384 -250c-102 0 -187.667 32 -257 96s-104 143.333 -104 238
c0 66 18.833 127.5 56.5 184.5s87.167 99.833 148.5 128.5c70.667 32.667 175 49 313 49h163l29 72c-49.333 -20.667 -94.666 -31 -135.999 -31c-71.333 0 -129.166 18.167 -173.499 54.5s-66.5 83.5 -66.5 141.5c0 35.333 14.333 88.333 43 159l109 269l11 28
c32 75.333 81.667 113 149 113c29.333 0 53.833 -9.33301 73.5 -28s29.5 -42.334 29.5 -71.001c0 -19.333 -8.66699 -50.666 -26 -93.999l-98 -239c-15.333 -38.667 -23.333 -63.667 -24 -75c-2 -32.667 18.667 -49 62 -49c30.667 0 62 9 94 27s52.333 38.333 61 61l134 327
l10 28c31.333 75.333 81 113 149 113c29.333 0 53.833 -9.5 73.5 -28.5s29.5 -42.5 29.5 -70.5c0 -19.333 -5 -41.666 -15 -66.999l-12 -27zM337.998 -259h-140.001c-153.333 0 -230 -48 -230 -144c0 -34 10.5 -61.333 31.5 -82s49.167 -31 84.5 -31
c48.667 0 91.834 19 129.501 57s79.167 104.667 124.5 200zM820.997 1123c37.333 0 69.166 -13.167 95.499 -39.5s39.5 -58.166 39.5 -95.499c0 -38 -13.167 -70.167 -39.5 -96.5s-58.166 -39.5 -95.499 -39.5c-38 0 -70.167 13.167 -96.5 39.5s-39.5 58.5 -39.5 96.5
c0 37.333 13.167 69.166 39.5 95.499s58.5 39.5 96.5 39.5zM438.997 1123c38 0 70.167 -13.167 96.5 -39.5s39.5 -58.166 39.5 -95.499c0 -38 -13.167 -70.167 -39.5 -96.5s-58.5 -39.5 -96.5 -39.5c-37.333 0 -69.166 13.167 -95.499 39.5s-39.5 58.5 -39.5 96.5
c0 37.333 13.167 69.166 39.5 95.499s58.166 39.5 95.499 39.5z" />
    <glyph glyph-name="dotlessi" unicode="&#x131;" horiz-adv-x="555" 
d="M372 218l113.001 0.000976562c84 0 126 -29.667 126 -89c0 -40.667 -14.833 -72.334 -44.5 -95.001s-71.167 -34 -124.5 -34h-159c-58.667 0 -104.834 12 -138.501 36s-50.5 56.667 -50.5 98c0 22 7 50 21 84l165 406l11 28c30.667 75.333 80 113 148 113
c28 0 52.167 -9.33301 72.5 -28s30.5 -41 30.5 -67c0 -21.333 -9 -54 -27 -98z" />
    <glyph glyph-name="OE" unicode="&#x152;" horiz-adv-x="1993" 
d="M1731 1130l-158 -378.002h129l26 -1c75.333 0 113 -30 113 -90c0 -96 -62.667 -144 -188 -144h-173l-221 -548h688c96 0 144 -33.333 144 -100c0 -45.333 -16.333 -80.333 -49 -105s-78.667 -37 -138 -37h-831l-58 1c-56 0 -84 22 -84 66c0 4.66699 0.666992 12.667 2 24
c-44 -36.667 -85.833 -61.667 -125.5 -75s-91.167 -20 -154.5 -20c-136.667 0 -243.5 36.833 -320.5 110.5s-115.5 176.167 -115.5 307.5c0 136.667 32 286.667 96 450s148.333 311.333 253 444c186 234.667 373.667 352 563 352c85.333 0 158 -18.667 218 -56
s100.667 -88.666 122 -153.999l24 68c18 52 38.667 85 62 99s68.333 21 135 21h500h35c76 0 114 -28.333 114 -85c0 -45.333 -19 -84.666 -57 -117.999c-24 -21.333 -67 -32 -129 -32h-422zM1106 1154c-90 0 -193.335 -71.002 -310.002 -213.002
c-86 -104.667 -158.5 -228.667 -217.5 -372s-88.5 -266.666 -88.5 -369.999c0 -68 18.167 -123.667 54.5 -167s82.833 -65 139.5 -65c68 0 139.333 32.833 214 98.5s145.334 157.834 212.001 276.501c113.333 202 170 385.667 170 551c0 80 -15.667 143.5 -47 190.5
s-73.666 70.5 -126.999 70.5z" />
    <glyph glyph-name="oe" unicode="&#x153;" horiz-adv-x="1314" 
d="M846 293c5.33301 -50 39.002 -75.001 101.002 -75.001h296c84.667 0 127 -29 127 -87c0 -40.667 -14.833 -72.667 -44.5 -96s-70.834 -35 -123.501 -35h-284c-98 0 -175 24.667 -231 74c-42.667 -48.667 -112.334 -73 -209.001 -73l-59 -1l-136 13
c-52.667 14.667 -97.167 50.5 -133.5 107.5s-54.5 120.167 -54.5 189.5c0 126 45.167 235.667 135.5 329s196.5 140 318.5 140c106.667 0 186.334 -34.333 239.001 -103c53.333 68.667 135 103 245 103c89.333 0 160.166 -22.5 212.499 -67.5s78.5 -106.167 78.5 -183.5
c0 -89.333 -36.333 -155.666 -109 -198.999c-40 -24 -101 -36 -183 -36h-186zM532.002 565.999c-49.333 0 -94.333 -24.499 -135 -73.499s-61 -103.167 -61 -162.5c0 -76 42.667 -114 128 -114c52 0 91.667 15.667 119 47c45.333 51.333 68 111.333 68 180
c0 35.333 -11.333 64.666 -34 87.999s-51 35 -85 35zM892.002 474l99.002 -0.000976562c70.667 0 105 16 103 48c-2 34 -23 51 -63 51c-30.667 0 -58.834 -9.16699 -84.501 -27.5s-43.834 -42.166 -54.501 -71.499z" />
    <glyph glyph-name="Scaron" unicode="&#x160;" horiz-adv-x="1367" 
d="M971 683l91.999 -116l53 -64c102.667 -126.667 154 -260.667 154 -402c0 -137.333 -45.333 -257.666 -136 -360.999c-124 -142 -286.333 -213 -487 -213c-155.333 0 -282.666 47.833 -381.999 143.5s-149 218.167 -149 367.5c0 182.667 77.333 335 232 457
c82 64.667 157.667 97 227 97c36 0 65.333 -10.333 88 -31s34 -47.334 34 -80.001c0 -44 -26 -82 -78 -114l-80 -49c-46 -28.667 -84.333 -68.667 -115 -120s-46 -102 -46 -152c0 -79.333 26.833 -144.833 80.5 -196.5s121.834 -77.5 204.501 -77.5
c91.333 0 170.666 34.167 237.999 102.5s101 148.833 101 241.5c0 58.667 -13.667 112 -41 160s-86.333 122.333 -177 223c-63.333 70 -108.666 131.333 -135.999 184h-270c-92 0 -138 31.667 -138 95c0 46 16.167 81.5 48.5 106.5s77.833 37.5 136.5 37.5h171
c13.333 132 73.666 241.167 180.999 327.5s236 129.5 386 129.5c112.667 0 204.5 -31 275.5 -93s106.5 -142.333 106.5 -241c0 -131.333 -56.333 -232 -169 -302c-64 -40 -165.667 -60 -305 -60h-100zM850.999 922l240 -0.000976562c135.333 0 203 39.333 203 118
c0 30.667 -13.833 55.334 -41.5 74.001s-64.5 28 -110.5 28c-72 0 -137.5 -22.333 -196.5 -67s-90.5 -95.667 -94.5 -153zM1201 1619l119 65c34 19.333 61.333 29.333 82 30c21.333 0.666992 40.333 -7.5 57 -24.5s25 -36.5 25 -58.5c0 -39.333 -28.333 -74 -85 -104
l-117 -63c-39.333 -20.667 -72.333 -31 -99 -31c-17.333 0 -35.333 7.66699 -54 23c-5.33301 5.33301 -12 11 -20 17l-81 67c-34 28 -51 58 -51 90c0 24 8.16699 43.833 24.5 59.5s36.5 23.5 60.5 23.5c22 0 48.667 -14 80 -42z" />
    <glyph glyph-name="scaron" unicode="&#x161;" horiz-adv-x="715" 
d="M427 492l-19.001 -46c-29.333 -66 -71 -99 -125 -99c-27.333 0 -51.833 9.5 -73.5 28.5s-32.5 40.833 -32.5 65.5c0 23.333 9.66699 54.333 29 93l133 270c32.667 64.667 73.334 97 122.001 97c26 0 48.333 -8.5 67 -25.5s28 -37.167 28 -60.5c0 -6 -2 -19 -6 -39
c-2.66699 -14.667 -4 -27.667 -4 -39c0 -42 15.667 -85 47 -129l57 -79c58 -80.667 87 -158.667 87 -234c0 -84 -31.333 -154.167 -94 -210.5s-140.667 -84.5 -234 -84.5h-209c-84.667 -0 -127 29.333 -127 88c0 40.667 15 72.5 45 95.5s71.333 34.5 124 34.5h116
c92.667 0 139 33.667 139 101c0 24.667 -8.66699 53.667 -26 87zM506.999 1141l119 64.999c36 20 65 30 87 30c20 0 37.833 -8.66699 53.5 -26s23.5 -37 23.5 -59c0 -38 -28.667 -72.333 -86 -103l-116 -62c-39.333 -20.667 -72.666 -31 -99.999 -31
c-16.667 0 -34.334 7.66699 -53.001 23c-7.33301 6.66699 -14 12.334 -20 17.001l-81 67c-34 28 -51 58 -51 90c0 24 8.16699 43.833 24.5 59.5s36.5 23.5 60.5 23.5c21.333 0 48 -14 80 -42z" />
    <glyph glyph-name="Ydieresis" unicode="&#x178;" horiz-adv-x="1839" 
d="M1853 1126l-359.999 -886.998h135c92 0 138 -32.667 138 -98c0 -44 -16.167 -78.5 -48.5 -103.5s-77.5 -37.5 -135.5 -37.5h-187l-73 -184c-81.333 -203.333 -166 -346.833 -254 -430.5s-197.667 -125.5 -329 -125.5c-124 0 -227.333 41.333 -310 124
s-124 185.667 -124 309c0 93.333 24.5 179 73.5 257s118.167 142 207.5 192c114 63.333 271.667 95 473 95l159 2l34 83c-35.333 -17.333 -74.333 -26 -117 -26c-94.667 0 -173.167 29 -235.5 87s-93.5 131 -93.5 219c0 46 15.333 112.667 46 200l22 59l21 59
c15.333 42 23 77 23 105c0 32 -14 59.333 -42 82s-61.667 34 -101 34c-64 0 -122.5 -29.333 -175.5 -88s-79.5 -123 -79.5 -193c0 -40 9 -71.5 27 -94.5s50 -43.167 96 -60.5c48 -18.667 72 -49.334 72 -92.001c0 -38 -14.333 -69.667 -43 -95s-64.334 -38 -107.001 -38
c-84.667 0 -156.834 35.333 -216.501 106s-89.5 156 -89.5 256c0 145.333 54.833 272.166 164.5 380.499s237.834 162.5 384.501 162.5c110 0 201 -33 273 -99s108 -149.333 108 -250c0 -48 -8.33301 -94.667 -25 -140l-39 -106c-24.667 -66 -37 -113 -37 -141
c0 -31.333 11.667 -58 35 -80s51.333 -33 84 -33c48.667 0 89.667 17 123 51s67.333 93.333 102 178l193 476c18.667 46 41.5 78.167 68.5 96.5s65.5 27.5 115.5 27.5h236c92 0 138 -31.333 138 -94c0 -46 -16.167 -81.667 -48.5 -107s-77.833 -38 -136.5 -38h-145z
M1121 0.00195312c-140 0 -247.332 -13.333 -321.999 -40c-70 -24.667 -124.833 -60.167 -164.5 -106.5s-59.5 -97.5 -59.5 -153.5c0 -52 17.167 -96 51.5 -132s76.166 -54 125.499 -54c60.667 0 115.5 27 164.5 81s97.833 141.333 146.5 262zM1630 1710
c37.333 0 69.166 -13.167 95.499 -39.5s39.5 -58.166 39.5 -95.499c0 -38 -13.167 -70.167 -39.5 -96.5s-58.166 -39.5 -95.499 -39.5c-38 0 -70.167 13.167 -96.5 39.5s-39.5 58.5 -39.5 96.5c0 37.333 13.167 69.166 39.5 95.499s58.5 39.5 96.5 39.5zM1220 1710
c38 0 70.167 -13.167 96.5 -39.5s39.5 -58.166 39.5 -95.499c0 -38 -13.167 -70.167 -39.5 -96.5s-58.5 -39.5 -96.5 -39.5c-37.333 0 -69.166 13.167 -95.499 39.5s-39.5 58.5 -39.5 96.5c0 37.333 13.167 69.166 39.5 95.499s58.166 39.5 95.499 39.5z" />
    <glyph glyph-name="florin" unicode="&#x192;" 
d="M767 765l137.999 0.000976562c84 0 126 -29.667 126 -89c0 -40.667 -14.833 -72.334 -44.5 -95.001s-71.167 -34 -124.5 -34h-184l-278 -683c-37.333 -90.667 -89 -136 -155 -136c-30 0 -55 9 -75 27s-30 40.333 -30 67c0 18.667 5.33301 41 16 67l11 27l257 631h-68
c-84.667 0 -127 29 -127 87c0 41.333 14.833 73.5 44.5 96.5s71.167 34.5 124.5 34.5h114l128 313c42 104 93 177.833 153 221.5s140 65.5 240 65.5h114c85.333 0 128 -29.333 128 -88c0 -42 -15 -74.667 -45 -98s-72 -35 -126 -35h-30
c-55.333 0 -99.166 -11.333 -131.499 -34s-59.833 -61 -82.5 -115z" />
    <glyph glyph-name="circumflex" unicode="&#x2c6;" horiz-adv-x="1024" 
d="M705 942l-119.001 -65c-36 -20 -65 -30 -87 -30c-20 0 -37.833 8.66699 -53.5 26s-23.5 37 -23.5 59c0 38 28.333 72 85 102l117 63c38.667 20.667 71.667 31 99 31c16.667 0 34.334 -7.66699 53.001 -23l21 -17l81 -67c34 -28 51 -58.333 51 -91
c0 -23.333 -8.16699 -42.833 -24.5 -58.5s-36.5 -23.5 -60.5 -23.5c-22 0 -48.667 14 -80 42z" />
    <glyph glyph-name="caron" unicode="&#x2c7;" horiz-adv-x="1024" 
d="M688 1032l119 64.999c36 20 65 30 87 30c20 0 37.833 -8.66699 53.5 -26s23.5 -37 23.5 -59c0 -38 -28.667 -72.333 -86 -103l-116 -62c-39.333 -20.667 -72.666 -31 -99.999 -31c-16.667 0 -34.334 7.66699 -53.001 23c-7.33301 6.66699 -14 12.334 -20 17.001l-81 67
c-34 28 -51 58 -51 90c0 24 8.16699 43.833 24.5 59.5s36.5 23.5 60.5 23.5c21.333 0 48 -14 80 -42z" />
    <glyph glyph-name="macron" unicode="&#x2c9;" horiz-adv-x="778" 
d="M428 1066h277h19c63.333 0 95 -28.333 95 -85c0 -26 -8.66699 -46.833 -26 -62.5s-40.333 -23.5 -69 -23.5h-19h-277h-19c-28 0 -50.833 7.83301 -68.5 23.5s-26.5 36.167 -26.5 61.5c0 26 8.66699 46.833 26 62.5s40.333 23.5 69 23.5h19z" />
    <glyph glyph-name="breve" unicode="&#x2d8;" horiz-adv-x="1024" 
d="M515 1149c18.667 0 33.3311 -4 43.998 -12s25.667 -26 45 -54c24 -35.333 52.667 -53 86 -53c32.667 0 61 17.667 85 53c20 28 35.167 46 45.5 54s24.833 12 43.5 12c22.667 0 41.834 -8 57.501 -24s23.5 -35.333 23.5 -58c0 -59.333 -25.5 -110.833 -76.5 -154.5
s-110.833 -65.5 -179.5 -65.5c-68 0 -127.5 22 -178.5 66s-76.5 95.333 -76.5 154c0 22.667 7.83301 42 23.5 58s34.834 24 57.501 24z" />
    <glyph glyph-name="dotaccent" unicode="&#x2d9;" horiz-adv-x="1024" 
d="M703 1123c38 0 70.167 -13.167 96.5 -39.5s39.5 -58.166 39.5 -95.499c0 -38 -13.167 -70.167 -39.5 -96.5s-58.5 -39.5 -96.5 -39.5c-37.333 0 -69.166 13.167 -95.499 39.5s-39.5 58.5 -39.5 96.5c0 37.333 13.167 69.166 39.5 95.499s58.166 39.5 95.499 39.5z" />
    <glyph glyph-name="ring" unicode="&#x2da;" horiz-adv-x="1024" 
d="M690 1190c48.667 0 90.334 -17.333 125.001 -52s52 -76.334 52 -125.001c0 -49.333 -17.333 -91.333 -52 -126s-76.334 -52 -125.001 -52c-49.333 0 -91.333 17.333 -126 52s-52 76.667 -52 126c0 48.667 17.333 90.334 52 125.001s76.667 52 126 52zM689 1076
c-18 0 -33.5 -6.5 -46.5 -19.5s-19.5 -28.5 -19.5 -46.5c0 -18.667 6.5 -34.5 19.5 -47.5s28.5 -19.5 46.5 -19.5c18.667 0 34.5 6.5 47.5 19.5s19.5 28.833 19.5 47.5c0 18 -6.5 33.5 -19.5 46.5s-28.833 19.5 -47.5 19.5z" />
    <glyph glyph-name="ogonek" unicode="&#x2db;" horiz-adv-x="1024" 
d="M806 0l-13 -11.999c-78.667 -70.667 -118 -124.667 -118 -162c0 -42.667 23.333 -64 70 -64h88c62 0 93 -20 93 -60c0 -28.667 -10.833 -50.834 -32.5 -66.501s-51.5 -23.5 -89.5 -23.5h-138c-47.333 0 -86 16.333 -116 49s-45 75 -45 127c0 60 36.333 130.667 109 212
h192z" />
    <glyph glyph-name="tilde" unicode="&#x2dc;" horiz-adv-x="1024" 
d="M466 1008l39.999 50c30 38 66.333 57 109 57c24 0 53 -11.333 87 -34l32 -21c8.66699 -6 16.334 -9 23.001 -9c8 0 16.333 4.33301 25 13l23 24c14 14 31 21 51 21c26 0 48.167 -8.16699 66.5 -24.5s26.833 -35.833 25.5 -58.5c-1.33301 -26 -11 -49.333 -29 -70l-58 -65
c-26 -30 -57 -45 -93 -45c-31.333 0 -64 14 -98 42c-19.333 16 -32.333 24 -39 24c-8.66699 0 -19.667 -6.33301 -33 -19c-27.333 -26.667 -56.333 -40 -87 -40c-22 0 -40.5 7.66699 -55.5 23s-22.5 34.333 -22.5 57c0 22 11 47 33 75z" />
    <glyph glyph-name="hungarumlaut" unicode="&#x2dd;" horiz-adv-x="1024" 
d="M722 979l-125.999 -99.001c-28.667 -22.667 -53.334 -34 -74.001 -34c-16.667 0 -31.5 6.33301 -44.5 19s-19.5 27 -19.5 43c0 6.66699 1 13 3 19l9 21l39 102c16 42.667 45.667 64 89 64h59c64.667 0 97 -24.667 97 -74c0 -23.333 -10.667 -43.666 -32 -60.999z
M1050 978.999l-124.999 -99c-28.667 -22.667 -53.334 -34 -74.001 -34c-16.667 0 -31.5 6.33301 -44.5 19s-19.5 27 -19.5 43c0 7.33301 1 13.666 3 18.999l9 21l39 102c15.333 42.667 45 64 89 64h59c64.667 0 97 -24.667 97 -74c0 -23.333 -11 -43.666 -33 -60.999z" />
    <glyph glyph-name="pi" unicode="&#x3c0;" horiz-adv-x="1345" 
d="M231 0v756h-156v227h1194v-227h-154v-756h-253v756h-378v-756h-253z" />
    <glyph glyph-name="endash" unicode="&#x2013;" 
d="M244 512h673h19c63.333 0 95 -28.333 95 -85c0 -57.333 -31.667 -86 -95 -86h-19h-673h-19c-28 0 -50.833 7.83301 -68.5 23.5s-26.5 36.5 -26.5 62.5c0 25.333 8.66699 45.833 26 61.5s40.333 23.5 69 23.5h19z" />
    <glyph glyph-name="emdash" unicode="&#x2014;" horiz-adv-x="1176" 
d="M191 512h948h19c63.333 0 95 -28.333 95 -85c0 -57.333 -31.667 -86 -95 -86h-19h-948h-19c-28 0 -50.833 7.83301 -68.5 23.5s-26.5 36.5 -26.5 62.5c0 25.333 8.66699 45.833 26 61.5s40.333 23.5 69 23.5h19z" />
    <glyph glyph-name="quoteleft" unicode="&#x2018;" horiz-adv-x="436" 
d="M600 1217c20.667 -33.333 31 -62.001 31 -86.001c0 -34 -12.167 -62.667 -36.5 -86s-53.833 -35 -88.5 -35c-35.333 0 -64.833 11.833 -88.5 35.5s-35.5 53.5 -35.5 89.5c0 56.667 39 117.334 117 182.001c60.667 50 104.334 75 131.001 75
c13.333 0 25.333 -4.5 36 -13.5s15.667 -18.833 15 -29.5c-0.666992 -13.333 -8.33398 -30.333 -23.001 -51l-18 -26z" />
    <glyph glyph-name="quoteright" unicode="&#x2019;" horiz-adv-x="436" 
d="M464 1186c-20.667 32 -31.001 60.334 -31.001 85.001c0 34 12.167 62.667 36.5 86s53.833 35 88.5 35c35.333 0 64.833 -11.833 88.5 -35.5s35.5 -53.5 35.5 -89.5c0 -56.667 -39.333 -117.334 -118 -182.001c-60 -50 -103.333 -75 -130 -75
c-13.333 0 -25.333 4.5 -36 13.5s-15.667 18.833 -15 29.5c0.666992 14 8.33398 31.333 23.001 52l19 26z" />
    <glyph glyph-name="quotesinglbase" unicode="&#x201a;" horiz-adv-x="436" 
d="M184 4c-20.667 32.667 -31.001 61.001 -31.001 85.001c0 34 12.167 62.667 36.5 86s53.833 35 88.5 35c35.333 0 64.833 -11.833 88.5 -35.5s35.5 -53.5 35.5 -89.5c0 -56.667 -39.333 -117.334 -118 -182.001c-60 -50 -103.333 -75 -130 -75
c-13.333 0 -25.333 4.5 -36 13.5s-15.667 18.833 -15 29.5c0.666992 14 8.33398 31 23.001 51l19 27z" />
    <glyph glyph-name="quotedblleft" unicode="&#x201c;" horiz-adv-x="750" 
d="M600 1217c20.667 -33.333 31 -62.001 31 -86.001c0 -34 -12.167 -62.667 -36.5 -86s-53.833 -35 -88.5 -35c-35.333 0 -64.833 11.833 -88.5 35.5s-35.5 53.5 -35.5 89.5c0 56.667 39 117.334 117 182.001c60.667 50 104.334 75 131.001 75
c13.333 0 25.333 -4.5 36 -13.5s15.667 -18.833 15 -29.5c-0.666992 -13.333 -8.33398 -30.333 -23.001 -51l-18 -26zM914 1217c20.667 -33.333 31 -62.001 31 -86.001c0 -33.333 -12.167 -61.833 -36.5 -85.5s-53.833 -35.5 -88.5 -35.5
c-35.333 0 -64.833 11.833 -88.5 35.5s-35.5 53.5 -35.5 89.5c0 56.667 39 117.334 117 182.001c60.667 50 104.334 75 131.001 75c13.333 0 25.333 -4.5 36 -13.5s15.667 -18.833 15 -29.5c-0.666992 -13.333 -8.33398 -30.333 -23.001 -51l-18 -26z" />
    <glyph glyph-name="quotedblright" unicode="&#x201d;" horiz-adv-x="750" 
d="M464 1186c-20.667 32 -31.001 60.334 -31.001 85.001c0 34 12.167 62.667 36.5 86s53.833 35 88.5 35c35.333 0 64.833 -11.833 88.5 -35.5s35.5 -53.5 35.5 -89.5c0 -56.667 -39.333 -117.334 -118 -182.001c-60 -50 -103.333 -75 -130 -75
c-13.333 0 -25.333 4.5 -36 13.5s-15.667 18.833 -15 29.5c0.666992 14 8.33398 31.333 23.001 52l19 26zM777.999 1186c-20.667 32 -31 60.334 -31 85.001c0 34 12.167 62.667 36.5 86s53.833 35 88.5 35c35.333 0 64.833 -11.833 88.5 -35.5s35.5 -53.5 35.5 -89.5
c0 -56.667 -39 -117.334 -117 -182.001c-60.667 -50 -104.334 -75 -131.001 -75c-13.333 0 -25.333 4.5 -36 13.5s-15.667 18.833 -15 29.5c0.666992 14 8.33398 31.333 23.001 52l19 26z" />
    <glyph glyph-name="quotedblbase" unicode="&#x201e;" horiz-adv-x="797" 
d="M184 4c-20.667 32.667 -31.001 61.001 -31.001 85.001c0 34 12.167 62.667 36.5 86s53.833 35 88.5 35c35.333 0 64.833 -11.833 88.5 -35.5s35.5 -53.5 35.5 -89.5c0 -56.667 -39.333 -117.334 -118 -182.001c-60 -50 -103.333 -75 -130 -75
c-13.333 0 -25.333 4.5 -36 13.5s-15.667 18.833 -15 29.5c0.666992 14 8.33398 31 23.001 51l19 27zM497.999 4.00098c-20.667 32.667 -31 61.001 -31 85.001c0 34 12.167 62.667 36.5 86s53.833 35 88.5 35c35.333 0 64.833 -11.833 88.5 -35.5s35.5 -53.5 35.5 -89.5
c0 -56.667 -39 -117.334 -117 -182.001c-60.667 -50 -104.334 -75 -131.001 -75c-13.333 0 -25.333 4.5 -36 13.5s-15.667 18.833 -15 29.5c0.666992 14 8.33398 31 23.001 51l19 27z" />
    <glyph glyph-name="dagger" unicode="&#x2020;" horiz-adv-x="1044" 
d="M986 1077l192 0.000976562c67.333 0 101 -32 101 -96c0 -90 -52 -135 -156 -135h-231l-401 -992c-26 -64.667 -51.5 -109 -76.5 -133s-58.167 -36 -99.5 -36c-70.667 0 -106 33 -106 99c0 21.333 4.33301 42.666 13 63.999l404 998h-173
c-27.333 0 -50.833 9.5 -70.5 28.5s-29.5 41.833 -29.5 68.5c0 43.333 14.833 76.5 44.5 99.5s72.5 34.5 128.5 34.5h187l88 219c36.667 91.333 88.667 137 156 137c33.333 0 60.333 -10.167 81 -30.5s31 -46.5 31 -78.5c0 -24 -4.66699 -48.333 -14 -73z" />
    <glyph glyph-name="daggerdbl" unicode="&#x2021;" horiz-adv-x="1044" 
d="M696 342l191.999 0.00195312c68 0 102 -33 102 -99c0 -40.667 -14 -72.834 -42 -96.501s-66.333 -35.5 -115 -35.5h-237l-103 -256c-25.333 -63.333 -50.666 -107.333 -75.999 -132s-57.333 -37 -96 -37c-73.333 0 -110 32.333 -110 97
c0 23.333 5.33301 48.666 16 75.999l102 252h-159c-31.333 0 -57 9.16699 -77 27.5s-30 41.5 -30 69.5c0 89.333 57.667 134 173 134h186l204 504h-173c-28 0 -51.667 9.5 -71 28.5s-29 42.5 -29 70.5c0 42.667 15 75.334 45 98.001s72.667 34 128 34h187l88 219
c36.667 91.333 88.667 137 156 137c32 0 58.667 -10 80 -30s32 -45 32 -75c0 -26.667 -7 -57.667 -21 -93l-63 -158h193c68 0 102 -33 102 -99c0 -40.667 -14 -72.834 -42 -96.501s-66.333 -35.5 -115 -35.5h-230z" />
    <glyph glyph-name="bullet" unicode="&#x2022;" horiz-adv-x="1365" 
d="M685 978c78.667 0 145.667 -27.667 201 -83s83 -122.333 83 -201s-27.667 -145.667 -83 -201s-122.333 -83 -201 -83s-145.667 27.667 -201 83s-83 122.333 -83 201s27.667 145.667 83 201s122.333 83 201 83z" />
    <glyph glyph-name="ellipsis" unicode="&#x2026;" horiz-adv-x="1532" 
d="M290 252c38 0 70.667 -13.667 98 -41s41 -60 41 -98c0 -38.667 -13.667 -71.667 -41 -99s-60 -41 -98 -41c-38.667 0 -71.667 13.667 -99 41s-41 60.333 -41 99c0 38 13.667 70.667 41 98s60.333 41 99 41zM800 252c38.667 0 71.667 -13.667 99 -41s41 -60 41 -98
c0 -38.667 -13.667 -71.667 -41 -99s-60.333 -41 -99 -41c-38 0 -70.667 13.667 -98 41s-41 60.333 -41 99c0 38 13.667 70.667 41 98s60 41 98 41zM1311 252c38 0 70.667 -13.667 98 -41s41 -60 41 -98c0 -38.667 -13.667 -71.667 -41 -99s-60 -41 -98 -41
c-38.667 0 -71.667 13.667 -99 41s-41 60.333 -41 99c0 38 13.667 70.667 41 98s60.333 41 99 41z" />
    <glyph glyph-name="perthousand" unicode="&#x2030;" horiz-adv-x="1989" 
d="M525 58l577.001 1165l5 10c15.333 30.667 37.666 46 66.999 46c36 0 54 -16.333 54 -49c0 -11.333 -3 -23 -9 -35l-6 -11l-576 -1164c-18.667 -38 -42.667 -57 -72 -57c-36 0 -54 16.667 -54 50c0 11.333 4.66699 26.333 14 45zM1233 644
c60 0 107.333 -18.168 142 -54.501s52 -85.5 52 -147.5c0 -72 -16.667 -145.167 -50 -219.5s-74.666 -131.166 -123.999 -170.499c-52.667 -41.333 -115.667 -62 -189 -62c-60.667 0 -108.834 17.333 -144.501 52s-53.5 81 -53.5 139c0 108 37.333 213 112 315
c72.667 98.667 157.667 148 255 148zM1221 503.999c-36 2 -76.667 -33.667 -122 -107s-68 -140.666 -68 -201.999c0 -40 16 -60 48 -60c39.333 0 76.333 27 111 81c50.667 79.333 76 155.666 76 228.999c0 37.333 -15 57 -45 59zM1834 643.999
c60 0 107.334 -18.167 142.001 -54.5s52 -85.5 52 -147.5c0 -72.667 -16.667 -146 -50 -220s-75 -130.667 -125 -170c-52 -41.333 -115 -62 -189 -62c-60.667 0 -108.834 17.167 -144.501 51.5s-53.5 80.833 -53.5 139.5c0 108 37.333 213 112 315
c72.667 98.667 158 148 256 148zM1822 503.999c-36.667 2 -77.667 -33.667 -123 -107s-68 -140.666 -68 -201.999c0 -40 16 -60 48 -60c40 0 77.333 27 112 81c50.667 79.333 76 155.666 76 228.999c0 37.333 -15 57 -45 59zM685.002 1292
c60 0 107.335 -18.166 142.002 -54.499s52 -85.5 52 -147.5c0 -72.667 -16.667 -146 -50 -220s-75 -130.667 -125 -170c-52 -41.333 -115 -62 -189 -62c-60.667 0 -108.834 17.167 -144.501 51.5s-53.5 81.166 -53.5 140.499c0 108 37.333 212.667 112 314
c73.333 98.667 158.666 148 255.999 148zM673.004 1152c-36.667 2 -77.667 -33.667 -123 -107s-68 -140.666 -68 -201.999c0 -40 16 -60 48 -60c40 0 77.333 27 112 81c50.667 79.333 76 155.666 76 228.999c0 37.333 -15 57 -45 59z" />
    <glyph glyph-name="guilsinglleft" unicode="&#x2039;" horiz-adv-x="594" 
d="M405 427l54 -142.999c10 -27.333 15 -49 15 -65c0 -27.333 -10.667 -52 -32 -74s-45 -33 -71 -33c-34 0 -58.333 19.333 -73 58l-7 18l-54 144l-19 48c-8.66699 22.667 -13 42 -13 58c0 24.667 14 56.667 42 96l85 117c38.667 53.333 76 80 112 80
c22.667 0 42.167 -8.33301 58.5 -25s24.5 -36.667 24.5 -60c0 -28.667 -14.667 -64.334 -44 -107.001z" />
    <glyph glyph-name="guilsinglright" unicode="&#x203a;" horiz-adv-x="594" 
d="M327 416l-53.001 143c-10.667 28 -16 49.667 -16 65c0 27.333 10.667 52 32 74s45.333 33 72 33c33.333 0 57.333 -19.333 72 -58l7 -18l55 -144l18 -48c8.66699 -22.667 13 -42 13 -58c0 -25.333 -14 -57.333 -42 -96l-84 -117c-38.667 -53.333 -76 -80 -112 -80
c-23.333 0 -43.166 8.33301 -59.499 25s-24.5 36.667 -24.5 60c0 28 10 57 30 87l15 20z" />
    <glyph glyph-name="Euro" unicode="&#x20ac;" 
d="M1193 937c0 -58.667 -13.998 -111.998 -41.998 -159.998c-33.333 -57.333 -77.333 -86 -132 -86c-27.333 0 -51.5 9.66699 -72.5 29s-31.5 42.666 -31.5 69.999c0 14.667 4.83301 38 14.5 70s14.5 55 14.5 69c0 67.333 -28.333 101 -85 101
c-66.667 0 -133.667 -49.667 -201 -149h72c84.667 0 127 -27.667 127 -83c0 -81.333 -56.333 -122 -169 -122h-137c-13.333 -32.667 -25 -66 -35 -100l-7 -23h129c84 0 126 -27.667 126 -83c0 -81.333 -56 -122 -168 -122h-120c1.33301 -48.667 12.666 -83 33.999 -103
c18.667 -18 69 -27 151 -27h189c84.667 0 127 -29.667 127 -89c0 -86 -56.333 -129 -169 -129h-290c-83.333 0 -148 24.667 -194 74c-61.333 66.667 -91.666 152.667 -90.999 258v16h-30c-70.667 0 -106 27.667 -106 83c0 38.667 14.833 68.667 44.5 90s64.167 32 103.5 32
h14c9.33301 39.333 21.333 80.333 36 123c-84 0 -126 27.667 -126 83c0 28.667 21.667 58.667 65 90c29.333 21.333 70.666 32 123.999 32h28c50.667 91.333 109.667 167.666 177 228.999c97.333 88.667 203.666 133 318.999 133c85.333 0 155.333 -23.667 210 -71
c67.333 -58.667 101 -137 101 -235z" />
    <glyph glyph-name="trademark" unicode="&#x2122;" horiz-adv-x="1664" 
d="M1078 1218l-191.003 -471c-47.333 -116.667 -83.666 -196.167 -108.999 -238.5s-58.333 -79.166 -99 -110.499c-59.333 -45.333 -127.666 -68 -204.999 -68c-81.333 0 -147.666 25.167 -198.999 75.5s-77 115.833 -77 196.5c0 114.667 46.333 214.167 139 298.5
s202.334 126.5 329.001 126.5c68 0 102 -25 102 -75c0 -48 -34.333 -75.333 -103 -82c-92 -8.66699 -163.667 -34.834 -215 -78.501s-77 -99.834 -77 -168.501c0 -87.333 40.333 -131 121 -131c43.333 0 81.166 18.833 113.499 56.5s67.833 103.834 106.5 198.501l191 471
h-104c-56 0 -84 19.667 -84 59c0 27.333 10.167 48.833 30.5 64.5s48.5 23.5 84.5 23.5h374h15c46 0 69 -19.667 69 -59c0 -27.333 -10.333 -48.833 -31 -64.5s-48.667 -23.5 -84 -23.5h-97zM1704 735l85.998 -0.000976562c56 0 84 -19 84 -57c0 -28 -10.167 -50 -30.5 -66
s-48.5 -24 -84.5 -24h-108c-86 0 -129 33.333 -129 100c0 20 8 48.667 24 86l131 308l-85 -91c-28 -30 -55.333 -45 -82 -45c-33.333 0 -55 21.667 -65 65l-12 50l-160 -395c-25.333 -61.333 -60.666 -92 -105.999 -92c-20 0 -36.833 6 -50.5 18s-20.5 27 -20.5 45
c0 13.333 3.33301 28.333 10 45l8 18l242 594c21.333 52.667 51 79 89 79c40.667 0 69.667 -31.333 87 -94l34 -120l160 156c40 38.667 77.333 58 112 58c24.667 0 45.334 -7.16699 62.001 -21.5s25 -32.166 25 -53.499c0 -12.667 -3 -26.667 -9 -42l-13 -31z" />
    <glyph glyph-name="Omega" unicode="&#x2126;" horiz-adv-x="1365" 
d="M59 0l0.000976562 226.998h289c-102 64 -175.667 136.5 -221 217.5s-68 180.833 -68 299.5c0 190 59 346.5 177 469.5s267.667 184.5 449 184.5c180.667 0 329.5 -61.5 446.5 -184.5s175.5 -279.5 175.5 -469.5c0 -118.667 -22.667 -218.667 -68 -300
s-118.333 -153.666 -219 -216.999h287v-227h-549v202c101.333 58 175 128 221 210s69 185 69 309c0 130 -34.333 237.5 -103 322.5s-155.334 127.5 -260.001 127.5c-106 0 -193.667 -42.667 -263 -128s-104 -192.666 -104 -321.999c0 -237.333 97.667 -410.333 293 -519
v-202h-552z" />
    <glyph glyph-name="partialdiff" unicode="&#x2202;" horiz-adv-x="1024" 
d="M133 1143l33 219c143.333 -16.667 262.333 -45 357 -85s178 -97.333 250 -172c142.667 -146.667 214 -335 214 -565c0 -168.667 -43.667 -304 -131 -406s-203.333 -153 -348 -153c-130.667 0 -242 45.667 -334 137s-138 202 -138 332c0 122.667 40.833 226 122.5 310
s182.167 126 301.5 126c102 0 187 -33.333 255 -100c-94.667 207.333 -288.667 326.333 -582 357zM511 701c-62.667 0 -114.833 -24.667 -156.5 -74s-62.5 -111.333 -62.5 -186c0 -76 21 -140.167 63 -192.5s93.667 -78.5 155 -78.5c62 0 114 25.833 156 77.5
s63 115.834 63 192.501c0 75.333 -20.667 137.666 -62 186.999s-93.333 74 -156 74z" />
    <glyph glyph-name="Delta" unicode="&#x2206;" horiz-adv-x="1365" 
d="M36 0l505 1365h274l514 -1365h-1293zM397 236h566l-283 822z" />
    <glyph glyph-name="product" unicode="&#x220f;" horiz-adv-x="1494" 
d="M81 1536h1331v-236h-171v-1576h171v-236h-586v236h162v1576h-484v-1576h162v-236h-585v236h170v1576h-170v236z" />
    <glyph glyph-name="summation" unicode="&#x2211;" horiz-adv-x="1365" 
d="M1264 1536v-509h-226l-27 273h-682l511 -752l-511 -824h702l15 271h238v-507h-1240v261l500 799l-500 727v261h1220z" />
    <glyph glyph-name="fraction" unicode="&#x2215;" horiz-adv-x="365" 
d="M-14 43l587 1186c16.667 33.333 43 50 79 50c35.333 0 53 -13.667 53 -41c0 -8.66699 -4.33301 -21.334 -13 -38.001l-587 -1186c-16 -32.667 -42.333 -49 -79 -49c-35.333 0 -53 13.333 -53 40c0 8 4.33301 20.667 13 38z" />
    <glyph glyph-name="periodcentered" unicode="&#x2219;" horiz-adv-x="511" 
d="M399 522c38 0 70.667 -13.667 98 -41s41 -60 41 -98c0 -38.667 -13.667 -71.667 -41 -99s-60 -41 -98 -41c-38.667 0 -71.667 13.667 -99 41s-41 60.333 -41 99c0 38 13.667 70.667 41 98s60.333 41 99 41z" />
    <glyph glyph-name="radical" unicode="&#x221a;" horiz-adv-x="1365" 
d="M1365 1702l-0.000976562 -236h-369l-350 -1466h-333l-122 561h-191v236h399l41 -190c14.667 -66 25 -165.667 31 -299h21c14.667 190 47.334 393.333 98.001 610l186 784h589z" />
    <glyph glyph-name="infinity" unicode="&#x221e;" horiz-adv-x="1365" 
d="M690 532c-98.667 -111.333 -207.668 -167.001 -327.001 -167.001c-96 0 -174.667 31.333 -236 94s-92 143.334 -92 242.001c0 94 31.333 172 94 234s141.667 93 237 93c112.667 0 216.667 -55.333 312 -166c92 110.667 199.667 166 323 166
c96.667 0 175.834 -31 237.501 -93s92.5 -141.667 92.5 -239s-31.167 -177 -93.5 -239s-142.5 -93 -240.5 -93c-114 0 -216.333 56 -307 168zM807.999 695.999c52.667 -78.667 104.999 -118 156.999 -118c32.667 0 60.334 11.333 83.001 34s34 50.667 34 84
c0 32.667 -11.5 60.5 -34.5 83.5s-50.833 34.5 -83.5 34.5c-52.667 0 -104.667 -39.333 -156 -118zM558.998 695.999c-52 78.667 -104.666 118.001 -157.999 118.001c-32.667 0 -60.334 -11.333 -83.001 -34s-34 -50.334 -34 -83.001s11.667 -60.5 35 -83.5
s51.333 -34.5 84 -34.5c52.667 0 104.667 39 156 117z" />
    <glyph glyph-name="integral" unicode="&#x222b;" horiz-adv-x="1024" 
d="M109 -491l45.9971 225.001c46.667 -13.333 84 -20 112 -20c46 0 77.167 12.5 93.5 37.5s24.5 72.833 24.5 143.5v88v1008c0 184 9.33301 301.333 28 352c46.667 128.667 153 193 319 193c47.333 0 108 -7 182 -21l-46 -225c-45.333 12.667 -82.666 19 -111.999 19
c-78 0 -117 -47.333 -117 -142l-1 -123v-133v-878c0 -132 -2.66699 -221.333 -8 -268s-17.333 -87.334 -36 -122.001c-57.333 -103.333 -158.666 -155 -303.999 -155c-57.333 0 -117.666 7 -180.999 21z" />
    <glyph glyph-name="approxequal" unicode="&#x2248;" horiz-adv-x="1024" 
d="M153 713l-139 91c44 105.333 88.333 178.166 133 218.499s103 60.5 175 60.5c44.667 0 115.667 -18.333 213 -55c88.667 -33.333 149.667 -50 183 -50c32 0 58.5 7.66699 79.5 23s43.833 44 68.5 86l143 -84c-47.333 -99.333 -95 -169 -143 -209s-108 -60 -180 -60
c-36.667 0 -104.667 18.333 -204 55c-90.667 33.333 -149.667 50 -177 50c-34 0 -61.333 -8.66699 -82 -26s-44 -50.666 -70 -99.999zM153 305l-139 91.001c44 105.333 88.333 178.333 133 219s102.667 61 174 61c46 0 117.333 -18.333 214 -55c88 -33.333 149 -50 183 -50
c32 0 58.5 7.66699 79.5 23s43.833 43.666 68.5 84.999l143 -84c-47.333 -98.667 -95 -168 -143 -208s-108 -60 -180 -60c-36 0 -104 18.333 -204 55c-92 33.333 -150.667 50 -176 50c-34 0 -61.5 -8.66699 -82.5 -26s-44.5 -51 -70.5 -101z" />
    <glyph glyph-name="notequal" unicode="&#x2260;" 
d="M938 881l87.0029 -0.000976562c84.667 0 127 -27.667 127 -83c0 -38 -15 -67.833 -45 -89.5s-71.333 -32.5 -124 -32.5h-173l-78 -123h161c84 0 126 -27.667 126 -83c0 -38 -14.833 -67.833 -44.5 -89.5s-70.834 -32.5 -123.501 -32.5h-248l-34 -54
c-38.667 -61.333 -83.334 -92 -134.001 -92c-30.667 0 -56.334 8.66699 -77.001 26s-31 38.333 -31 63c0 13.333 6.33301 32.333 19 57h-88c-84 0 -126 27.667 -126 83c0 38 15 67.833 45 89.5s71 32.5 123 32.5h174l78 123h-161c-84.667 0 -127 27.667 -127 83
c0 38 15 67.833 45 89.5s71.333 32.5 124 32.5h248l34 54c38.667 61.333 83.667 92 135 92c30 0 55.333 -8.66699 76 -26s31 -38.666 31 -63.999c0 -13.333 -6.33301 -32 -19 -56z" />
    <glyph glyph-name="lessequal" unicode="&#x2264;" horiz-adv-x="1024" 
d="M955 1356v-238l-620 -286l620 -286v-238l-887 414v212zM955 250v-236h-887v236h887z" />
    <glyph glyph-name="greaterequal" unicode="&#x2265;" horiz-adv-x="1024" 
d="M68 308v238l620 287l-620 285v238l887 -423v-212zM68 14v236h887v-236h-887z" />
    <glyph glyph-name="lozenge" unicode="&#x25ca;" horiz-adv-x="1365" 
d="M683 1419l532 -736l-532 -736l-532 736zM683 1237l-404 -554l404 -555l403 555z" />
    <glyph glyph-name="fi" unicode="&#xf001;" horiz-adv-x="1223" 
d="M646 765l137.999 0.000976562c84.667 0 127 -29.667 127 -89c0 -40.667 -14.833 -72.334 -44.5 -95.001s-71.167 -34 -124.5 -34h-184l-449 -1107c-37.333 -91.333 -89.333 -137 -156 -137c-29.333 0 -54 9 -74 27s-30 40.333 -30 67c0 19.333 8.66699 51 26 95l429 1055
h-68c-84.667 0 -127 29 -127 87c0 41.333 14.833 73.5 44.5 96.5s71.167 34.5 124.5 34.5h114l127 313c42.667 104 93.834 177.833 153.501 221.5s139.5 65.5 239.5 65.5h114c85.333 0 128 -29.333 128 -88c0 -42 -15 -74.667 -45 -98s-71.667 -35 -125 -35h-30
c-56 0 -100.167 -11.333 -132.5 -34s-59.5 -61 -81.5 -115zM1040 218.001l112.001 0.00195312c84.667 0 127 -29.667 127 -89c0 -40.667 -14.833 -72.334 -44.5 -95.001s-71.167 -34 -124.5 -34h-159c-58.667 0 -104.834 12 -138.501 36s-50.5 56.667 -50.5 98
c0 22.667 6.66699 50.667 20 84l165 406l11 28c31.333 75.333 81 113 149 113c28.667 0 53 -9.33301 73 -28s30 -41 30 -67c0 -20.667 -5.33301 -44.334 -16 -71.001l-11 -27zM1172 1084c38.667 0 71.5 -13.5 98.5 -40.5s40.5 -59.833 40.5 -98.5s-13.5 -71.5 -40.5 -98.5
s-59.833 -40.5 -98.5 -40.5s-71.5 13.5 -98.5 40.5s-40.5 59.833 -40.5 98.5s13.5 71.5 40.5 98.5s59.833 40.5 98.5 40.5z" />
    <glyph glyph-name="fl" unicode="&#xf002;" horiz-adv-x="1219" 
d="M646 765l137.999 0.000976562c84.667 0 127 -29.667 127 -89c0 -40.667 -14.833 -72.334 -44.5 -95.001s-71.167 -34 -124.5 -34h-184l-449 -1107c-37.333 -91.333 -89.333 -137 -156 -137c-29.333 0 -54 9 -74 27s-30 40.333 -30 67c0 19.333 8.66699 51 26 95l429 1055
h-68c-84.667 0 -127 29 -127 87c0 41.333 14.833 73.5 44.5 96.5s71.167 34.5 124.5 34.5h114l127 313c42.667 104 93.834 177.833 153.501 221.5s139.5 65.5 239.5 65.5h114c85.333 0 128 -29.333 128 -88c0 -42 -15 -74.667 -45 -98s-71.667 -35 -125 -35h-30
c-56 0 -100.167 -11.333 -132.5 -34s-59.5 -61 -81.5 -115zM1037 218.001l105.001 0.00195312c84.667 0 127 -29.667 127 -89c0 -40.667 -14.833 -72.334 -44.5 -95.001s-71.167 -34 -124.5 -34h-180c-49.333 0 -88.333 11.667 -117 35s-43 54.666 -43 93.999
c0 20.667 9.66699 55 29 103l404 994l11 27c31.333 74.667 80.666 112 147.999 112c27.333 0 50.833 -9.33301 70.5 -28s29.5 -41 29.5 -67c0 -20 -5 -42.667 -15 -68l-11 -27z" />
    <glyph glyph-name=".null" horiz-adv-x="0" 
 />
    <glyph glyph-name="nonmarkingreturn" horiz-adv-x="512" 
 />
    <glyph glyph-name="glyph240" horiz-adv-x="2138" 
d="M2119 1710c38 0 70.167 -13.167 96.5 -39.5s39.5 -58.166 39.5 -95.499c0 -38 -13.167 -70.167 -39.5 -96.5s-58.5 -39.5 -96.5 -39.5c-37.333 0 -69.166 13.167 -95.5 39.5c-26.333 26.333 -39.5 58.5 -39.5 96.5c0 37.333 13.167 69.166 39.5 95.499
s58.166 39.5 95.5 39.5zM1711 1710c37.333 0 69.166 -13.167 95.499 -39.5s39.5 -58.166 39.5 -95.499c0 -38 -13.167 -70.167 -39.5 -96.5s-58.166 -39.5 -95.499 -39.5c-38 0 -70.167 13.167 -96.5 39.5s-39.5 58.5 -39.5 96.5c0 37.333 13.167 69.166 39.5 95.499
s58.5 39.5 96.5 39.5z" />
    <glyph glyph-name="glyph241" horiz-adv-x="2138" 
d="M2168 1575l-122.001 -97.001c-29.333 -23.333 -54.666 -35 -75.999 -35c-18 0 -34 6.83301 -48 20.5s-21 29.5 -21 47.5c0 7.33301 1.33301 14.333 4 21l8 20l37 100c16.667 44 48 66 94 66h57c67.333 0 101 -26.333 101 -79c0 -25.333 -11.333 -46.666 -34 -63.999z" />
    <glyph glyph-name="glyph242" horiz-adv-x="2138" 
d="M2030 1659l42 -96.001c8.66699 -20 13 -38 13 -54c0 -18.667 -6.83301 -34.667 -20.5 -48s-29.834 -20 -48.501 -20c-21.333 0 -43.666 8.66699 -66.999 26l-119 88c-38 28.667 -57 57.334 -57 86.001c0 22.667 7.83301 41.5 23.5 56.5s35.167 22.5 58.5 22.5h74
c50 0 83.667 -20.333 101 -61z" />
    <glyph glyph-name="glyph243" horiz-adv-x="2138" 
d="M1973 1529l-119.002 -64.999c-36 -20 -63.667 -30 -83 -30c-21.333 0 -40.166 8.16699 -56.499 24.5s-24.5 35.833 -24.5 58.5c0 39.333 28.333 74 85 104l117 63c38.667 20.667 71.667 31 99 31c16.667 0 34.334 -7.66699 53.001 -23
c7.33301 -6.66699 14.333 -12.334 21 -17.001l81 -67c34 -28 51 -58 51 -90c0 -24 -8.16699 -43.833 -24.5 -59.5s-36.5 -23.5 -60.5 -23.5c-22 0 -48.667 14 -80 42z" />
    <glyph glyph-name="glyph244" horiz-adv-x="2138" 
d="M1788 1595l39 50c30 38 66.333 57 109 57c24 0 53 -11.333 87 -34l32 -21c8.66699 -6 16.334 -9 23 -9c8 0 16.333 4.33301 25 13l23 24c14 14 31 21 51 21c25.333 0 47 -7.83301 65 -23.5s27 -34.5 27 -56.5c0 -26.667 -9.66699 -51 -29 -73l-57 -65
c-26.667 -30 -58 -45 -94 -45c-31.333 0 -64 14 -98 42c-19.333 16 -32.333 24 -39 24c-8.66699 0 -19.667 -6.33301 -33 -19c-27.333 -26.667 -56.333 -40 -87 -40c-22 0 -40.5 7.66699 -55.5 23s-22.5 34.333 -22.5 57c0 22 11.333 47 34 75z" />
    <glyph glyph-name="glyph245" horiz-adv-x="2138" 
d="M2066 1791c48.667 0 90.334 -17.333 125 -52c34.667 -34.667 52 -76.334 52 -125.001c0 -49.333 -17.333 -91.333 -52 -126s-76.334 -52 -125 -52c-49.333 0 -91.333 17.333 -126 52s-52 76.667 -52 126c0 48.667 17.333 90.334 52 125.001s76.667 52 126 52zM2065 1677
c-18 0 -33.5 -6.5 -46.5 -19.5s-19.5 -28.5 -19.5 -46.5c0 -18.667 6.5 -34.5 19.5 -47.5s28.5 -19.5 46.5 -19.5c18.667 0 34.5 6.5 47.5 19.5s19.5 28.833 19.5 47.5c0 18 -6.5 33.5 -19.5 46.5s-28.833 19.5 -47.5 19.5z" />
    <glyph glyph-name="glyph246" horiz-adv-x="1605" 
d="M1826 1710c38 0 70.167 -13.167 96.5 -39.5s39.5 -58.166 39.5 -95.499c0 -38 -13.167 -70.167 -39.5 -96.5s-58.5 -39.5 -96.5 -39.5c-37.333 0 -69.166 13.167 -95.499 39.5s-39.5 58.5 -39.5 96.5c0 37.333 13.167 69.166 39.5 95.499s58.166 39.5 95.499 39.5z
M1418 1710c37.333 0 69.166 -13.167 95.499 -39.5s39.5 -58.166 39.5 -95.499c0 -38 -13.167 -70.167 -39.5 -96.5s-58.166 -39.5 -95.499 -39.5c-38 0 -70.167 13.167 -96.5 39.5s-39.5 58.5 -39.5 96.5c0 37.333 13.167 69.166 39.5 95.499s58.5 39.5 96.5 39.5z" />
    <glyph glyph-name="glyph247" horiz-adv-x="1605" 
d="M1739 1575l-123.001 -97c-29.333 -23.333 -54.666 -35 -75.999 -35c-18 0 -34 6.83301 -48 20.5s-21 29.5 -21 47.5c0 7.33301 1.33301 14.333 4 21l8 20l38 100c16 44 47 66 93 66h58c67.333 0 101 -26.333 101 -79c0 -24.667 -11.333 -46 -34 -64z" />
    <glyph glyph-name="glyph248" horiz-adv-x="1605" 
d="M1628 1659l41.001 -96c8.66699 -19.333 13 -37.333 13 -54c0 -18.667 -6.83301 -34.667 -20.5 -48s-29.834 -20 -48.501 -20c-21.333 0 -43.333 8.66699 -66 26l-119 88c-38 28 -57 56.667 -57 86c0 22.667 7.83301 41.5 23.5 56.5s35.167 22.5 58.5 22.5h74
c49.333 0 83 -20.333 101 -61z" />
    </font>
</defs>
</svg>
